<?xml version="1.0" encoding="utf-8"?>
<!-- Generator: Adobe Illustrator 25.2.1, SVG Export Plug-In . SVG Version: 6.00 Build 0)  -->
<svg version="1.1" xmlns="http://www.w3.org/2000/svg" xmlns:xlink="http://www.w3.org/1999/xlink" x="0px" y="0px"
	 viewBox="0 0 614.4 345.6" style="enable-background:new 0 0 614.4 345.6;" xml:space="preserve">
<style type="text/css">
.st0{fill:none;
	display:none;
    stroke: #aa3500;
    stroke-miterlimit:10;
    stroke-width: 0.65rem;}
	.st1{fill:none;
    stroke: #aa3500;
    stroke-miterlimit:10;
    stroke-width: 0.65rem;}
	.st2{fill:none;
    stroke: #aa3500;
    stroke-miterlimit:10;
    stroke-width: 0.17rem;}
</style>
<g id="Vektor-Smartobjekt__x2B__Ebene_3__x2B__Russell_x5F_07__x2B__Helligkeit_x2F_Kontrast_1__x2B__Ebene_4_xA0_Bild_1_" class="st0">
	<path class="st1" d="M497.01,0.29c1.28,0,2.56,0,3.84,0c1.63,0.54,3.31,0.16,4.97,0.22c1.8,0.07,3.21,0.69,4.25,2.24
		c1.78,2.66,3.71,5.2,3.69,8.66c-0.01,1.37,0.69,2.62,1.41,3.78c1.59,2.58,1.5,5.24,0.71,8.07c-1.35,4.82-2.93,9.6-2.02,14.78
		c0.38,2.16-0.9,4.03-2.69,5.02c-4.65,2.57-5.36,7.54-7.41,11.67c-0.88,1.78,0.42,3.19,1.82,4.27c4.65,3.58,7.28,8.38,8.62,14
		c0.53,2.22,0.28,4.46,0.3,6.69c0.02,2.94,0.93,4.03,3.9,4.31c1.91,0.18,3.83,0,5.75,0.02c2.8,0.02,5.07,0.97,6.85,3.26
		c1.77,2.27,3.68,4.42,4.85,7.1c0.48,1.11,1.04,2.24,1.05,3.42c0.04,2.97,0.92,5.62,2.47,8.12c0.97,1.57,0.77,3.37-0.17,4.81
		c-1.88,2.88-4.26,5.16-8,5.44c-3.56,0.27-3.89,0.72-3.34,4.36c0.36,2.38-0.04,4.44-2.09,5.97c-2.73,2.04-3.56,5-3.83,8.2
		c-0.16,1.87,0.59,3.09,2.49,3.5c1.41,0.3,2.81,0.62,4.19,1.03c5.27,1.56,7.44,7.15,4.61,11.86c-1.22,2.04-1.11,2.3,1.32,2.52
		c1.72,0.15,3.29,0.71,4.72,1.61c2.6,1.64,3.41,5.21,1.42,7.51c-1.5,1.73-2.24,3.2-1.39,5.54c0.66,1.83-0.2,3.6-1.74,4.9
		c-2.17,1.84-5.13,2.63-7.93,2.17c2.04,0.17,3.55,1.47,4.71,3.26c1.3,2.02,2.38,4.16,3.54,6.26c0.83,1.49,1.78,1.83,2.96,0.49
		c1.67-1.9,3.78-2.54,6.22-2.51c1.9,0.02,3.32-0.87,4.41-2.44c2.59-3.72,5.91-6.23,10.7-6.29c1.28-0.02,2.49-0.56,3.65-1.11
		c1.94-0.93,3.85-1.93,5.98-2.45c1.35-0.33,2.38-1.28,3.37-2.21c1.73-1.62,3.8-2.37,6.14-2.19c1.64,0.13,3.14-0.2,4.68-0.72
		c5.96-2.01,11.24,1.68,11.56,7.97c0.09,1.86-0.22,3.68-0.71,5.45c-0.62,2.25-2.42,3.46-4.57,3.75c-3.41,0.46-5.76,2.26-7.96,4.8
		c-2.98,3.43-6.78,4.65-11.23,2.83c-1.05-0.43-2.21-0.76-3.29-0.43c-5.16,1.56-9.9,3.74-12.02,9.26c-0.71,1.86-1.18,3.81-2.37,5.48
		c-1.79,2.53-4.12,3.62-7.23,3.13c-2.61-0.41-5.2-0.86-7.78-1.41c-1.91-0.41-3.7-0.16-5.03,1.43c-1.51,1.79-0.79,3.84,1.49,4.33
		c0.39,0.09,0.79,0.14,1.19,0.12c4.25-0.28,7.71,1.35,10.94,4.03c3.25,2.7,7.49,3.14,11.38,3.03c8.84-0.25,17.76,0.17,26.47-1.87
		c2.41-0.56,4.45-0.14,6.04,1.81c0.93,1.15,1.95,1.28,3.15,0.51c2.43-1.56,4.76-1.6,7.07,0.28c1.12,0.91,2.48,0.95,3.89,0.75
		c4.96-0.73,6.11,0.11,6.9,5c0.04,0.24,0.09,0.46,0.24,0.65c0,2.08,0,4.16,0,6.24c-0.25,5.13-3.13,7.58-8.08,7.97
		c-0.72,0.06-1.51,0.22-2.02,0.71c-3.12,2.95-7.46,3.54-10.97,5.75c-3.58,2.26-7.74,1.97-11.69,1.5c-6.6-0.78-13.25-0.61-19.83-1.36
		c-5.55-0.63-11-0.34-16.46,0.63c-1.34,0.24-2.69,0.5-3.81,1.35c-1.46,1.11-1.45,2.15,0,3.25c0.26,0.19-0.01-0.1,0.19,0.14
		c3.39,3.99,7.58,3.93,12.22,2.76c3.56-0.89,7.24-1.34,10.92-0.35c2.03,0.54,4,1.21,5.5,2.76c1.82,1.88,4.01,3.07,6.41,4.08
		c4.56,1.91,6.03,7.02,2.92,10.1c-2.36,2.35-5.31,4.32-8.59,4.42c-5.44,0.18-10.82,0.85-16.24,1.15c-0.98,0.05-1.96-0.05-2.9-0.34
		c1.7,0.45,2.7,1.69,3.38,3.18c1.02,2.26,2,4.53,3.12,6.74c1.21,2.41,0.87,4.6-1.16,6.52c-1.63,1.54-3.16,3.17-4.74,4.76
		c-1.61,1.61-2.2,3.44-1.59,5.68c0.8,2.93-0.37,5.18-2.67,6.9c-2.76,2.06-5.51,3.92-9.36,3.47c-3.35-0.39-6.86,0.75-10.1-1.05
		c-1.95-1.08-3.55-2.41-4.17-4.69c-0.48-1.79-1.71-3.03-3.23-4.03c-3.9-2.58-8-4.7-12.58-5.78c-3.15-0.74-6.05-1.95-8.63-3.99
		c-1.97-1.57-2.44-1.47-3.92,0.39c-1.52,1.9-3.56,2.72-5.86,2.82c-2.65,0.12-4.76,1.11-6.53,3.06c-1.9,2.09-4.27,3.02-7.12,2.59
		c-1.3-0.2-2.52,0.12-3.78,0.44c-5.04,1.28-9.93,3.06-14.92,4.49c-2.02,0.58-3.87,1.51-5.6,2.68c-1.67,1.13-3.41,2.12-5.44,2.4
		c-1.64,0.22-1.41,0.85-0.77,2.03c2.09,3.83,0.79,8.03-2.87,9.35c-1.85,0.67-3.78,0.47-5.68,0.08c-1.64-0.34-3.25-0.84-4.93-1.03
		c-3.24-0.37-6.37,0.14-9.44,1.21c-2.52,0.88-5.08,1.47-7.75,0.61c-6.74-2.16-13.77-2.79-20.72-3.87c-2.6-0.4-5.07-1.46-7.76-1.43
		c-4.16,0.04-5.6,0.9-7.05,4.77c-1.51,4.04-4.14,6.56-8.59,6.91c-2.67,0.21-5.17,0.95-7.4,2.5c-0.59,0.41-1.26,0.76-1.95,0.9
		c-6.11,1.2-11.7,3.77-17.24,6.48c-4.03,1.97-8.33,2.25-12.75,2.21c-3.83-0.03-7.67,0.47-11.48,0.95c-5.92,0-11.84,0-17.76,0
		c-1.89-0.96-3.92-1.07-5.97-0.99c-1.85,0.08-3.6-0.16-4.8-1.7c-2.18-2.82-4.18-2.72-6.91-0.94c-3.35,2.2-7.02,3.34-10.85,3.12
		c-3.97-0.23-7.98-0.07-11.91-0.52c-5.61-0.65-10.11-3.64-13.28-8.35c-1.3-1.94-2.87-2.57-5.09-2.19c-3.26,0.56-6.03-0.24-7.86-3.24
		c-0.98-1.6-2.47-2.25-4.26-2.18c-4.67,0.18-9.24-0.41-13.76-1.59c-2.33-0.61-4.61-0.18-6.13,1.74c-2.44,3.07-5.74,3.92-9.34,4.09
		c-2.63,0.12-5.27,0.22-7.9-0.24c-2.07-0.36-3.94,0.14-5.64,1.43c-2.93,2.22-6.11,2.57-9.49,1.06c-3.1-1.38-6.37-1.39-9.67-1.1
		c-3.78,0.33-10.36-3.77-11.52-7.3c-0.8-2.44,0.26-4.41,1.97-6.02c1.49-1.42,3.32-2.17,5.44-2.17c4.64,0.02,9.26-0.01,13.89-0.44
		c2.18-0.2,4.1-0.68,5.58-2.33c1.66-1.86,3.66-2.77,6.18-2.52c0.55,0.05,1.12,0,1.67-0.08c0.91-0.14,1.75-0.43,2.03-1.42
		c0.29-0.99-0.22-1.75-0.97-2.27c-1.4-0.96-2.6-2.1-3.75-3.34c-1.32-1.42-2.95-1.35-4.66-0.78c-2.48,0.83-4.38,2.61-6.54,3.96
		c-4.18,2.61-8.23,1.77-11.12-2.21c-0.52-0.71-1.05-1.42-1.49-2.18c-2.26-3.96-5.8-5.53-10.2-5.57c-1.12-0.01-2.26-0.15-3.35,0.05
		c-2.5,0.44-4.72-0.1-6.84-1.46c-1.16-0.75-2.52-1.03-3.91-0.99c-2.81,0.08-5.17-1.02-7.17-2.85c-1.95-1.78-3.86-3.59-5.85-5.33
		c-0.91-0.79-1.64-1.73-2.15-2.85c-1.26-2.77-2.67-3.55-5.64-3.2c-0.24,0.03-0.5,0.01-0.71,0.12c-3.93,2.1-7.44,0.27-10.99-1.15
		c-0.96-0.39-2.02-0.8-2.56-1.71c-1.08-1.83-2.67-2.4-4.66-2.24c-1.51,0.12-2.82-0.48-4.1-1.16c-1.87-0.99-3.77-1.24-5.77-0.45
		c-3,1.18-5.81,0.76-8.38-1.17c-1.91-1.44-3.79-1.34-5.81-0.19c-2.08,1.19-4.13,2.43-6.14,3.74c-2.74,1.79-5.63,2.19-8.66,0.78
		c-1.4-0.65-2.88-0.9-4.38-1.17c-4.2-0.74-5.76-2.77-5.36-7c0.17-1.83,0.36-3.65,0.47-5.49c0.19-2.93,1.91-5.03,4.12-6.75
		c1.97-1.53,4.13-2.69,6.58-3.35c3.06-0.83,4.79-4.51,3.64-7.44c-0.45-1.16-1.47-1.57-2.52-1.45c-5.38,0.6-10.89,0.28-16.06,2.31
		c-3.29,1.3-6.63,2.37-10.22,2.38c-4.17,0.01-6.9-1.87-8.03-5.84c-0.74-2.61-2.21-4.57-4.28-6.18c-2.9-2.26-5.11-5.08-6.55-8.44
		c-2.23-5.19,0.33-9.34,5.97-9.77c2.2-0.17,4.22-0.82,6.15-1.87c1.61-0.88,3.19-1.85,5.06-2.08c0.32,0.01-0.08,0.38,0.02,0.08
		c0.02-0.05-0.02-0.08-0.13-0.08c-3.71-0.21-7.38-0.84-11.11-0.95c-2.94-0.09-5.3-2.58-5.81-5.52c-0.35-2.04-1.06-4.08-0.81-6.16
		c0.49-4.08,2.68-6.94,6.64-8.31c1.98-0.68,4.04-0.92,6.11-1.13c1.35-0.14,2.57-0.74,2.71-2.26c0.14-1.47-1.19-1.73-2.22-2.1
		c-2.63-0.96-5.33-0.99-8.05-0.49c-2.29,0.42-4.55,0.84-6.9,0.45c-1.6-0.26-2.88,0.74-4.25,1.39c-4.75,2.25-10.07,1.79-12.64-2.79
		c-0.85-1.52-0.97-3.26-1.48-4.88c0-1.28,0-2.56,0-3.84c0.45-2.64,1.69-4.63,4.25-5.75c1.24-0.54,2.33-1.4,3.22-2.46
		c1.35-1.62,1.25-2.71-0.37-4.08c-1.22-1.03-2.58-1.88-3.7-3.04c-1.89-1.96-2.2-4.22-1.16-6.64c1.82-4.24,5.13-6.79,9.64-7.38
		c3.86-0.51,7.76-1.1,11.69-0.27c2.28,0.48,4.46-0.01,6.42-1.31c2.38-1.58,4.86-1.79,7.55-0.85c3.12,1.09,5.87,0.49,8.47-1.68
		c3.09-2.58,6.63-4.08,10.84-3.36c2.18,0.37,3.32-0.36,4.09-2.42c0.62-1.65,1.04-3.36,1.43-5.08c0.46-2.03-0.4-3.57-1.96-4.81
		c-1.26-1-2.71-1.7-4-2.64c-2.34-1.72-4.05-3.85-3.18-6.91c0.81-2.88,3-4.51,5.95-4.85c2.44-0.28,3.96-1.51,4.73-3.79
		c1.06-3.15,2.69-5.77,6.07-6.94c1.23-0.43,2.02-1.53,2.92-2.45c4.44-4.52,8.79-5.34,14.59-2.77c0.37,0.16,0.72,0.35,1.08,0.52
		c3.78,1.84,5.67,0.78,6.15-3.41c0.36-3.19-1.57-6.69-4.51-8.01c-2.95-1.32-5.64-2.99-7.88-5.35c-2.66-2.79-3.98-6.12-4.23-9.92
		c-0.06-0.91,0.19-1.74,0.64-2.52c2.6-4.47,9.61-6.01,13.38-2.55c3.86,3.53,8.11,4.54,13.06,3.61c1.03-0.19,2.07-0.16,3.1,0.07
		c3.83,0.85,7.77,1.01,11.57,2.02c1.62,0.43,2.97-0.19,4.22-1.18c2-1.59,4.28-2.45,6.86-2.48c2-0.02,3.66,0.64,5.26,1.92
		c4.56,3.64,9.3,7.04,14.09,10.39c1.57,1.1,3.29,1.61,5.22,1.25c0.71-0.13,1.47-0.26,2.15-0.08c4.8,1.28,9.63,0.93,14.49,0.45
		c2.08-0.2,3.9,0.71,5.7,1.59c1.02,0.5,2.06,0.92,3.22,0.56c0.47-0.15,0.95-0.39,0.9-0.96c-0.03-0.46-0.5-0.65-0.89-0.65
		c-5.07,0.06-6.83-3.94-8.76-7.44c-1.67-3.01-1.6-6.2,0.16-9.39c3.03-5.51,7.49-9.08,13.56-10.6c1.79-0.45,2.92-1.4,3.69-3.06
		c1.7-3.66,4.44-5.99,8.63-6.33c3.84-0.31,7.29-1.64,10.36-4.01c2-1.54,3.68-3.2,4.46-5.75c0.78-2.54,2.6-4.38,4.98-5.58
		c1.4-0.71,2.46-1.63,3.22-3.06c1.24-2.33,3.51-3.47,5.88-4.27c3.58-1.21,6.98-2.61,10.02-4.99c2.14-1.67,4.9-2.34,7.6-2.78
		c3.86-0.64,7.77-0.81,11.68-1.03c5.15-0.28,10.17-0.4,15.07,1.66c1.62,0.68,3.47,0.28,5.22,0.02c2.51-0.38,4.95-0.21,7.15,1.24
		c3.69,2.45,3.72,6.77,0.04,9.27c-1.32,0.9-2.85,1.45-4.22,2.29c-0.62,0.38-1.27,0.84-1.08,1.69c0.22,0.97,1.07,1.09,1.89,1.14
		c0.73,0.04,1.42-0.16,2.13-0.32c1.17-0.26,2.32-0.69,3.54-0.58c3.93,0.36,7.64-0.73,11.47-1.32c5.88-0.9,11.92-2.73,18.01-0.95
		c0.54,0.16,1.15,0.22,1.66,0.03c3.93-1.45,7.55,0.2,11.24,1.06c2.09,0.49,3.63,1.63,4.21,3.81c0.46,1.73,1.48,2.5,3.36,2.21
		c1.87-0.29,3.63,0.08,5.24,1.21c1.77,1.25,3.75,1.35,5.72,0.55c3.16-1.28,6.31-0.46,9.43-0.02c2.11,0.29,3.44,1.83,4.61,3.55
		c2.54,3.74,3.42,4.02,7.83,2.76c2.38-0.68,4.78-1.33,7.21-1.81c2.06-0.4,3.1-1.5,3.12-3.58c0-0.16-0.02-0.33,0.03-0.48
		c2.33-6.72,0.26-13.79,1.7-20.65c0.82-3.87,2.55-6.2,6.08-7.5c2.55-0.94,5.26-1.42,7.73-2.59c2.46-1.17,4.87-2.41,7.18-3.86
		c3.61-2.27,6.8-1.72,9.56,1.53c4.52,5.32,10.95,6.39,16.96,2.79c1.51-0.91,3.04-1.74,4.69-2.39c3.6-1.43,7.06-1.45,10.69,0.11
		c7.04,3.03,14.17,2.79,21.26,0.04c2.62-1.02,5.3-1.78,8.13-1.93c0.96-0.05,1.93-0.2,2.81-0.59C483.02,3.14,489.93,1.42,497.01,0.29
		z"/>
</g>
<g id="Vektor-Smartobjekt__x2B__Ebene_3__x2B__Russell_x5F_07__x2B__Helligkeit_x2F_Kontrast_1__x2B__Ebene_4_xA0_Bild_Kopie" class="st0">
	<path class="st1" d="M497.01,0.29c1.28,0,2.56,0,3.84,0c1.63,0.54,3.31,0.16,4.97,0.22c1.8,0.07,3.21,0.69,4.25,2.24
		c1.78,2.66,3.71,5.2,3.69,8.66c-0.01,1.37,0.69,2.62,1.41,3.78c1.59,2.58,1.5,5.24,0.71,8.07c-1.35,4.82-2.93,9.6-2.02,14.78
		c0.38,2.16-0.9,4.03-2.69,5.02c-4.65,2.57-5.36,7.54-7.41,11.67c-0.88,1.78,0.42,3.19,1.82,4.27c4.65,3.58,7.28,8.38,8.62,14
		c0.53,2.22,0.28,4.46,0.3,6.69c0.02,2.94,0.93,4.03,3.9,4.31c1.91,0.18,3.83,0,5.75,0.02c2.8,0.02,5.07,0.97,6.85,3.26
		c1.77,2.27,3.68,4.42,4.85,7.1c0.48,1.11,1.04,2.24,1.05,3.42c0.04,2.97,0.92,5.62,2.47,8.12c0.97,1.57,0.77,3.37-0.17,4.81
		c-1.88,2.88-4.26,5.16-8,5.44c-3.56,0.27-3.89,0.72-3.34,4.36c0.36,2.38-0.04,4.44-2.09,5.97c-14.06,0.85,11.99,57.5,21.27,56.33
		c1.89-0.24,3.32-0.87,4.41-2.44c2.59-3.72,5.91-6.23,10.7-6.29c1.28-0.02,2.49-0.56,3.65-1.11c1.94-0.93,3.85-1.93,5.98-2.45
		c1.35-0.33,2.38-1.28,3.37-2.21c1.73-1.62,3.8-2.37,6.14-2.19c1.64,0.13,3.14-0.2,4.68-0.72c5.96-2.01,11.24,1.68,11.56,7.97
		c0.09,1.86-0.22,3.68-0.71,5.45c-0.62,2.25-2.42,3.46-4.57,3.75c-3.41,0.46-5.76,2.26-7.96,4.8c-2.98,3.43-6.78,4.65-11.23,2.83
		c-1.05-0.43-2.21-0.76-3.29-0.43c-5.16,1.56-9.9,3.74-12.02,9.26c-0.71,1.86-1.18,3.81-2.37,5.48c-1.79,2.53-4.12,3.62-7.23,3.13
		c-2.61-0.41-5.2-0.86-7.78-1.41c-1.91-0.41-3.7-0.16-5.03,1.43c-1.51,1.79-0.79,3.84,1.49,4.33c0.39,0.09,0.79,0.14,1.19,0.12
		c4.25-0.28,7.71,1.35,10.94,4.03c3.25,2.7,7.49,3.14,11.38,3.03c8.84-0.25,17.76,0.17,26.47-1.87c2.41-0.56,4.45-0.14,6.04,1.81
		c0.93,1.15,1.95,1.28,3.15,0.51c2.43-1.56,4.76-1.6,7.07,0.28c1.12,0.91,2.48,0.95,3.89,0.75c4.96-0.73,6.11,0.11,6.9,5
		c0.04,0.24,0.09,0.46,0.24,0.65c0,2.08,0,4.16,0,6.24c-0.25,5.13-9.39,2.07-34.7,39.29c-2.36,2.35-5.31,4.32-8.59,4.42
		c-5.44,0.18-16.97,20.43-18.55,22.01c-1.61,1.61-2.2,3.44-1.59,5.68c0.8,2.93-0.37,5.18-2.67,6.9c-2.76,2.06-5.51,3.92-9.36,3.47
		c-3.35-0.39-6.86,0.75-10.1-1.05c-1.95-1.08-3.55-2.41-4.17-4.69c-0.48-1.79-1.71-3.03-3.23-4.03c-3.9-2.58-8-4.7-12.58-5.78
		c-3.15-0.74-6.05-1.95-8.63-3.99c-1.97-1.57-2.44-1.47-3.92,0.39c-1.52,1.9-3.56,2.72-5.86,2.82
		c-2.65,0.12-43.37,25.71-47.03,27.03c-1.85,0.67-3.78,0.47-5.68,0.08c-1.64-0.34-3.25-0.84-4.93-1.03
		c-3.24-0.37-6.37,0.14-9.44,1.21c-2.52,0.88-5.08,1.47-7.75,0.61c-6.74-2.16-13.77-2.79-20.72-3.87c-2.6-0.4-5.07-1.46-7.76-1.43
		c-4.16,0.04-5.6,0.9-7.05,4.77c-1.51,4.04-4.14,6.56-8.59,6.91c-2.67,0.21-5.17,0.95-7.4,2.5c-0.59,0.41-1.26,0.76-1.95,0.9
		c-6.11,1.2-95.75,9.06-99.67,8.6c-5.61-0.65-10.11-3.64-13.28-8.35c-1.3-1.94-2.87-2.57-5.09-2.19c-3.26,0.56-6.03-0.24-7.86-3.24
		c-0.98-1.6-2.47-2.25-4.26-2.18c-4.67,0.18-9.24-0.41-13.76-1.59c-2.33-0.61-4.61-0.18-6.13,1.74c-2.44,3.07-5.74,3.92-9.34,4.09
		c-2.63,0.12-5.27,0.22-7.9-0.24c-2.07-0.36-3.94,0.14-5.64,1.43c-2.93,2.22-6.11,2.57-9.49,1.06c-3.1-1.38-6.37-1.39-9.67-1.1
		c-3.78,0.33-10.36-3.77-11.52-7.3c-0.8-2.44,0.26-4.41,1.97-6.02c1.49-1.42,3.32-2.17,5.44-2.17c4.64,0.02,9.26-0.01,13.89-0.44
		c2.18-0.2,4.1-0.68,5.58-2.33c1.66-1.86,3.66-2.77,6.18-2.52c0.55,0.05,1.12,0,1.67-0.08c0.91-0.14,1.75-0.43,2.03-1.42
		c0.29-0.99-0.22-1.75-0.97-2.27c-1.4-0.96-2.6-2.1-3.75-3.34c-1.32-1.42-2.95-1.35-4.66-0.78c-2.48,0.83-4.38,2.61-6.54,3.96
		c-4.18,2.61-8.23,1.77-11.12-2.21c-0.52-0.71-1.05-1.42-1.49-2.18c-2.26-3.96-5.8-5.53-10.2-5.57c-1.12-0.01-2.26-0.15-3.35,0.05
		c-2.5,0.44-4.72-0.1-6.84-1.46c-1.16-0.75-2.52-1.03-3.91-0.99c-2.81,0.08-5.17-1.02-7.17-2.85c-1.95-1.78-3.86-3.59-5.85-5.33
		c-0.91-0.79-1.64-1.73-2.15-2.85c-1.26-2.77-2.67-3.55-5.64-3.2c-0.24,0.03-0.5,0.01-0.71,0.12c-3.93,2.1-7.44,0.27-10.99-1.15
		c-0.96-0.39-2.02-0.8-2.56-1.71c-1.08-1.83-2.67-2.4-4.66-2.24c-1.51,0.12-2.82-0.48-4.1-1.16c-1.87-0.99-3.77-1.24-5.77-0.45
		c-3,1.18-5.81,0.76-8.38-1.17c-1.91-1.44-3.79-1.34-5.81-0.19c-2.08,1.19-4.13,2.43-6.14,3.74c-2.74,1.79-5.63,2.19-8.66,0.78
		c-1.4-0.65-30.63-29.82-31.76-33.79c-0.74-2.61-2.21-4.57-4.28-6.18c-2.9-2.26-5.11-5.08-6.55-8.44
		c-2.23-5.19,0.35-17.22,0.15-20.19c-1.35-20.03-16.83-16.81-19.4-21.39c-0.85-1.52-0.97-3.26-1.48-4.88c0-1.28,0-2.56,0-3.84
		c0.45-2.64,1.69-4.63,4.25-5.75c1.24-0.54,1.98-1.84,3.22-2.46c22.65-11.48,20.65-19.09,18.71-19.96
		c-9.7-4.35-7.53,2.68-14.72-1.61c-6.57-3.92-0.18-11.61,1.51-13.62c34.19-40.6,1.26-16.65,35.41-74.43
		c4.44-4.52,8.79-5.34,14.59-2.77c0.37,0.16,0.72,0.35,1.08,0.52c3.78,1.84,5.67,0.78,6.15-3.41c0.36-3.19-1.57-6.69-4.51-8.01
		c-2.95-1.32-5.64-2.99-7.88-5.35c-2.66-2.79-3.98-6.12-4.23-9.92c-0.06-0.91,0.19-1.74,0.64-2.52c2.6-4.47,9.61-6.01,13.38-2.55
		c3.86,3.53,8.11,4.54,13.06,3.61c1.03-0.19,2.07-0.16,3.1,0.07c3.83,0.85,7.77,1.01,11.57,2.02c1.62,0.43,2.97-0.19,4.22-1.18
		c2-1.59,4.31-2.07,6.86-2.48c75.02-12.07,81.69-23.09,91.73-15.27c4.6,3.58,9.3,7.04,14.09,10.39c1.57,1.1,3.29,1.61,5.22,1.25
		c0.71-0.13,1.47-0.26,2.15-0.08c4.8,1.28,9.63,2.93,14.49,2.45c2.08-0.2,3.9,0.71,5.7,1.59c1.02,0.5,2.06,0.92,3.22,0.56
		c0.47-0.15,2.95-2.39,2.9-2.96c-0.03-0.46-2.5-0.65-2.89-0.65c-5.07,0.06-6.83-3.94-8.76-7.44c-1.67-3.01-1.6-6.2,0.16-9.39
		c12.18-17.35,77.01-8.97,77.01-8.97c86.34,9.39,88.37,6.08,90.68,4.63c3.61-2.27,6.8-1.72,9.56,1.53
		c4.52,5.32,10.95,6.39,16.96,2.79c1.51-0.91,3.04-1.74,4.69-2.39c3.6-1.43,7.06-1.45,10.69,0.11c7.04,3.03,14.17,2.79,21.26,0.04
		c2.62-1.02,5.3-1.78,8.13-1.93c0.96-0.05,1.93-0.2,2.81-0.59C483.02,3.14,489.93,1.42,497.01,0.29z"/>
</g>
<g id="Vektor-Smartobjekt__x2B__Ebene_3__x2B__Russell_x5F_07__x2B__Helligkeit_x2F_Kontrast_1__x2B__Ebene_4_xA0_Bild_Kopie_Kopie" class="st0">
	<path class="st1" d="M28.15,221.92c-11.94-13.68-27.87-28.55-27.86-37.85c0-1.28,0-2.56,0-3.84c0.45-2.64,1.69-4.63,4.25-5.75
		c1.24-0.54,1.98-1.84,3.22-2.46c22.65-11.48,20.65-19.09,18.71-19.96c-9.7-4.35-7.53,2.68-14.72-1.61
		c-6.57-3.92-0.18-11.61,1.51-13.62c34.19-40.6,1.26-16.65,35.41-74.43c4.44-4.52,8.79-5.34,14.59-2.77
		c0.37,0.16,0.72,0.35,1.08,0.52c3.78,1.84,5.67,0.78,6.15-3.41c0.36-3.19-1.57-6.69-4.51-8.01c-2.95-1.32-5.64-2.99-7.88-5.35
		c-2.66-2.79-3.98-6.12-4.23-9.92c-0.06-0.91,0.19-1.74,0.64-2.52c2.6-4.47,9.61-6.01,13.38-2.55c3.86,3.53,8.11,4.54,13.06,3.61
		c1.03-0.19,2.07-0.16,3.1,0.07c3.83,0.85,7.77,1.01,11.57,2.02c1.62,0.43,2.97-0.19,4.22-1.18c2-1.59,4.31-2.07,6.86-2.48
		c75.02-12.07,81.69-23.09,91.73-15.27c4.6,3.58,10.8,0.86,16.8-2.75c1.51-0.91,3.04-1.74,4.69-2.39c3.6-1.43,7.89-2.68,10.69,0.11
		c9.16,9.13,29,1.99,117.9-10.15c1.28,0,2.56,0,3.84,0c1.63,0.54,3.31,0.16,4.97,0.22c1.8,0.07,3.21,0.69,4.25,2.24
		c1.78,2.66,31.74,12.71,92.33,17.2S593.23,36.4,598.47,37.3c8.6,1.48,12.01,8.94,11.52,10.7c-0.62,2.25-2.42,3.46-4.57,3.75
		c-3.41,0.46-5.76,2.26-7.96,4.8c-2.98,3.43-6.78,4.65-11.23,2.83c-1.05-0.43-2.21-0.76-3.29-0.43c-5.16,1.56-9.9,3.74-12.02,9.26
		c-0.71,1.86-1.18,3.81-2.37,5.48c-1.79,2.53-4.12,3.62-7.23,3.13c-2.61-0.41-5.2-0.86-7.78-1.41c-1.91-0.41-3.7-0.16-5.03,1.43
		c-1.51,1.79-0.79,3.84,1.49,4.33c0.39,0.09,0.79,0.14,1.19,0.12c4.25-0.28-5.16,28.54-1.94,31.21c3.25,2.7,7.49,3.14,11.38,3.03
		c8.84-0.25,17.76,0.17,26.47-1.87c2.41-0.56,4.45-0.14,6.04,1.81c0.93,1.15,1.95,1.28,3.15,0.51c2.43-1.56,4.76-1.6,7.07,0.28
		c1.12,0.91,2.48,0.95,3.89,0.75c4.96-0.73,6.11,0.11,6.9,5c0.04,0.24,0.09,0.46,0.24,0.65c0,2.08,0,4.16,0,6.24
		c-11.63,77.24-9.67,105.72-34.98,142.94c-2.36,2.35-5.31,4.32-8.59,4.42c-5.44,0.18-16.97,20.43-18.55,22.01
		c-1.61,1.61-2.2,3.44-1.59,5.68c0.8,2.93-0.37,5.18-2.67,6.9c-2.76,2.06-5.51,3.92-9.36,3.47c-3.35-0.39-6.86,0.75-10.1-1.05
		c-1.95-1.08-3.55-2.41-4.17-4.69c-0.48-1.79-1.71-3.03-3.23-4.03c-3.9-2.58-8-4.7-12.58-5.78c-3.15-0.74-6.05-1.95-8.63-3.99
		c-1.97-1.57-4.87-1.74-5.92,0.39c-0.64,1.29-0.75,2.92-6.27,5.26c-31.24,12.82-40.96,23.28-44.62,24.6
		c-1.85,0.67-3.78,0.47-5.68,0.08c-1.64-0.34-3.25-0.84-4.93-1.03c-3.24-0.37-6.37,0.14-9.44,1.21c-2.52,0.88-5.08,1.47-7.75,0.61
		c-6.74-2.16-13.77-2.79-20.72-3.87c-2.6-0.4-5.07-1.46-7.76-1.43c-4.16,0.04-5.6,0.9-7.05,4.77c-1.51,4.04-4.14,6.56-8.59,6.91
		c-2.67,0.21-98.29,13.78-102.21,13.32c-5.61-0.65-16.93-4.96-20.1-9.67c-1.3-1.94-2.87-2.57-5.09-2.19
		c-3.26,0.56-6.03-0.24-7.86-3.24c-0.98-1.6-2.47-2.25-4.26-2.18c-4.67,0.18-9.24-0.41-13.76-1.59c-2.33-0.61-4.61-0.18-6.13,1.74
		c-2.44,3.07-5.74,3.92-9.34,4.09c-2.63,0.12-5.27,0.22-7.9-0.24c-2.07-0.36-3.94,0.14-5.64,1.43c-2.93,2.22-6.11,2.57-9.49,1.06
		c-3.1-1.38-6.37-1.39-9.67-1.1c-3.78,0.33-10.36-3.77-11.52-7.3c-0.8-2.44,0.26-4.41,1.97-6.02c1.49-1.42,3.32-2.17,5.44-2.17
		c4.64,0.02,9.26-0.01,13.89-0.44c2.18-0.2,4.1-0.68,5.58-2.33c1.66-1.86,3.66-2.77,6.18-2.52c0.55,0.05,1.12,0,1.67-0.08
		c0.91-0.14,1.75-0.43,2.03-1.42c0.29-0.99-0.22-1.75-0.97-2.27c-1.4-0.96-2.6-2.1-3.75-3.34c-1.32-1.42-2.95-1.35-4.66-0.78
		c-2.48,0.83-4.38,2.61-6.54,3.96c-4.18,2.61-8.23,1.77-11.12-2.21c-0.52-0.71-1.05-1.42-1.49-2.18c-2.26-3.96-5.8-5.53-10.2-5.57
		c-1.12-0.01-2.26-0.15-3.35,0.05c-2.5,0.44-4.72-0.1-6.84-1.46c-1.16-0.75-2.52-0.98-3.91-0.99c-25.7-0.2-78.73-57.88-80.74-59.71
		C48.09,226.95,46.45,242.9,28.15,221.92z"/>
</g>
<g id="Vektor-Smartobjekt__x2B__Ebene_3__x2B__Russell_x5F_07__x2B__Helligkeit_x2F_Kontrast_1__x2B__Ebene_4_xA0_Bild_Kopie_Kopie_Kopie">
	<path class="st2" d="M6.56,190.57c-5.73-3.61-6.67-9.2-6.27-10.33c0.45-2.64,1.33-4.81,7.47-8.21
		c22.22-12.3,20.65-19.09,18.71-19.96c-9.7-4.35-7.53,2.68-14.72-1.61c-6.57-3.92-0.18-11.61,1.51-13.62
		c34.19-40.6,1.26-16.65,35.41-74.43c4.44-4.52,8.79-5.34,14.59-2.77c0.37,0.16,0.72,0.35,1.08,0.52c3.78,1.84,5.67,0.78,6.15-3.41
		c0.36-3.19-1.57-6.69-4.51-8.01c-2.95-1.32-5.64-2.99-7.88-5.35c-2.66-2.79-3.98-6.12-4.23-9.92c-0.06-0.91,0.19-1.74,0.64-2.52
		c2.6-4.47,9.61-6.01,13.38-2.55c3.86,3.53,8.11,4.54,13.06,3.61c1.03-0.19,2.07-0.16,3.1,0.07c3.83,0.85,7.77,1.01,11.57,2.02
		c1.62,0.43,2.97-0.19,4.22-1.18c2-1.59,4.31-2.07,6.86-2.48c75.02-12.07,81.69-23.09,91.73-15.27c4.6,3.58,10.8,0.86,16.8-2.75
		c1.51-0.91,3.04-1.74,4.69-2.39c3.6-1.43,7.89-2.68,10.69,0.11c9.16,9.13,29,1.99,117.9-10.15c1.28,0,2.56,0,3.84,0
		c1.63,0.54,3.31,0.16,4.97,0.22c1.8,0.07,3.21,0.69,4.25,2.24c1.78,2.66,31.74,12.71,92.33,17.2S593.23,36.4,598.47,37.3
		c8.6,1.48,12.01,8.94,11.52,10.7c-0.62,2.25-2.42,3.46-4.57,3.75c-3.41,0.46-5.76,2.26-7.96,4.8c-2.98,3.43-6.78,4.65-11.23,2.83
		c-1.05-0.43-2.21-0.76-3.29-0.43c-5.16,1.56-9.9,3.74-12.02,9.26c-0.71,1.86-1.18,3.81-2.37,5.48c-1.79,2.53-4.12,3.62-7.23,3.13
		c-2.61-0.41-5.2-0.86-7.78-1.41c-1.91-0.41-3.7-0.16-5.03,1.43c-1.51,1.79-0.79,3.84,1.49,4.33c0.39,0.09,0.79,0.14,1.19,0.12
		c4.25-0.28-5.16,28.54-1.94,31.21c3.25,2.7,7.49,3.14,11.38,3.03c8.84-0.25,17.76,0.17,26.47-1.87c2.41-0.56,4.45-0.14,6.04,1.81
		c0.93,1.15,1.95,1.28,3.15,0.51c2.43-1.56,4.76-1.6,7.07,0.28c1.12,0.91,2.48,0.95,3.89,0.75c4.96-0.73,6.11,0.11,6.9,5
		c0.04,0.24,0.09,0.46,0.24,0.65c0,2.08,0,4.16,0,6.24c-11.63,77.24-16.67,73.72-41.98,110.94c-2.36,2.35-5.31,4.32-8.59,4.42
		c-5.44,0.18-16.97,20.43-18.55,22.01c-1.61,1.61-2.2,3.44-1.59,5.68c0.8,2.93-0.37,5.18-2.67,6.9c-2.76,2.06-5.51,3.92-9.36,3.47
		c-3.35-0.39-6.86,0.75-10.1-1.05c-1.95-1.08-3.55-2.41-4.17-4.69c-0.48-1.79-1.71-3.03-3.23-4.03c-3.9-2.58-8-4.7-12.58-5.78
		c-3.15-0.74-6.05-1.95-8.63-3.99c-1.97-1.57-4.87-1.74-5.92,0.39c-0.64,1.29-0.75,2.92-6.27,5.26
		c-31.24,12.82-40.96,23.28-44.62,24.6c-1.85,0.67-3.78,0.47-5.68,0.08c-1.64-0.34-3.25-0.84-4.93-1.03
		c-3.24-0.37-6.37,0.14-9.44,1.21c-2.52,0.88-5.08,1.47-7.75,0.61c-6.74-2.16-13.77-2.79-20.72-3.87c-2.6-0.4-5.07-1.46-7.76-1.43
		c-4.16,0.04-5.6,0.9-7.05,4.77c-1.51,4.04-4.14,6.56-8.59,6.91c-2.67,0.21-163.38,42.32-170.53,43.73
		c-18.96,2.35-23.3-3.35-26.46-8.07c-1.3-1.94-2.87-2.57-5.09-2.19c-3.26,0.56-6.03-0.24-7.86-3.24c-0.98-1.6-2.47-2.25-4.26-2.18
		c-4.67,0.18-9.24-0.41-13.76-1.59c-2.33-0.61-4.61-0.18-6.13,1.74c-2.44,3.07-5.74,3.92-9.34,4.09c-2.63,0.12-5.27,0.22-7.9-0.24
		c-2.07-0.36-3.94,0.14-5.64,1.43c-2.93,2.22-6.11,2.57-9.49,1.06c-3.1-1.38-6.37-1.39-9.67-1.1c-3.78,0.33-10.36-3.77-11.52-7.3
		c-0.8-2.44,0.26-4.41,1.97-6.02c1.49-1.42,3.32-2.17,5.44-2.17c4.64,0.02,9.26-0.01,13.89-0.44c2.18-0.2,4.1-0.68,5.58-2.33
		c1.66-1.86,3.66-2.77,6.18-2.52c0.55,0.05,1.12,0,1.67-0.08c0.91-0.14,1.75-0.43,2.03-1.42c0.29-0.99-0.22-1.75-0.97-2.27
		c-1.4-0.96-2.6-2.1-3.75-3.34c-1.32-1.42-2.95-1.35-4.66-0.78c-2.48,0.83-4.38,2.61-6.54,3.96c-4.18,2.61-8.23,1.77-11.12-2.21
		c-0.52-0.71-1.05-1.42-1.49-2.18c-2.26-3.96-5.8-5.53-10.2-5.57c-1.12-0.01-2.26-0.15-3.35,0.05c-2.5,0.44-7.51,2.31-10.05-2.28
		C53.58,283,23.19,200.14,6.56,190.57z"/>
</g>
</svg>
