<?xml version="1.0" encoding="utf-8"?>
<!-- Generator: Adobe Illustrator 25.2.1, SVG Export Plug-In . SVG Version: 6.00 Build 0)  -->
<svg version="1.1" xmlns="http://www.w3.org/2000/svg" xmlns:xlink="http://www.w3.org/1999/xlink" x="0px" y="0px"
	 viewBox="0 0 1439.25 808.5" style="enable-background:new 0 0 1439.25 808.5;" xml:space="preserve">
<style type="text/css">
.st0{fill:none;
	display:none;
    stroke: #aa3500;
    stroke-miterlimit:10;
    stroke-width: 0.65rem;}
	.st1{fill:none;
    stroke: #aa3500;
    stroke-miterlimit:10;
    stroke-width: 0.65rem;}
	.st2{fill:none;
    stroke: #aa3500;
    stroke-miterlimit:10;
    stroke-width: 0.17rem;}


</style>
<g id="Layer_0_xA0_Bild_1_" class="st0">
	<path class="st1" d="M893.74,10.94c10.74,0,21.49,0,32.23,0c7.91,0.78,15.87,0.98,23.78,1.81c2.99,0.31,5.83,1.39,8.84,1.52
		c16.18,0.69,32.35-8.67,48.54-9.86c4.36-0.32,8.74,0.03,13.11-0.1c18.56-0.57,37.12-0.72,55.68-0.74
		c7.99-0.01,15.95,0.15,23.76,2.16c5.05,1.3,6.42,5.15,3.22,9.27c-0.61,0.79-1.36,1.46-2.09,2.14c-3.56,3.33-3.85,4.37-2.13,8.84
		c0.57,1.48,0.65,2.82,0.18,4.35c-1.47,4.8-0.08,7.21,4.78,8.57c2.8,0.79,5.48,0.46,7.96-0.99c3.32-1.94,6.03-1.38,8.7,1.35
		c4.05,4.13,9,6.64,14.81,7.39c2.6,0.34,5.18,0.81,7.52,2.13c3.25,1.82,6.4,1.54,9.61-0.26c6.32-3.55,13.01-3.05,19.5-0.91
		c5.55,1.83,6.92,1.81,10.55-2.81c1.7-2.16,3.7-3.16,6.51-2.37c4.32,1.22,8.69-0.28,13.05,0.12c1.61,0.15,3.31-0.25,4.82,0.45
		c3.8,1.75,7.32,1.68,11.04-0.54c2.37-1.42,4.71,0.04,6.32,1.87c2.99,3.38,6.49,3.9,10.52,2.52c6.89-2.36,13.72-1.64,20.45,0.61
		c3.96,1.32,7.26,0.79,10.19-2.39c3.41-3.71,10.75-2.86,13.1,1.66c2.43,4.7,6.1,7.07,11.1,8.59c4.62,1.4,8.73,2.13,13.3-0.06
		c2.98-1.42,5.17-0.27,6.84,2.69c1.3,2.3,2.69,4.48,4.81,6.15c2.69,2.12,5.63,2.79,8.76,1.4c2.58-1.14,4.92-1.27,7.53-0.03
		c2.96,1.4,5.85,0.82,8.44-1.18c0.59-0.46,1.16-0.95,1.77-1.39c6.17-4.38,6.17-4.38,3.65-11.53c-0.17-0.47-0.2,0.1-0.12-0.34
		c1.08-5.99-2.42-11.03-3.37-16.59c-0.97-5.71,2.52-8.2,8.09-6.35c3.7,1.23,6.22,3.03,7.43,7.03c0.96,3.17,2.87,6.17,5.21,8.59
		c3.14,3.26,4.14,7.06,3.7,11.33c-0.33,3.17,0.26,5.97,2.32,8.4c1.11,1.3,1.42,2.88,1.84,4.45c1.1,4.16,3.76,7.07,8.01,7.35
		c7.01,0.46,10.08,4.8,11.67,10.74c0.84,3.11,2.35,5.45,5.15,7c0.43,0.24,0.03-0.17,0.3,0.21c4.21,6.06,10.81,6.41,17.2,7.29
		c1.63,0.22,3.22,0.26,4.84-0.05c7.53-1.47,14.1,2.1,17.37,9.25c1.63,3.55,3.87,6.81,5.22,10.5c0,0.75,0,1.5,0,2.25
		c-1.92,3.51-1.9,7.76-4.4,11.09c-0.99,1.32-0.49,3,0.91,3.9c1.74,1.12,2.59,2.81,3.49,4.51c0,1,0,2,0,3
		c-0.59,1.92-1.52,3.69-2.41,5.48c-1.4,2.82-1.79,5.69-0.71,8.71c0.17,0.47,0.4,0.97,0.35,1.45c-0.83,7.16,0.57,14.74-3.99,21.19
		c-1.24,1.75-2,3.8-0.62,5.58c4.55,5.87,0.76,10.8-1.52,15.92c-2.82,6.36-6.93,9.53-14.34,6.79c-2.42-0.89-5.37-0.87-8.09-1.23
		c-4.07-0.55-6.69,1.55-6.04,5.47c1.03,6.3-2.9,9.77-6.77,13.24c-2.23,2-4.31,3.95-4.59,6.98c-0.47,5.12-3.57,8.64-7.38,11.19
		c-4.94,3.31-9.28,7.29-13.16,11.58c-9.67,10.71-22.01,17.52-34.11,24.74c-9.23,5.51-18.7,10.57-28.7,14.57
		c-2.8,1.12-4.81,3.08-5.87,5.96c-0.91,2.48-2.34,4.7-3.69,6.94c-3.63,5.99-60.04,44.26-65.71,47.91c-3.08,1.98-3.49,3.51-2.05,6.96
		c1.08,2.57,2.68,4.82,4.62,6.78c2.14,2.17,2.49,4.48,1.08,7.13c-2.47,4.64-3.54,9.61-7.95,13.62c-68.01,61.86-66.06,83.5-66.7,89.4
		c-0.5,4.6-1.11,5.97-5.47,6.67c-6.38,1.03-11.32,4.15-14.48,9.59c-2.56,4.4-7.09,5.41-11.03,7.2c-5.17,2.34-8.58,5.93-10.5,11.06
		c-1.07,2.84-2.82,4.64-5.8,5.22c-2.17,0.42-3.93,1.53-5.41,3.15c-3.86,4.24-13.53,12.82-14.08,13.33
		c-9.3,8.66-44.71,26.56-98.31,29.54c-2.38,1.1-44.37,0.54-48.86,1.11c-3.96,0.5-7.56,2.57-11.7,2.28c-2.12-0.15-4.17-0.2-6.22-0.94
		c-6.02-2.18-12.69,0.46-15.5,6.25c-2.7,5.55-7.01,8.26-13.09,8.23c-3.54-0.02-6.63,0.92-9.18,3.49c-2.25,2.27-4.96,2.14-7.66,1.11
		c-2.97-1.14-5.99-1.73-9.16-1.46c-1.79,0.15-3.69,0.49-4.71,1.98c-3.4,5.01-8.9,6.75-13.97,8.99c-3.95,1.74-6.69,4.08-7.86,8.33
		c-0.62,2.27-1.8,4.38-2.77,6.55c-2.27,5.07-5.41,8.55-11.66,7.92c-2.94-0.3-5.67,0.92-7.8,3.07c-2.6,2.62-5.83,4.24-9.02,5.96
		c-2.96,1.6-5.74,1.6-8.38-0.49c-3.18-2.52-6.47-2.63-10.2-1.21c-3.13,1.2-6.49,1.82-9.82,2.23c-3.62,0.44-6.79,1.61-9.33,4.26
		c-2.2,2.3-4.8,3.45-8.02,3.32c-1.88-0.08-3.74,0.29-5.46,1.13c-8.43,4.11-79.3,27.9-102.33,34.71
		c-0.87,0.72-29.44,9.82-32.28,11.09c-5.21,2.33-73.1,26.43-111.74,35.94c-0.84,0.55-47.6,11.44-79.66,19.4
		c-8.31,2.52-38.94,9.57-45.92,10.26c-0.61,0.06-123.04,20.86-138.49,24.42c-13.75,3.16-27.31,7.66-41.26,9.23
		c-17.27,1.95-32.73,9.55-49.33,13.4c-4.34,1.01-8.65-7.45-12.99-6.51c-8.37,1.81-16.02,5.88-24.49,7.27
		c-1.23,0.2-2.65,0.19-3.8,0.95c-61.84,9.22-110.7,14.53-119.56,1.68c-3.71-4.49,7.76-8.83,11.01-13.55
		c4.28-6.23,10.32-9.31,16.71-11.91c3.14-1.28,5.82-2.64,7.89-5.27c0.85-1.08,1.72-2.15,2.63-3.17c2.45-2.75,5.24-4.57,9.22-3.52
		c1.69,0.45,3.5,0.42,5.21,0.05c2.55-0.55,4.85-0.14,7.27,0.84c4.73,1.93,7.49-0.1,7.52-5.25c0.01-1.13,0.09-2.3-0.29-3.35
		c-2.12-5.87,3.53-8.83,7.68-7.36c4.07,1.44,7.6,1.8,11.34-0.56c1.51-0.95,3.2-0.2,4.61,0.67c3.65,2.24,7.05,1.46,10-1.13
		c2.53-2.22,5.25-3.71,8.54-4.32c1.22-0.23,2.53-0.58,3.47-1.36c4.03-3.37,9.63-3.32,13.75-6.52c1.32-1.02,3.13-0.61,4.74-0.32
		c2.24,0.4,4.46,0.36,6.7-0.09c2.51-0.51,4.43-1.68,5.14-4.31c0.74-2.76,2.76-4.02,5.13-5.47c3.66-2.23,7.3-3.5,11.57-3.33
		c1.92,0.08,3.75-0.75,5.03-2.19c2-2.22,4.44-3.02,7.32-3.09c5.83-0.14,10.92-3.31,16.62-4.19c3.06-0.47,3.48-3.24,3-5.95
		c-0.59-3.34-1.08-6.64-0.16-10.02c1.52-5.53,6.71-7.24,10.47-3c5.68,6.41,13.19,8.84,21.03,10.72c4.24,1.02,7.92-0.55,10.95-3.49
		c1.81-1.76,3.77-2.8,6.31-2.72c0.74,0.02,1.55-0.03,2.21-0.33c6.3-2.89,13.28-3.27,19.78-5.44c4.1-1.38,7.81-3.29,10.78-6.51
		c1.2-1.3,2.57-2.32,4.38-2.72c3.35-0.73,5.42-2.9,6.56-6.07c0.51-1.41,0.95-2.85,1.74-4.14c1.8-2.89,4.75-3.7,7.75-2.16
		c0.78,0.4,1.43,1,2.17,1.47c5.12,3.29,8.33,2.49,11.3-2.72c1.3-2.29,2.45-4.61,3.32-7.11c2.11-6.02,5.75-7.63,11.59-5.3
		c0.23,0.09,0.45,0.22,0.69,0.28c2.51,0.63,4.58,2.85,7.39,2.3c3.01-0.59,3.46-3.68,5.15-5.56c2.13-2.38,5.09-3.86,6.97-6.69
		c1.51-2.29,1.17-2.84-1.23-3.79c-9.42-3.75-19.32-5.89-28.93-8.98c-8.34-2.68-16.32-6.19-24.35-9.59c-2.32-0.98-4.3-2.56-6.29-4.04
		c-2.15-1.61-2.31-4.13-0.67-6.28c1.33-1.74,3.12-2.91,5.12-3.67c3.61-1.38,5.43-3.82,5.08-7.76c-0.11-1.28,0.13-2.49,0.95-3.53
		c1.83-2.3,2.92-4.76,1.06-7.53c-2-2.97-5.01-5.62-8.38-4.57c-6.96,2.16-9.64-1.61-12.14-6.82c-1.54-3.21-4.24-5.58-7.31-7.35
		c-3.68-2.13-7.38-4.16-10.42-7.23c-2.09-2.11-4.78-1.79-7.42-1.39c-7.47,1.12-13.91-1.29-19.61-5.93c-3.41-2.78-6.15-3.19-9.8-0.6
		c-2.67,1.89-5.1,2.26-7.9,0.34c-1.76-1.21-3.9-1.63-5.97-2.12c-3.16-0.75-6.58-1.29-9.14-3.2c-3.88-2.89-7.62-4.81-12.68-3.82
		c-2.3,0.45-3.84-1.75-4.61-3.77c-1.58-4.12-4.71-5.67-8.78-5.7c-7.28-0.05-13.59-2.66-19.3-7c-3.34-2.54-6.86-3.31-10.81-1.14
		c-4.46,2.45-11.32-0.64-11.73-5.82c-0.68-8.72-7.79-11.26-13.39-15.3c-1.42-1.03-3.38-0.48-5.13-0.28
		c-4.41,0.51-6.49-1.03-7.35-5.4c-0.56-2.87-1.58-5.49-3.37-7.84c-1.73-2.26-3.96-3.56-6.77-3.24c-2.98,0.35-5.37-0.49-7.49-2.53
		c-2.3-2.22-5.05-2.57-8.01-1.57c-1.89,0.64-3.81,1.16-5.74,1.67c-3.68,0.98-4.8,2.9-4.15,6.68c0.13,0.74,0.63,1.58,0.32,2.19
		c-2.66,5.37-1.14,11.25-2.15,16.78c-1.16,6.39-4.98,7.57-10.15,3.72c-2.69-2.01-4.21-4.19-4.23-7.76
		c-0.02-3.86-1.03-7.69-2.47-11.29c-1.54-3.83-1.62-7.52,0.17-11.21c1.31-2.71,1.72-5.44,0.65-8.34c-0.71-1.93-0.4-3.96-0.38-5.95
		c0.04-4.58-1.79-8-6.06-9.87c-5.07-2.22-7.6-5.87-6.72-11.52c0.66-4.24-0.28-7.93-3.51-10.9c-0.36-0.33-0.05,0.16-0.22-0.29
		c-3.63-9.63-12.31-11.41-20.83-13.34c-4.28-0.97-10.63-8.32-10.53-12.84c0.07-3.57-0.46-7.04-1.25-10.47
		c-0.72-3.13-0.16-5.63,2.39-7.72c1.83-1.5,3.2-3.49,5-5.06c2.1-1.83,1.9-3.78,0.11-5.87c-3.03-3.54-2.72-7,1.23-9.41
		c4.47-2.74,7.02-6.26,6.65-11.62c-0.03-0.5-0.09-1.1,0.18-1.47c3.84-5.25,3.86-12.73,9.8-16.76c2.83-1.92,3.85-4.46,2.45-7.78
		c-0.75-1.79-0.18-3.48,0.82-4.97c3.24-4.83,7.75-8.42,12.18-12.06c1.64-1.35,3.43-1.01,4.93,0.2c3.57,2.88,7.97,4.12,11.94,6.19
		c3.95,2.05,6.88,0.98,7.83-3.21c1.31-5.75,5.55-8.14,10.17-10.02c3.32-1.35,5.81-3.14,7.44-6.35c1.85-3.65,5.22-6.28,8.9-6.93
		c6.23-1.1,85.34-27.46,90.78-30.01c71.61-33.46,82.86-25.95,89.38-27.65c3.52-0.92,4.25-1.96,4-5.59
		c-0.13-1.88-0.39-3.76-1.13-5.49c-1.3-3.03-2.4-5.97-1.1-9.36c0.6-1.58-0.46-3.14-1.04-4.65c-1.74-4.52-1.27-6.23,2.92-8.66
		c3.54-2.06,4.11-6.11,6.45-8.99c3.72-4.59,4.69-5.24,10.4-3.3c1.42,0.48,2.84,0.95,4.3,1.31c3.14,0.77,5.92,0.29,8.26-2.13
		c1.63-1.69,3.56-2.6,6.04-2.27c7.48,0.98,14.44-0.15,20.26-5.43c1.17-1.07,2.54-1.49,4.09-1.59c3.41-0.22,6.6-1.32,9.75-2.54
		c0.93-0.36,2.01-0.64,2.62-1.41c4.19-5.33,10.54-8.75,13.42-15.25c1.04-2.35,2.92-4.07,5.31-5.08c5.97-2.52,9.18-7.59,11.67-13.09
		c2.43-5.36,3.29-6.17,9.29-5.48c4.87,0.56,9.48,0.25,13.42-3.13c4.41-3.79,9.84-4.61,15.32-4.87c5.59-0.26,9.7-3,13.12-7.02
		c2.03-2.38,4.16-3.76,7.44-3.07c3.81,0.79,6.74-1.72,9.7-3.35c12.42-6.84,25.87-8.33,39.67-8.1
		c6.93,0.12,104.81-13.03,108.82-13.84c12.01-2.41,84.89-38.27,89.78-41.45c8.8-5.72,17.94-10.81,27.38-15.28
		c7.99-3.79,15.93,2.26,24.17-1.03c5.9-2.36,128.93-33.95,136.56-34C881.24,12.21,887.46,11.11,893.74,10.94z"/>
</g>
<g id="Layer_0_xA0_Bild_Kopie">
	<path class="st2" d="M893.74,10.94c10.74,0,21.49,0,32.23,0c7.91,0.78,15.87,0.98,23.78,1.81c2.99,0.31,5.83,1.39,8.84,1.52
		c16.18,0.69,32.35-8.67,48.54-9.86c4.36-0.32,8.74,0.03,13.11-0.1c18.56-0.57,37.12-0.72,55.68-0.74
		c7.99-0.01,15.95,0.15,23.76,2.16c5.05,1.3,6.42,5.15,3.22,9.27c-0.61,0.79-1.36,1.46-2.09,2.14c-3.56,3.33-3.85,4.37-2.13,8.84
		c0.57,1.48,0.65,2.82,0.18,4.35c-1.47,4.8-0.08,7.21,4.78,8.57c2.8,0.79,5.48,0.46,7.96-0.99c3.32-1.94,6.03-1.38,8.7,1.35
		c4.05,4.13,9,6.64,14.81,7.39c2.6,0.34,5.18,0.81,7.52,2.13c3.25,1.82,6.4,1.54,9.61-0.26c6.32-3.55,13.01-3.05,19.5-0.91
		c5.55,1.83,6.92,1.81,10.55-2.81c1.7-2.16,3.7-3.16,6.51-2.37c4.32,1.22,8.69-0.28,13.05,0.12c1.61,0.15,3.31-0.25,4.82,0.45
		c3.8,1.75,7.32,1.68,11.04-0.54c2.37-1.42,4.71,0.04,6.32,1.87c2.99,3.38,6.49,3.9,10.52,2.52c6.89-2.36,13.72-1.64,20.45,0.61
		c3.96,1.32,7.26,0.79,10.19-2.39c3.41-3.71,10.75-2.86,13.1,1.66c2.43,4.7,6.1,7.07,11.1,8.59c4.62,1.4,8.73,2.13,13.3-0.06
		c2.98-1.42,5.17-0.27,6.84,2.69c1.3,2.3,2.69,4.48,4.81,6.15c2.69,2.12,5.63,2.79,8.76,1.4c2.58-1.14,4.92-1.27,7.53-0.03
		c2.96,1.4,5.85,0.82,8.44-1.18c0.59-0.46,1.16-0.95,1.77-1.39c6.17-4.38,6.17-4.38,3.65-11.53c-0.17-0.47-0.2,0.1-0.12-0.34
		c1.08-5.99-2.42-11.03-3.37-16.59c-0.97-5.71,2.52-8.2,8.09-6.35c3.7,1.23,6.22,3.03,7.43,7.03c0.96,3.17,2.87,6.17,5.21,8.59
		c3.14,3.26,4.14,7.06,3.7,11.33c-0.33,3.17,0.26,5.97,2.32,8.4c1.11,1.3,1.42,2.88,1.84,4.45c1.1,4.16,3.76,7.07,8.01,7.35
		c7.01,0.46,10.08,4.8,11.67,10.74c0.84,3.11,2.35,5.45,5.15,7c0.43,0.24,0.03-0.17,0.3,0.21c4.21,6.06,10.81,6.41,17.2,7.29
		c1.63,0.22,3.22,0.26,4.84-0.05c7.53-1.47,14.1,2.1,17.37,9.25c1.63,3.55,3.87,6.81,5.22,10.5c0,0.75,0,1.5,0,2.25
		c-1.92,3.51-1.9,7.76-4.4,11.09c-0.99,1.32-10.49,43-9.09,43.9c1.74,1.12,2.59,2.81,3.49,4.51c0,1,0,2,0,3
		c-0.59,1.92-1.52,3.69-2.41,5.48c-1.4,2.82-1.79,5.69-0.71,8.71c0.17,0.47,0.4,0.97,0.35,1.45
		c-0.83,7.16-19.43,104.74-23.99,111.19c-1.24,1.75-2,3.8-0.62,5.58c4.55,5.87,0.76,10.8-1.52,15.92
		c-2.82,6.36-6.93,9.53-14.34,6.79c-2.42-0.89-5.37-0.87-8.09-1.23c-4.07-0.55-6.69,1.55-6.04,5.47c1.03,6.3-2.9,9.77-6.77,13.24
		c-68.4,103.12-54.06,105.42-121.77,160.45c-71.35,57.98-21.8,61.41-22.44,67.31c-0.5,4.6-1.11,5.97-5.47,6.67
		c-6.38,1.03-11.32,4.15-14.48,9.59c-2.56,4.4-7.09,5.41-11.03,7.2c-5.17,2.34-8.58,5.93-10.5,11.06c-1.07,2.84-2.82,4.64-5.8,5.22
		c-2.17,0.42-3.93,1.53-5.41,3.15c-3.86,4.24-13.53,12.82-14.08,13.33c-9.3,8.66-14.71,26.56-68.31,29.54
		c-2.38,1.1-44.37,0.54-48.86,1.11c-3.96,0.5-7.56,2.57-11.7,2.28c-2.12-0.15-4.17-0.2-6.22-0.94c-6.02-2.18-12.69,0.46-15.5,6.25
		c-2.7,5.55-7.01,8.26-13.09,8.23c-3.54-0.02-6.63,0.92-9.18,3.49c-2.25,2.27-4.96,2.14-7.66,1.11c-2.97-1.14-5.99-1.73-9.16-1.46
		c-1.79,0.15-3.69,0.49-4.71,1.98c-3.4,5.01-8.9,6.75-13.97,8.99c-3.95,1.74-6.69,4.08-7.86,8.33c-0.62,2.27-1.8,4.38-2.77,6.55
		c-2.27,5.07-5.41,8.55-11.66,7.92c-2.94-0.3-5.67,0.92-7.8,3.07c-2.6,2.62-5.83,4.24-9.02,5.96c-2.96,1.6-5.74,1.6-8.38-0.49
		c-3.18-2.52-6.47-2.63-10.2-1.21c-3.13,1.2-6.49,1.82-9.82,2.23c-3.62,0.44-6.79,1.61-9.33,4.26c-2.2,2.3-4.8,3.45-8.02,3.32
		c-1.88-0.08-3.74,0.29-5.46,1.13c-8.43,4.11-51.57,13.02-102.33,4.71c-0.87,0.72-195.38-36.48-234.02-26.98
		c-0.84,0.55-47.6,11.44-79.66,19.4c-8.31,2.52-38.94,9.57-45.92,10.26c-0.61,0.06-123.04,20.86-138.49,24.42
		c-13.75,3.16-27.31-2.34-41.26-0.77c-17.27,1.95-32.73,9.55-49.33,13.4c-4.34,1.01-8.65-7.45-12.99-6.51
		c-8.37,1.81-16.02,5.88-24.49,7.27c-1.23,0.2-2.65,0.19-3.8,0.95c-61.84,9.22-110.7,14.53-119.56,1.68
		c-3.71-4.49,7.76-8.83,11.01-13.55c4.28-6.23,10.32-9.31,16.71-11.91c3.14-1.28,5.82-2.64,7.89-5.27c0.85-1.08,1.72-2.15,2.63-3.17
		c2.45-2.75,5.24-4.57,9.22-3.52c1.69,0.45,3.5,0.42,5.21,0.05c2.55-0.55,4.85-0.14,7.27,0.84c4.73,1.93,7.49-0.1,7.52-5.25
		c0.01-1.13,0.09-2.3-0.29-3.35c-9.11-41.48,57.72-10.57,121.64-43.56c2.83-2.14,3.48-3.24,3-5.95c-0.59-3.34-1.08-6.64-0.16-10.02
		c1.52-5.53,6.71-7.24,10.47-3c5.68,6.41,13.19,8.84,21.03,10.72c4.24,1.02,32.76,0.19,39.25-1.99
		c50.17-13.83,59.24-54.6,49.62-57.7c-8.34-2.68-16.32-6.19-24.35-9.59c-2.32-0.98-4.3-2.56-6.29-4.04
		c-2.15-1.61-48.05-57.43-53.74-62.07c-3.41-2.78-6.15-3.19-9.8-0.6c-2.67,1.89-5.1,2.26-7.9,0.34c-1.76-1.21-3.9-1.63-5.97-2.12
		c-3.16-0.75-6.58-1.29-9.14-3.2c-3.88-2.89-7.62-4.81-12.68-3.82c-2.3,0.45-3.84-1.75-4.61-3.77c-1.58-4.12-4.71-5.67-8.78-5.7
		c-7.28-0.05-13.59-2.66-19.3-7c-3.34-2.54-6.86-3.31-10.81-1.14c-4.46,2.45-11.32-0.64-11.73-5.82
		c7.38-22.21-57.67-42.56-63.24-8.83c-1.06,6.41-4.98,7.57-10.15,3.72c-2.69-2.01-4.21-4.19-4.23-7.76
		c-0.02-3.86-1.03-7.69-2.47-11.29c-1.54-3.83-1.62-7.52,0.17-11.21c1.31-2.71,1.72-5.44,0.65-8.34c-0.71-1.93-0.4-3.96-0.38-5.95
		c0.04-4.58-1.79-8-6.06-9.87c-5.07-2.22-7.6-5.87-6.72-11.52c0.66-4.24-0.28-7.93-3.51-10.9c-0.36-0.33-0.05,0.16-0.22-0.29
		c-3.63-9.63-12.31-11.41-20.83-13.34c-4.28-0.97-10.63-8.32-10.53-12.84c0.07-3.57-0.46-7.04-1.25-10.47
		c-0.72-3.13,19.84-75.63,22.39-77.72c1.83-1.5,3.2-3.49,5-5.06c2.1-1.83,1.9-3.78,0.11-5.87c-3.03-3.54-2.72-7,1.23-9.41
		c4.47-2.74,7.02-6.26,6.65-11.62c-0.03-0.5-0.09-1.1,0.18-1.47c3.84-5.25,3.86-12.73,9.8-16.76c2.83-1.92,3.85-4.46,2.45-7.78
		c-0.75-1.79-0.18-3.48,0.82-4.97c3.24-4.83,7.75-8.42,12.18-12.06c1.64-1.35,3.43-1.01,4.93,0.2c3.57,2.88,7.97,4.12,11.94,6.19
		c3.95,2.05,6.88,0.98,7.83-3.21c1.31-5.75,5.55-8.14,10.17-10.02c3.32-1.35,5.81-3.14,7.44-6.35c1.85-3.65,5.22-6.28,8.9-6.93
		c6.23-1.1,65.34-17.46,70.78-20.01c71.61-33.46,82.86-5.95,89.38-7.65c3.52-0.92,4.25-1.96,4-5.59c-0.13-1.88-0.39-3.76-1.13-5.49
		c-1.3-3.03-2.4-5.97-1.1-9.36c0.6-1.58-0.46-3.14-1.04-4.65c-1.74-4.52-1.27-6.23,2.92-8.66c3.54-2.06,4.11-6.11,6.45-8.99
		c3.72-4.59,4.69-5.24,10.4-3.3c1.42,0.48,2.84,0.95,4.3,1.31c3.14,0.77,5.92,0.29,8.26-2.13c1.63-1.69,3.56-2.6,6.04-2.27
		c7.48,0.98,14.44-0.15,20.26-5.43c1.17-1.07,2.54-1.49,4.09-1.59c3.41-0.22,6.6-1.32,9.75-2.54c0.93-0.36,2.01-0.64,2.62-1.41
		c4.19-5.33,10.54-8.75,13.42-15.25c1.04-2.35,2.92-4.07,5.31-5.08c5.97-2.52,9.18-7.59,11.67-13.09c2.43-5.36,3.29-6.17,9.29-5.48
		c4.87,0.56,9.48,0.25,13.42-3.13c4.41-3.79,9.84-4.61,15.32-4.87c5.59-0.26,9.7-3,13.12-7.02c2.03-2.38,4.16-3.76,7.44-3.07
		c3.81,0.79,6.74-1.72,9.7-3.35c12.42-6.84,25.87-8.33,39.67-8.1C495.16,77.95,593.05,64.8,597.06,64
		c12.01-2.41,84.89,1.73,89.78-1.45c8.8-5.72,17.94-10.81,27.38-15.28c7.99-3.79,15.93,2.26,24.17-1.03
		c5.9-2.36,128.93-33.95,136.56-34C881.24,12.21,887.46,11.11,893.74,10.94z"/>
</g>
</svg>
