<?xml version="1.0" encoding="utf-8"?>
<!-- Generator: Adobe Illustrator 25.2.1, SVG Export Plug-In . SVG Version: 6.00 Build 0)  -->
<svg version="1.1" xmlns="http://www.w3.org/2000/svg" xmlns:xlink="http://www.w3.org/1999/xlink" x="0px" y="0px"
	 viewBox="0 0 1920 1080" style="enable-background:new 0 0 1920 1080;" xml:space="preserve">
<style type="text/css">
	.st0{fill:none;
	display:none;
    stroke: #aa3500;
    stroke-miterlimit:10;
    stroke-width: 0.65rem;}
	.st1{fill:none;
    stroke: #aa3500;
    stroke-miterlimit:10;
    stroke-width: 0.65rem;}
	.st2{fill:none;
    stroke: #aa3500;
    stroke-miterlimit:10;
    stroke-width: 0.17rem;}
</style>
<g id="Ebene_1" class="st0">
	<path class="st1" d="M1553.4,0c4.16,0,8.32,0,12.48,0c3.48,1.79,7.36,1.3,10.96,1.24c2.95-0.05,5.9-0.16,8.82,0.18
		c2.59,0.05,4.24,1.5,5.74,3.48c4.07,5.36,7.64,11.05,11.34,16.65c1.56,2.36,2.09,4.95,2.04,7.75c-0.13,6.42,1.4,12.54,5.02,17.75
		c4.96,7.14,5.38,14.98,4.25,22.98c-2.18,15.35-4.1,30.74-6.31,46.09c-1.24,8.6-4.6,15.94-12.97,20.02
		c-6.77,3.3-10.89,8.68-12.51,16.05c-1.19,5.4-4.38,9.91-6.82,14.75c-4.13,8.23-3.47,11.74,3.92,17.27
		c16.1,12.05,24.92,28.39,28.66,47.77c1.07,5.53,0.81,11.13,0.01,16.71c-1.37,9.63,0.9,12.89,10.36,14.77
		c7.81,1.55,15.6,0.01,23.38-0.46c3.88-0.24,5.97-3.38,7.63-6.62c4.94-9.69,9.74-19.45,14.62-29.17c1.51-3,2.99-6.02,4.52-9.01
		c6.43-12.54,13.71-14.87,26.76-9.4c13.78,5.78,24.94,15.51,37.04,23.82c31.21,21.44,64.51,37.84,102.32,43.81
		c12.33,1.95,24.75,3.61,37.2,3.29c18.18-0.47,32.33,10.25,35.38,31.75c0.99,6.96,0.47,13.6-1.09,20.4
		c-5.15,22.46-9.41,45.14-11.1,68.12c-1.91,25.97-5.43,51.78-7.17,77.77c-1.24,18.49-3.39,36.92-6.79,55.18
		c-1.17,6.26-1.48,12.61-4.4,18.53c-5.59,11.33-14.94,17.39-26.96,19.16c-8.28,1.22-14.66,4.47-19.62,11.34
		c-8.4,11.63-20.1,17.85-38.46,11.4c-5.91-2.07-11.7-1.85-17.24,0.91c-5.86,2.92-11.62,6.08-17.11,9.68
		c-7.13,4.68-11.83,11.11-14.09,19.32c-1.02,3.71-2.4,7.3-3.98,10.79c-5.35,11.82-12.87,15.97-25.73,14.14
		c-7.6-1.08-15.14-2.38-22.57-4.41c-8.7-2.38-15.64,0.43-19.38,7.35c-3.69,6.82-1.16,12.07,6.43,13.29
		c2.85,0.46,5.75,0.53,8.62,0.36c9.46-0.58,18.25,2.19,24.77,8.49c9.02,8.72,20.12,10.58,31.45,12.52c9.04,1.55,18.1,1.1,27.24,0.41
		c9.7-0.73,19.47-0.64,29.21-1.11c11.36-0.55,22.6-1.6,33.79-3.69c9.71-1.81,19.48-3.36,29.48-3.24c8.35,0.1,15.45,2.9,21.23,8.54
		c4.7,4.57,9.48,6.69,15.96,4.49c3.03-1.03,6.38-0.66,9.53-0.26c5.71,0.73,8.75,4.1,9.94,10.09c0.24,1.2,0.02,2.58,0.88,3.65
		c0,8.64,0,17.28,0,25.92c-0.83,6.95-3.04,13.02-9.77,16.54c-3.62,1.89-7.45,2.95-11.45,3.24c-7.77,0.56-13.11,4.08-16.13,11.48
		c-5.23,12.79-14.76,22.75-22.85,33.63c-9.36,12.57-19.38,24.64-28.66,37.26c-7.38,10.04-16.8,17.93-25.73,26.36
		c-5.81,5.49-11.82,10.78-17.53,16.36c-13.26,12.97-27.03,25.4-40.5,38.15c-6.35,6.01-13.75,10.88-19.94,17.21
		c-5.79,5.92-9.06,11.82-6.2,20.55c2.08,6.35,0.38,12.61-4.87,17.52c-6.37,5.95-13.39,10.95-21.27,14.59
		c-7.43,3.43-15.44,2.07-23.21,1.72c-4.91-0.22-9.82-1.57-14.55-2.96c-7.8-2.29-13.79-7.28-15.76-15.37
		c-1.78-7.31-6.06-11.91-12.16-15.77c-13.49-8.55-27.59-15.31-43.39-18.63c-8.99-1.89-17.05-6.21-23.61-13.04
		c-5.75-5.98-6.37-5.67-10.76,1.12c-3.72,5.75-9.05,9.88-15,13.14c-36.46,20-73.03,39.79-109.36,60.01
		c-12.44,6.92-25.07,13.47-37.64,20.16c-6.5,3.46-12.99,3.97-19.94,2.54c-8.12-1.67-16.04-4.21-24.53-4.15
		c-7.34,0.05-14.37,1.31-21.09,3.95c-10.77,4.23-21.28,4.13-32.27,0.48c-15.86-5.27-32.57-6.58-49.01-8.95
		c-6.82-0.98-13.62-1.9-20.2-4c-6.05-1.93-12.27-2.43-18.51-1.69c-8.36,1-14.46,4.68-17.38,13.44
		c-5.65,16.92-14.51,23.16-32.42,23.73c-5.52,0.18-10.37,1.76-14.57,5.29c-2.75,2.32-5.83,4.16-9.31,4.77
		c-20.15,3.54-38.15,12.71-56.43,21.17c-8.96,4.15-18.33,6.48-28.31,6.26c-11.57-0.26-23,1.73-34.49,2.67
		c-3.31,0.27-6.69-0.56-9.92,0.65c-14.08,0-28.16,0-42.24,0c-5.79-0.92-11.65-1.03-17.46-1.71c-15.89-1.88-30.98-6.75-45.2-13.73
		c-15.92-7.81-31.61-16.19-44.96-28.22c-6.89-6.21-13.98-12.19-20.37-18.93c-4.86-5.12-10.38-9.48-15.76-14.01
		c-8.28-6.97-17.15-7.85-26.79-3.23c-11.11,5.33-21.99,11.12-32.56,17.42c-21.37,12.74-44.26,19.78-69.21,19.67
		c-6.87-0.03-13.73,0.19-20.61-0.33c-12.69-0.95-23.99-6.59-35.91-10.12c-27.17-8.07-54.91-13.51-82.63-19.25
		c-27.24-5.63-113.17-18.86-472.96-211.61c-14.61-8.57-29-17.54-43.9-25.61c-9.29-5.03-15.76-12.81-21.91-21.04
		c-5.12-6.85-9.07-14.02-7.77-23.03c0.1-0.7-0.25-22.47,30.49-24.93c6.73-0.99,13.52-1.6,20.39-0.09c4.87,1.07,8.98,2.85,11.89,6.98
		c0.25,0.58,6.72,13.51,10.56,19.68c3.42,5.49,7.23,10.8,11.03,16.07c6.84,13.55,27.36,5.38,31.73,4.32
		c6.79-1.82,77.38-22.89,87.53-27.2c7.9-3.35,12.44-9.32,13.48-18.23c0.63-5.45,8.58-70.95,5.99-83.74
		c-1.12-5.53-2.9-10.8-5.94-15.61c-3-4.75-4.01-10.36-7.04-15.19c-5.57-8.87-12.07-16.88-19.57-24.15
		c-15.09-14.62-28.03-31.07-40.52-47.91c-9.83-13.26-13.35-28.45-13.29-44.64c0.06-15.36-0.18-30.67-2.92-45.87
		c-3.04-16.83-9.49-32.11-19.35-46.06c-3.78-5.35-7.52-10.74-11.16-16.19c-2.99-4.48-4.92-9.38-3.7-14.95
		c1.68-7.69,7.28-11.38,16.77-12.13c17.84-1.42,35.7-2.74,53.14-7.28c22.87-5.96,38.6-19.83,47.24-41.78
		c1.82-4.62,3.96-9.07,6.17-13.51c2.25-4.52,5.99-5.54,10.29-5.35c8.48,0.37,16.11,3.24,23.42,7.66
		c20.66,12.5,41.01,25.49,61.57,38.13c11.92,7.33,24.79,12.57,38.96,13.98c10.09,1,19.97-0.16,29.05-4.44
		c28.78-13.58,56.75-28.79,85.08-43.27c6.4-3.27,12.69-6.8,19.27-9.72c4.9-2.18,10.02-3.14,15.41-1.79
		c6.17,1.55,12.32,1.5,18.49-0.29c9.57-2.78,18.67-1.4,27.3,3.45c2.23,1.25,4.41,2.61,6.91,3.3c2.7,0.74,5.38,0.89,7.93-0.51
		c1.61-0.88,2.94-2.11,2.76-4.13c-0.2-2.13-1.89-2.78-3.69-3.18c-0.63-0.14-1.28-0.31-1.9-0.22c-7.32,1.14-12.1-2.92-16.4-7.97
		c-7.61-8.93-13.85-18.43-13.24-30.9c0.11-2.27,0.51-4.39,1.35-6.51c5.36-13.54,14.99-23.64,26.13-32.49
		c10.89-8.65,21.93-17.11,32.83-25.75c7.61-6.03,16.36-9.25,26.06-9.76c16.94-0.89,29.69-9.83,41.07-21.36
		c1.12-1.14,1.89-2.61,2.39-4.13c8.15-24.65,26.85-38.18,49.93-46.75c9.02-3.35,17.54-6.8,25.3-13.04
		c8.82-7.09,20.22-9.4,31.45-10.63c11.75-1.28,23.55-2.04,35.39-2.1c7.8-0.04,15.56-1.78,23.41-0.15c3.63,0.75,7.23,1.62,10.56,3.12
		c7.78,3.49,15.77,3.56,23.98,2.34c6.23-0.93,12.43-0.76,18.44,1.52c7.89,3,12.25,9.45,11.67,17.76
		c-0.52,7.43-6.02,10.9-11.78,13.89c-4.11,2.13-8.51,3.7-12.47,6.14c-1.8,1.11-3.66,2.31-3.41,4.77c0.26,2.57,2.25,3.74,4.39,4.6
		c3.13,1.27,6.32,0.94,9.41-0.07c9.31-3.05,18.68-4.07,28.32-1.65c3.57,0.89,7.04-0.06,10.17-1.84c5.88-3.34,12.13-4.6,18.88-4.36
		c5.77,0.21,11.47-0.96,17.1-2.14c9.98-2.09,19.88-2.8,29.79,0.39c3.64,1.17,7.35,0.46,10.88-0.64c6.39-1.99,12.57-1.69,18.76,0.83
		c3.26,1.33,6.7,2.08,10.2,2.62c8.05,1.23,13.6,5.27,14.98,13.82c0.2,1.26,0.6,2.49,0.86,3.74c0.67,3.17,2.79,4.68,5.6,3.15
		c7.81-4.26,14.34-1.86,20.88,2.89c5.17,3.76,11.12,4.19,16.92,1.74c6.01-2.55,12.07-2.77,18.33-1.8c1.58,0.25,3.2,0.52,4.78,0.36
		c9.74-0.98,15.92,4.39,21.06,11.66c1.75,2.48,3.14,5.2,5.07,7.57c2.89,3.57,6.56,5.09,11.05,4.03c8.09-1.91,15.99-4.55,24.01-6.71
		c4.39-1.18,6.24-4.71,7.09-8.87c2.88-14.1,5.99-28.16,8.83-42.27c2.4-11.91,4.93-23.79,7.5-35.67c1.64-7.58,6.55-11.86,13.51-14.14
		c5.93-1.94,11.93-3.62,17.94-5.3c11.03-3.07,21.31-7.77,30.73-14.31c3.16-2.19,6.42-4.28,10.13-5.38
		c6.73-2.01,12.97-1.24,18.29,3.75c1.63,1.53,3.17,3.15,4.6,4.89c12.93,15.62,35.18,19.35,52.74,8.76
		c7.7-4.65,15.55-8.84,24.47-10.74c6.94-1.48,13.59-1.08,20.19,1.68c10.21,4.27,20.63,7.59,31.88,8.17
		c11.37,0.59,22.42-0.66,32.98-4.61c11.16-4.17,22.41-7.53,34.35-8.3c2.25-0.15,4.35-0.99,6.43-1.86
		c19.58-8.13,39.66-14.62,60.52-18.59C1552.03,0.74,1552.78,0.53,1553.4,0z"/>
</g>
<g id="Ebene_2" class="st0">
	<path class="st1" d="M1553.4,0c4.16,0,8.32,0,12.48,0c3.48,1.79,7.36,1.3,10.96,1.24c2.95-0.05,5.9-0.16,8.82,0.18
		c2.59,0.05,4.24,1.5,5.74,3.48c4.07,5.36,7.64,11.05,11.34,16.65c23.02,53.49,32.29,58.08,18.45,88.61
		c-1.24,8.6-18.06,21.9-26.42,25.97c-6.77,3.3-10.89,8.68-12.51,16.05c-1.19,5.4-4.38,9.91-6.82,14.75
		c-4.13,8.23-3.47,11.74,3.92,17.27c16.1,12.05,24.92,28.39,28.66,47.77c1.07,5.53,0.81,11.13,0.01,16.71
		c-1.37,9.63,0.9,12.89,10.36,14.77c7.81,1.55,15.6,0.01,23.38-0.46c3.88-0.24,5.97-3.38,7.63-6.62
		c4.94-9.69,9.74-19.45,14.62-29.17c1.51-3,2.99-6.02,4.52-9.01c6.43-12.54,13.71-14.87,26.76-9.4
		c13.78,5.78,24.94,15.51,37.04,23.82c31.21,21.44,64.51,37.84,102.32,43.81c12.33,1.95,24.75,3.61,37.2,3.29
		c18.18-0.47,32.33,10.25,35.38,31.75c0.99,6.96,0.47,13.6-1.09,20.4c-5.15,22.46-9.41,45.14-11.1,68.12
		c-1.91,25.97-5.43,51.78-7.17,77.77c-1.24,18.49-3.39,36.92-6.79,55.18c-1.17,6.26-1.48,12.61-4.4,18.53
		c-5.59,11.33-14.94,17.39-26.96,19.16c-8.28,1.22-14.66,4.47-19.62,11.34c-8.4,11.63-20.1,17.85-38.46,11.4
		c-5.91-2.07-11.7-1.85-17.24,0.91c-5.86,2.92-11.62,6.08-17.11,9.68c-7.13,4.68-11.83,11.11-14.09,19.32
		c-1.02,3.71-2.4,7.3-3.98,10.79c-5.35,11.82-12.87,15.97-25.73,14.14c-7.6-1.08-15.14-2.38-22.57-4.41
		c-8.7-2.38-15.64,0.43-19.38,7.35c-3.69,6.82-1.16,12.07,6.43,13.29c2.85,0.46,5.75,0.53,8.62,0.36
		c9.46-0.58,18.25,2.19,24.77,8.49c9.02,8.72,20.12,10.58,31.45,12.52c9.04,1.55,18.1,1.1,27.24,0.41
		c9.7-0.73,19.47-0.64,29.21-1.11c11.36-0.55,22.6-1.6,33.79-3.69c9.71-1.81,19.48-3.36,29.48-3.24c8.35,0.1,15.45,2.9,21.23,8.54
		c4.7,4.57,9.48,6.69,15.96,4.49c3.03-1.03,6.38-0.66,9.53-0.26c5.71,0.73,8.75,4.1,9.94,10.09c0.24,1.2,0.02,2.58,0.88,3.65
		c0,8.64,0,17.28,0,25.92c-0.83,6.95-3.04,13.02-9.77,16.54c-3.62,1.89-7.45,2.95-11.45,3.24c-7.77,0.56-13.11,4.08-16.13,11.48
		c-5.23,12.79-14.76,22.75-22.85,33.63c-9.36,12.57-19.38,24.64-28.66,37.26c-7.38,10.04-16.8,17.93-25.73,26.36
		c-5.81,5.49-11.82,10.78-17.53,16.36c-13.26,12.97-27.03,25.4-40.5,38.15c-6.35,6.01-13.75,10.88-19.94,17.21
		c-5.79,5.92-9.06,11.82-6.2,20.55c2.08,6.35,0.38,12.61-4.87,17.52c-6.37,5.95-13.39,10.95-21.27,14.59
		c-7.43,3.43-639.41,93.46-649.39,93.23c-11.57-0.26-23,1.73-34.49,2.67c-3.31,0.27-6.69-0.56-9.92,0.65c-14.08,0-28.16,0-42.24,0
		c-5.79-0.92-11.65-1.03-17.46-1.71c-15.89-1.88-30.98-6.75-45.2-13.73c-15.92-7.81-31.61-16.19-44.96-28.22
		c-6.89-6.21-13.98-12.19-20.37-18.93c-4.86-5.12-10.38-9.48-15.76-14.01c-8.28-6.97-17.15-7.85-26.79-3.23
		c-11.11,5.33-21.99,11.12-32.56,17.42c-21.37,12.74-44.26,19.78-69.21,19.67c-6.87-0.03-13.73,0.19-20.61-0.33
		c-12.69-0.95-23.99-6.59-35.91-10.12c-27.17-8.07-54.91-13.51-82.63-19.25c-27.24-5.63-113.17-18.86-472.96-211.61
		c-14.61-8.57-29-17.54-43.9-25.61c-9.29-5.03-15.76-12.81-21.91-21.04c-5.12-6.85-9.07-14.02-7.77-23.03
		c0.1-0.7-0.25-22.47,30.49-24.93c6.73-0.99,13.52-1.6,20.39-0.09c4.87,1.07,8.98,2.85,11.89,6.98c0.25,0.58,6.72,13.51,10.56,19.68
		c3.42,5.49,7.23,10.8,11.03,16.07c6.84,13.55,27.36,5.38,31.73,4.32c6.79-1.82,77.38-22.89,87.53-27.2
		c7.9-3.35,12.44-9.32,13.48-18.23c0.63-5.45,8.58-70.95,5.99-83.74c-1.12-5.53-2.9-10.8-5.94-15.61c-3-4.75-4.01-10.36-7.04-15.19
		c-5.57-8.87-12.07-16.88-19.57-24.15c-15.09-14.62-28.03-31.07-40.52-47.91c-9.83-13.26-13.35-28.45-13.29-44.64
		c0.06-15.36-0.18-30.67-2.92-45.87c-3.04-16.83-9.49-32.11-19.35-46.06c-3.78-5.35-7.52-10.74-11.16-16.19
		c-2.99-4.48-4.92-9.38-3.7-14.95c1.68-7.69,7.28-11.38,16.77-12.13c17.84-1.42,35.7-2.74,53.14-7.28
		c22.87-5.96,38.6-19.83,47.24-41.78c1.82-4.62,3.96-9.07,6.17-13.51c2.25-4.52,5.99-5.54,10.29-5.35
		c8.48,0.37,16.11,3.24,23.42,7.66c20.66,12.5,41.01,25.49,61.57,38.13c11.92,7.33,24.79,12.57,38.96,13.98
		c10.09,1,19.97-0.16,29.05-4.44c220.37-109.2,138.28-104.72,208.22-159.98c7.61-6.03,16.36-9.25,26.06-9.76
		c16.94-0.89,29.69-9.83,41.07-21.36c1.12-1.14,1.89-2.61,2.39-4.13c8.15-24.65,26.85-38.18,49.93-46.75
		c9.02-3.35,17.54-6.8,25.3-13.04c8.82-7.09,20.22-9.4,31.45-10.63c11.75-1.28,23.55-2.04,35.39-2.1c7.8-0.04,15.56-1.78,23.41-0.15
		c3.63,0.75,7.23,1.62,10.56,3.12c7.78,3.49,15.77,3.56,23.98,2.34c6.23-0.93,12.43-0.76,18.44,1.52c7.89,3,12.25,9.45,11.67,17.76
		c-0.52,7.43-6.02,10.9-11.78,13.89c-4.11,2.13-8.51,3.7-12.47,6.14c-1.8,1.11-3.66,2.31-3.41,4.77c0.26,2.57,2.25,3.74,4.39,4.6
		c3.13,1.27,6.32,0.94,9.41-0.07c9.31-3.05,63.67-17.76,144.11-6.77c8.07,1.1,150.91,12.89,166.96-46.35
		c1.64-7.58,6.55-11.86,13.51-14.14c5.93-1.94,11.93-3.62,17.94-5.3c11.03-3.07,21.31-7.77,30.73-14.31
		c3.16-2.19,6.42-4.28,10.13-5.38c6.73-2.01,12.97-1.24,18.29,3.75c1.63,1.53,3.17,3.15,4.6,4.89
		c12.93,15.62,35.18,19.35,52.74,8.76c7.7-4.65,15.55-8.84,24.47-10.74c6.94-1.48,13.59-1.08,20.19,1.68
		c10.21,4.27,20.63,7.59,31.88,8.17c11.37,0.59,22.42-0.66,32.98-4.61c11.16-4.17,22.41-7.53,34.35-8.3
		c2.25-0.15,4.35-0.99,6.43-1.86c19.58-8.13,39.66-14.62,60.52-18.59C1552.03,0.74,1552.78,0.53,1553.4,0z"/>
</g>
<g id="Ebene_3">
	<path class="st2" d="M1918.72,700.99c-1.2-5.99-4.24-9.36-9.94-10.09c-3.16-0.4-6.5-0.77-9.53,0.26
		c-6.48,2.2-11.26,0.08-15.96-4.49c-5.79-5.63-12.89-8.44-21.23-8.54c-10-0.12-19.77,1.43-29.48,3.24
		c-11.2,2.09-22.43,3.14-33.79,3.69c-9.74,0.47-19.51,0.38-29.21,1.11c-9.14,0.69-18.2,1.14-27.24-0.41
		c-11.33-1.94-22.43-3.79-31.45-12.52c-6.52-6.3-15.31-9.07-24.77-8.49c-2.87,0.18-5.76,0.1-8.62-0.36
		c-5.14-0.83-7.95-3.51-8.08-7.27c0.13-1.53,0.66-3.22,1.63-5.02c3.74-6.92,10.68-9.73,19.38-7.35c7.43,2.03,14.98,3.33,22.57,4.41
		c12.86,1.84,20.38-2.32,25.73-14.14c1.58-3.5,2.96-7.08,3.98-10.79c2.26-8.21,6.96-14.64,14.09-19.32
		c5.49-3.6,11.25-6.76,17.11-9.68c5.54-2.76,11.33-2.99,17.24-0.91c18.35,6.45,30.05,0.23,38.46-11.4
		c4.96-6.87,11.34-10.12,19.62-11.34c12.02-1.77,21.37-7.83,26.96-19.16c2.92-5.92,3.23-12.27,4.4-18.53
		c3.41-18.26,5.55-36.69,6.79-55.18c1.74-25.99,5.26-51.8,7.17-77.77c1.69-22.98,5.95-45.65,11.1-68.12
		c1.56-6.8,2.08-13.44,1.09-20.4c-3.05-21.5-17.21-32.22-35.38-31.75c-12.45,0.32-24.87-1.35-37.2-3.29
		c-37.82-5.97-71.12-22.37-102.32-43.81c-12.09-8.31-23.25-18.03-37.04-23.82c-13.05-5.48-20.32-3.14-26.76,9.4
		c-1.53,2.99-3.01,6-4.52,9.01c-4.88,9.72-9.68,19.48-14.62,29.17c-1.65,3.24-3.74,6.39-7.63,6.62c-7.78,0.47-15.57,2.01-23.38,0.46
		c-9.46-1.88-11.73-5.13-10.36-14.77c0.8-5.57,1.05-11.17-0.01-16.71c-3.74-19.39-12.57-35.72-28.66-47.77
		c-7.39-5.53-8.05-9.04-3.92-17.27c2.43-4.85,5.63-9.35,6.82-14.75c1.62-7.37,5.74-12.75,12.51-16.05
		c8.37-4.07,25.18-17.37,26.42-25.97c13.84-30.53,4.57-35.12-18.45-88.61c-3.7-5.6-7.27-11.29-11.34-16.65
		c-1.5-1.98-3.16-3.43-5.74-3.48c-2.92-0.34-5.87-0.22-8.82-0.18c-3.6,0.06-7.48,0.56-10.96-1.24c-4.16,0-8.32,0-12.48,0
		c-0.63,0.53-1.37,0.74-2.16,0.89c-20.86,3.97-40.94,10.46-60.52,18.59c-2.08,0.86-4.17,1.71-6.43,1.86
		c-11.94,0.77-23.19,4.13-34.35,8.3c-10.57,3.95-21.62,5.2-32.98,4.61c-11.26-0.58-21.67-3.9-31.88-8.17
		c-6.6-2.76-13.25-3.16-20.19-1.68c-8.92,1.9-16.76,6.09-24.47,10.74c-17.56,10.6-39.81,6.86-52.74-8.76
		c-1.43-1.73-2.97-3.35-4.6-4.89c-5.32-4.99-11.56-5.76-18.29-3.75c-3.71,1.11-6.97,3.19-10.13,5.38
		c-9.42,6.54-19.71,11.24-30.73,14.31c-6.01,1.67-12.02,3.36-17.94,5.3c-6.97,2.28-11.87,6.56-13.51,14.14
		c-16.05,59.24-158.89,47.45-166.96,46.35c-80.44-10.99-134.8,3.72-144.11,6.77c-3.09,1.01-6.28,1.34-9.41,0.07
		c-2.14-0.86-4.13-2.04-4.39-4.6c-0.25-2.46,1.61-3.66,3.41-4.77c3.96-2.44,8.36-4.01,12.47-6.14c5.76-2.99,11.27-6.46,11.78-13.89
		c0.58-8.32-3.78-14.76-11.67-17.76c-6.01-2.28-12.21-2.45-18.44-1.52c-8.22,1.22-16.2,1.16-23.98-2.34
		c-3.33-1.5-6.93-2.36-10.56-3.12c-7.85-1.62-15.61,0.11-23.41,0.15c-11.84,0.06-23.64,0.82-35.39,2.1
		c-11.23,1.23-22.63,3.54-31.45,10.63c-7.76,6.24-16.28,9.69-25.3,13.04c-23.08,8.57-41.78,22.09-49.93,46.75
		c-0.5,1.53-1.27,2.99-2.39,4.13c-11.38,11.54-24.13,20.48-41.07,21.36c-9.7,0.51-18.45,3.72-26.06,9.76
		c-69.94,55.26,12.15,50.78-208.22,159.98c-9.08,4.29-18.96,5.45-29.05,4.44c-14.17-1.41-27.04-6.65-38.96-13.98
		c-20.56-12.65-40.91-25.64-61.57-38.13c-7.3-4.42-14.93-7.29-23.42-7.66c-4.3-0.19-8.04,0.82-10.29,5.35
		c-2.21,4.44-4.35,8.89-6.17,13.51c-8.65,21.95-24.37,35.82-47.24,41.78c-17.44,4.55-35.3,5.87-53.14,7.28
		c-9.5,0.75-15.09,4.45-16.77,12.13c-1.21,5.57,0.71,10.47,3.7,14.95c3.64,5.45,7.38,10.84,11.16,16.19
		c9.85,13.95,16.31,29.23,19.35,46.06c2.74,15.2,2.97,30.51,2.92,45.87c-0.06,16.19,3.45,31.38,13.29,44.64
		c12.48,16.83,25.43,33.28,40.52,47.91c7.5,7.27,14,15.28,19.57,24.15c3.03,4.83,4.05,10.44,7.04,15.19
		c3.04,4.81,4.82,10.07,5.94,15.61c0.48,2.38,0.6,6.58,0.47,11.87c-0.7,23.44-5.92,66.5-6.43,70.87
		c-1.03,8.92-5.58,14.88-13.48,18.23c-10.15,4.31-80.74,25.38-87.53,27.2c-4.38,1.07-24.89,9.23-31.73-4.32
		c-3.8-5.28-7.61-10.58-11.03-16.07c-3.84-6.17-10.32-19.1-10.56-19.68c-2.91-4.12-7.02-5.91-11.89-6.98
		c-6.88-1.51-13.66-0.9-20.39,0.09C0.4,703.79,0.75,725.55,0.65,726.26c-1.29,9.02,2.65,16.18,7.77,23.03
		c6.15,8.23,12.62,16.01,21.91,21.04c14.9,8.07,29.28,17.04,43.9,25.61c359.79,192.75,445.72,205.98,472.96,211.61
		c27.72,5.73,55.46,11.18,82.63,19.25c11.91,3.54,23.22,9.18,35.91,10.12c6.88,0.51,13.74,0.3,20.61,0.33
		c24.95,0.11,47.84-6.94,69.21-19.67c10.57-6.3,21.45-12.09,32.56-17.42c9.64-4.62,18.5-3.75,26.79,3.23
		c5.38,4.53,10.91,8.89,15.76,14.01c6.39,6.74,13.48,12.73,20.37,18.93c13.35,12.03,29.04,20.42,44.96,28.22
		c14.23,6.98,29.31,11.85,45.2,13.73c5.81,0.69,11.68,0.79,17.46,1.71c14.08,0,28.16,0,42.24,0c3.23-1.22,6.61-0.38,9.92-0.65
		c11.49-0.94,22.92-2.93,34.49-2.67c9.98,0.22,19.35-2.11,28.31-6.26c18.28-8.47,36.28-17.64,56.43-21.17
		c3.48-0.61,6.56-2.45,9.31-4.77c4.2-3.54,9.05-5.12,14.57-5.29c17.9-0.57,26.77-6.81,32.42-23.73c2.92-8.75,9.02-12.44,17.38-13.44
		c6.24-0.74,12.45-0.25,18.51,1.69c6.58,2.1,13.38,3.02,20.2,4c16.45,2.37,33.15,3.68,49.01,8.95c10.99,3.65,21.51,3.75,32.27-0.48
		c6.72-2.64,13.75-3.9,21.09-3.95c8.49-0.06,16.41,2.47,24.53,4.15c6.95,1.43,13.44,0.92,19.94-2.54
		c12.56-6.68,25.2-13.23,37.64-20.16c36.33-20.23,72.9-40.01,109.36-60.01c5.95-3.26,11.28-7.39,15-13.14
		c4.39-6.79,5.01-7.1,10.76-1.12c6.57,6.84,14.63,11.15,23.61,13.04c15.79,3.32,29.89,10.08,43.39,18.63
		c6.1,3.87,10.38,8.46,12.16,15.77c1.97,8.08,7.96,13.08,15.76,15.37c4.72,1.38,9.63,2.74,14.55,2.96
		c7.76,0.35,15.77,1.71,23.21-1.72c7.89-3.64,14.91-8.63,21.27-14.59c5.25-4.91,6.95-11.17,4.87-17.52
		c-2.87-8.74,0.41-14.64,6.2-20.55c6.19-6.33,13.59-11.19,19.94-17.21c13.47-12.75,27.24-25.18,40.5-38.15
		c5.7-5.58,11.72-10.88,17.53-16.36c8.93-8.43,18.35-16.32,25.73-26.36c9.27-12.62,19.3-24.7,28.66-37.26
		c8.1-10.87,17.63-20.84,22.85-33.63c3.02-7.4,8.36-10.92,16.13-11.48c4-0.29,7.83-1.35,11.45-3.24c6.73-3.51,8.95-9.59,9.78-16.54
		c0-8.64,0-17.28,0-25.92C1918.74,703.57,1918.96,702.19,1918.72,700.99z"/>
</g>
</svg>
