<?xml version="1.0" encoding="utf-8"?>
<!-- Generator: Adobe Illustrator 25.2.1, SVG Export Plug-In . SVG Version: 6.00 Build 0)  -->
<svg version="1.1" xmlns="http://www.w3.org/2000/svg" xmlns:xlink="http://www.w3.org/1999/xlink" x="0px" y="0px"
	 viewBox="0 0 1920 1080" style="enable-background:new 0 0 1920 1080;" xml:space="preserve">
<style type="text/css">
	.st0{display:none;}
	.st1{display:inline;fill:#CC3636;}
	.st2{stroke:#FFFFFF;stroke-miterlimit:10;}
</style>
<g id="Ebene_1" class="st0">
	<path class="st1" d="M1134.59,0c3.34,0,6.67,0,10.01,0c7.17,1,13.32,4.09,19.41,8.06c35.89,23.36,71.76,46.75,107.68,70.05
		c21.81,14.14,43.65,28.24,65.35,42.54c6.9,4.55,14.74,7.01,22.31,9.99c42.18,16.59,84.25,33.46,126.42,50.09
		c32.7,12.89,65.36,25.92,97.98,39c28.91,11.6,57.86,23.07,86.73,34.78c10.95,4.44,21.78,9.29,33.15,12.62
		c11.32,3.32,18.42,11.82,25.08,20.47c8.94,11.6,16.83,24,25.04,36.13c1.91,2.82,3.63,6.71,7.88,5.78c4.3-0.94,4.07-5.23,4.61-8.58
		c2.77-17.42,5.57-34.85,8.26-52.28c1.2-7.79,5.16-14.36,8.97-20.99c1.61-2.81,4.5-4.44,7.47-5.64c10.94-4.41,21.89-4.64,31.07,3.36
		c16.95,14.76,34.01,29.41,50.43,44.78c4.32,4.05,6.72,8.48,6.07,14.51c-0.75,7.05,1.96,12.82,6.43,18.26
		c10.15,12.35,19.75,25.15,29.8,37.59c2.83,3.51,4.61,7.26,4.25,11.94c-0.16,2.12-0.16,4.37,1,6.35c0,1,0,2,0,3
		c-3.91,7.6-0.58,15.63-1.29,23.45c-0.85,9.39-3.96,17.79-8.59,25.81c-1.11,1.93-2.82,3.25-4.67,4.42
		c-12.55,7.91-25.18,15.69-37.72,23.61c-3.47,2.19-7.12,3.43-11.32,3.22c-6.31-0.32-12.63,0.23-18.95-0.82
		c-5.38-0.89-7.57,1.23-6.9,6.78c1.85,15.37,4.04,30.71,6.73,45.96c0.91,5.19,3.32,6.83,8.58,5.92c8.8-1.53,17.63-0.66,26.45-0.87
		c5.46-0.13,9.87,1.99,12.18,7.09c2.29,5.06,0.84,9.79-2.35,14.04c-1.72,2.28-3.97,4.01-6.35,5.58c-4.64,3.07-6.94,7.44-7.21,13
		c-0.76,15.45-1.33,30.92-2.24,46.35c-1.1,18.6-1.23,37.24-2.87,55.81c-0.59,6.66-3.42,9.73-9.81,11.35
		c-18.42,4.69-36.47,10.68-54.67,16.14c-65.3,19.61-130.57,39.28-195.83,59.01c-60.16,18.19-120.3,36.4-180.47,54.54
		c-42.45,12.8-84.89,25.64-127.36,38.37c-16.45,4.93-32.91,9.8-49.32,14.86c-5.89,1.82-10.36,4.96-13.26,10.53
		c-3.06,5.87-8.3,9.96-12.92,14.49c-5.1,5.02-8.78,10.74-11.07,17.55c-4.82,14.31-12.99,26.98-20.23,40.09
		c-1.66,3.01-4.51,4.8-7.74,6.01c-19.06,7.08-38.11,14.23-57.2,21.23c-12.76,4.68-19.38-0.06-19.46-13.56
		c-0.04-6.49,0.01-12.95,0.69-19.45c0.93-8.96,0.02-17.94-0.65-26.92c-0.9-11.99,0.77-23.94,1.07-35.92
		c0.31-12.49-4.94-20.58-16.41-25.14c-6.5-2.59-12.78-5.7-19.33-8.21c-6.8-2.61-10.04-8.09-9.17-15.35
		c0.32-2.65,0.76-5.28,0.57-7.96c-0.27-3.78-1.59-6.92-5.67-7.86c-4.05-0.94-7.39,0.55-9.34,4.13c-3.02,5.56-6.14,11.07-8.99,16.72
		c-6.74,13.39-13.53,26.77-20.11,40.24c-3.22,6.59-7.57,10.67-15.46,10.17c-5.14-0.33-9.36,1.88-12.32,6.3
		c-2.64,3.96-6.29,6.84-10.37,9.22c-7.61,4.43-11.87,10.36-9.83,19.78c0.95,4.36-1.41,8.05-4.61,11.05
		c-12.53,11.72-25.69,22.76-37.68,35.05c-5.08,5.21-11.29,7.1-18.45,7.5c-13.43,0.76-25.98-1.97-38.55-6.66
		c-17.32-6.47-34.88-12.35-52.45-18.15c-4.94-1.63-8.4-4.39-10.69-9c-2.07-4.17-3.83-8.54-6.61-12.32
		c-4.63-6.28-12.75-6.15-15.77,0.9c-7.6,17.71-20.4,31.93-30.92,47.67c-14.8,22.16-30.97,43.39-45.43,65.79
		c-4.46,6.91-10.96,10.38-18.84,10.49c-8.49,0.12-13.67,4.32-17.3,11.35c-2.98,5.77-5.94,11.54-9.48,17.02
		c-2.32,3.58-5.56,4.31-9.5,4.89c-8.44,1.23-13.69-3.16-18.55-8.98c-4.36-5.22-4.8-11.22-3.72-17.46
		c1.73-10.02-1.21-17.91-8.53-25.22c-6.61-6.61-13.88-12.86-17.66-22.07c-2.51-6.11-8.73-6.7-14.61-6.24
		c-6.65,0.52-13.19,1.93-19.76,3.07c-62.4,10.87-124.79,21.78-187.18,32.71c-63.21,11.08-126.43,22.11-189.65,33.1
		c-21.13,3.67-42.25,7.35-63.28,11.57c-5.5,1.1-10.95,0.04-16.4-0.6c-0.22-0.03-1.19,0-1.67-0.67
		c-5.07-7.01-13.92-11.81-12.98-22.32c0.09-0.99,0.05-2-0.01-3c-0.06-0.98,0.17-2.24-0.82-2.72c-1.39-0.66-2.04,0.73-2.75,1.55
		c-1.73,2.03-3.14,4.31-4.53,6.58c-1.8,2.96-4.49,4.57-7.87,4.48c-11.01-0.28-21.94,1.67-32.96,1.09c-1.66-0.09-3.32-0.03-4.96-0.47
		c-7.77-2.07-10.63-9.76-5.4-15.89c2.94-3.44,3.43-6.46,2.68-10.85c-1.14-6.7-0.72-13.64-0.23-20.44
		c0.85-11.78,1.03-23.6,1.95-35.36c0.91-11.64,0.34-23.3,1.33-34.91c0.37-4.32-0.78-7.88-4.09-10.71
		c-5.32-4.56-6.96-10.23-5.59-17.06c0.79-3.91,1.69-7.82,2.06-11.81c0.5-5.44-1-7.99-6.22-9.14c-6.85-1.51-12.19-5.12-16.71-10.28
		c-2.85-3.26-5.62-6.59-8.61-9.73c-3.91-4.11-4.42-8.95-2.02-13.86c2.31-4.73,3.78-9.51,3.83-14.83c0.04-3.88,2.32-6.99,5.07-9.45
		c3.48-3.11,6.86-6.32,10.22-9.56c5.23-5.06,11.38-6.63,18.42-4.95c1.78,0.42,3.57,0.82,5.37,1.21c4.49,0.97,8.23-0.12,11.13-3.81
		c2.92-3.73,6.64-6.1,11.05-8.14c8.67-4,14.69-11.28,20-19.05c1.22-1.78,1.85-4,3.47-5.46c5.68-5.13,8.8-11.55,10.33-18.96
		c0.86-4.16,4.04-6.82,7.11-9.4c5.28-4.44,11.2-7.82,17.67-10.21c11.15-4.12,16.53-12.21,17.1-23.94
		c1.05-21.93,2.47-43.83,3.76-65.75c0.85-14.44,1.44-28.91,2.4-43.34c1.3-19.58,2.23-39.18,3.5-58.76
		c1.12-17.26,2.25-34.53,2.9-51.82c0.17-4.53-1.62-8.42-4.26-12.01c-4.93-6.72-10.02-13.31-15.14-19.88
		c-2.15-2.77-4.05-5.68-5.68-8.8c-2.08-3.96-3.29-7.92-1.22-12.59c-2.63,2.42-4.46,5.03-7.55,6.3c-9.44,3.88-15.55,2.36-21.81-5.95
		c-25.57-33.93-50.96-68-76.6-101.88c-7.43-9.82-14.58-19.83-21.82-29.77c-1.96-2.68-2-5.89-3.01-8.83c0-1.67,0-3.33,0-5
		c3.28-10.22,5.36-20.78,8.92-30.94c2.15-6.14,5.88-9.68,12.1-11.25c27.81-7.02,55.27-15.3,82.91-22.93
		c3.95-1.09,7.89-2.87,12.21-1.67c6.37,1.77,11.03,5.45,13.15,11.85c3.4,10.23,8.93,19.69,10.88,31.13
		c3.42-3.66,4.75-6.7,3.97-11.49c-1.02-6.29-2.24-12.31-4.84-18.19c-1.76-3.97-1.07-8.3,2.08-11.66c3.53-3.77,6.82-7.76,10.32-11.56
		c3.71-4.02,8.09-6.77,13.27-8.57c7.75-2.69,9.19-5.46,7.82-13.66c-0.47-2.79-0.94-5.59-1.48-8.36c-1.22-6.26,0.32-11.59,5.05-15.84
		c3.98-3.57,5.02-7.8,4.51-13.03c-0.94-9.6-0.53-19.28-0.95-28.93c-0.79-18.28-2.55-36.53-2.31-54.85c0.02-1.33-0.26-2.74,0.12-3.98
		c1.47-4.87,0.37-8.66-2.87-12.82c-5.1-6.55-0.86-14.64,7.76-15.43c5.97-0.55,12.03-0.58,17.99,0.05
		c5.16,0.55,10.31,0.91,15.47,0.72c5.18-0.19,8.89,1.62,11.58,6.2c1.41,2.4,2.61,6.67,5.84,5.81c2.33-0.62,1-4.78,1.14-7.35
		c0.22-3.83,1.4-7.14,4.2-9.84c1.68-1.62,3.23-3.36,4.61-5.26c5.33-7.35,13.33-10.9,21.72-7.96c23.34,8.17,47.89,10.24,71.93,14.7
		c36.22,6.72,72.57,12.76,108.85,19.17c6.91,1.22,13.06,0.55,18.11-4.42c10.21-10.04,22.88-12.29,36.56-13.23
		c24.92-1.71,49.79-4.23,74.67-6.49c20.24-1.83,40.49-3.54,60.73-5.33c25.05-2.22,50.12-4.34,75.16-6.67
		c20.23-1.88,40.5-3.42,60.73-5.29c21.07-1.95,42.14-3.81,63.22-5.63c17.09-1.48,34.18-3.07,51.28-4.4
		c16.94-1.32,33.84-3.07,50.77-4.49c17.1-1.43,34.18-2.98,51.27-4.47c16.1-1.4,32.18-2.94,48.29-4.21
		c21.16-1.67,42.29-3.79,63.54-4.46C1111.7,1.46,1123.19,1.41,1134.59,0z"/>
</g>
<g id="Ebene_1_Kopie">
	<path class="st2" d="M1122.39,1.12c22.75-1.04,27.17-2.7,41.62,6.94c35.89,23.36,151.33,98.28,173.03,112.59
		c6.9,4.55,14.74,7.01,22.31,9.99c42.18,16.59,332.92,133.16,344.28,136.49c11.32,3.32,18.42,11.82,25.08,20.47
		c8.94,11.6,16.83,24,25.04,36.13c1.91,2.82,3.63,6.71,7.88,5.78c4.3-0.94,4.07-5.23,4.61-8.58c2.77-17.42,5.57-34.85,8.26-52.28
		c1.2-7.79,7.32-21.09,16.44-26.63c10.94-4.41,21.89-4.64,31.07,3.36c16.95,14.76,34.01,29.41,50.43,44.78
		c4.32,4.05,6.72,8.48,6.07,14.51c-0.75,7.05,1.96,12.82,6.43,18.26c10.15,12.35,19.75,25.15,29.8,37.59
		c2.83,3.51,4.61,7.26,4.25,11.94c-0.16,2.12,0.42,24.98-0.29,32.8c-0.85,9.39-6.54,26.62-13.26,30.22
		c-12.55,7.91-25.18,15.69-37.72,23.61c-3.47,2.19-7.12,3.43-11.32,3.22c-6.31-0.32-12.63,0.23-18.95-0.82
		c-5.38-0.89-7.57,1.23-6.9,6.78c1.85,15.37,4.04,30.71,6.73,45.96c0.91,5.19,3.32,6.83,8.58,5.92c8.8-1.53,17.63-0.66,26.45-0.87
		c5.46-0.13,9.87,1.99,12.18,7.09c2.29,5.06,0.84,9.79-2.35,14.04c-3.94,5.68-13.16,6.26-13.57,18.59
		c-0.76,15.45-3.47,83.59-5.11,102.16c-0.59,6.66-3.42,9.73-9.81,11.35c-18.42,4.69-591.25,177.86-607.66,182.92
		c-5.89,1.82-10.36,4.96-13.26,10.53c-3.06,5.87-8.3,9.96-12.92,14.49c-5.1,5.02-8.78,10.74-11.07,17.55
		c-4.82,14.31-12.99,26.98-20.23,40.09c-1.66,3.01-4.51,4.8-7.74,6.01c-19.06,7.08-38.11,14.23-57.2,21.23
		c-12.76,4.68-19.38-0.06-19.46-13.56c-0.04-6.49,0.81-70.3,1.1-82.28c0.31-12.49-4.94-20.58-16.41-25.14
		c-6.5-2.59-12.78-5.7-19.33-8.21c-6.8-2.61-10.04-8.09-9.17-15.35c0.32-2.65,2.98-14.11-5.09-15.82c-4.05-0.94-7.39,0.55-9.34,4.13
		c-3.02,5.56-22.52,43.49-29.1,56.96c-3.22,6.59-7.57,10.67-15.46,10.17c-5.14-0.33-9.36,1.88-12.32,6.3
		c-2.64,3.96-6.29,6.84-10.37,9.22c-7.61,4.43-11.87,10.36-9.83,19.78c0.95,4.36-1.41,8.05-4.61,11.05
		c-12.53,11.72-25.69,22.76-37.68,35.05c-5.08,5.21-13.38,7.78-26.86,7.66c-13.45-0.13-65.01-19.17-82.58-24.97
		c-9.95-3.04-10.21-11.47-17.3-21.31c-4.63-6.28-12.75-6.15-15.77,0.9c-7.6,17.71-20.4,31.93-30.92,47.67
		c-14.8,22.16-30.97,43.39-45.43,65.79c-4.46,6.91-10.96,10.38-18.84,10.49c-8.49,0.12-13.67,4.32-17.3,11.35
		c-10.73,22.86-15.04,21.33-18.98,21.9c-8.44,1.23-13.69-3.16-18.55-8.98c-4.36-5.22-4.8-11.22-3.72-17.46
		c1.73-10.02-1.21-17.91-8.53-25.22c-6.61-6.61-13.88-12.86-17.66-22.07c-2.51-6.11-8.73-6.7-14.61-6.24
		c-6.65,0.52-438.84,76.24-459.86,80.46c-3.48,0.48-15.38,0.24-17.84-1.95c-3.24-3.28-14.15-11.12-13.21-21.64
		c0.09-0.99,0.16-5.24-0.83-5.72c-1.39-0.66-2.19,0.07-7.27,8.14c-1.8,2.96-4.49,4.57-7.87,4.48c-11.01-0.28-23.18,1.91-37.92,0.62
		c-7.77-2.07-10.63-9.76-5.4-15.89c2.94-3.44,3.43-6.46,2.68-10.85c-1.14-6.7-0.72-13.64-0.23-20.44
		c0.85-11.78,2.29-58.66,3.28-70.27c0.37-4.32-0.78-7.88-4.09-10.71c-5.32-4.56-6.96-10.23-5.59-17.06
		c0.79-3.91,1.69-7.82,2.06-11.81c0.5-5.44-1-7.99-6.22-9.14c-12.9-3.53-15.04-9.43-25.32-20.01c-3.91-4.11-4.42-8.95-2.02-13.86
		c2.31-4.73,3.78-9.51,3.83-14.83c0.04-3.88,2.49-6.82,5.07-9.45c13.2-13.44,18.23-16.6,28.63-14.51c10.27,3.08,13.6,1.09,16.49-2.6
		c2.92-3.73,6.62-6.14,11.05-8.14c13.61-6.14,21.85-23.05,23.47-24.52c5.68-5.13,8.8-11.55,10.33-18.96
		c0.86-4.16,4.04-6.82,7.11-9.4c5.28-4.44,11.2-7.82,17.67-10.21c11.15-4.12,16.53-12.21,17.1-23.94
		c1.05-21.93,11.91-202.38,12.56-219.67c0.17-4.53-1.62-8.42-4.26-12.01c-4.93-6.72-19.18-25.56-20.82-28.68
		c-2.08-3.96-3.29-7.92-1.22-12.59c-2.63,2.42-4.46,5.03-7.55,6.3c-9.44,3.88-15.55,2.36-21.81-5.95
		C75.86,418.4,10.26,330.63,3.01,320.68c-1.96-2.68-3.46-10.4-2.64-15.03c3.28-10.22,4.98-19.58,8.54-29.74
		c2.15-6.14,5.88-9.68,12.1-11.25c27.81-7.02,55.27-15.3,82.91-22.93c3.95-1.09,7.89-2.87,12.21-1.67
		c6.37,1.77,11.03,5.45,13.15,11.85c3.4,10.23,8.93,19.69,10.88,31.13c8.09-6.42,2.73-18.19-0.87-29.68
		c-1.3-4.14-1.21-8.43,2.08-11.66c8.61-8.46,11.19-15.92,23.59-20.13c7.75-2.69,9.19-5.46,7.82-13.66
		c-1.88-12.15-3.7-16.46,3.57-24.2c3.98-3.57,5.02-7.8,4.51-13.03c-0.94-9.6-3.52-86.52-3.15-87.77c1.47-4.87,0.37-8.66-2.87-12.82
		c-5.1-6.55-0.86-14.64,7.76-15.43c5.97-0.55,28.29,0.97,33.45,0.77c5.18-0.19,8.89,1.62,11.58,6.2c1.41,2.4,2.61,6.67,5.84,5.81
		c2.33-0.62,0.94-4.78,1.14-7.35c0.68-8.81,5.85-10.1,8.81-15.1c5.33-7.35,13.33-10.9,21.72-7.96
		c25.33,9.08,22.06,4.94,180.78,33.87c6.91,1.22,13.06,0.55,18.11-4.42c10.21-10.04,22.9-12.04,36.56-13.23
		C1072.76,3.33,1083.34,2.61,1122.39,1.12z"/>
</g>
</svg>
