<?xml version="1.0" encoding="utf-8"?>
<!-- Generator: Adobe Illustrator 25.2.1, SVG Export Plug-In . SVG Version: 6.00 Build 0)  -->
<svg version="1.1" xmlns="http://www.w3.org/2000/svg" xmlns:xlink="http://www.w3.org/1999/xlink" x="0px" y="0px"
	 viewBox="0 0 1920 1080" style="enable-background:new 0 0 1920 1080;" xml:space="preserve">
<style type="text/css">
	.st0{display:none;stroke: blue;
    stroke-miterlimit:10;
    stroke-width: 0.17rem;}

	.st7{fill:#2F2F2F;fill:none;stroke: blue;
    stroke-miterlimit:10;
    stroke-width: 0.17rem;}
</style>
<g id="Ebene_1" class="st0">
	<g id="Ebene_1_1_">
		<path class="st1" d="M1134.6,0c3.3,0,6.7,0,10,0c7.2,1,13.3,4.1,19.4,8.1c35.9,23.4,71.8,46.8,107.7,70.1
			c21.8,14.1,43.7,28.2,65.3,42.5c6.9,4.6,14.7,7,22.3,10c42.2,16.6,84.2,33.5,126.4,50.1c32.7,12.9,65.4,25.9,98,39
			c28.9,11.6,57.9,23.1,86.7,34.8c10.9,4.4,21.8,9.3,33.2,12.6c11.3,3.3,18.4,11.8,25.1,20.5c8.9,11.6,16.8,24,25,36.1
			c1.9,2.8,3.6,6.7,7.9,5.8c4.3-0.9,4.1-5.2,4.6-8.6c2.8-17.4,5.6-34.9,8.3-52.3c1.2-7.8,5.2-14.4,9-21c1.6-2.8,4.5-4.4,7.5-5.6
			c10.9-4.4,21.9-4.6,31.1,3.4c16.9,14.8,34,29.4,50.4,44.8c4.3,4,6.7,8.5,6.1,14.5c-0.8,7,2,12.8,6.4,18.3
			c10.2,12.4,19.8,25.1,29.8,37.6c2.8,3.5,4.6,7.3,4.2,11.9c-0.2,2.1-0.2,4.4,1,6.4c0,1,0,2,0,3c-3.9,7.6-0.6,15.6-1.3,23.5
			c-0.8,9.4-4,17.8-8.6,25.8c-1.1,1.9-2.8,3.2-4.7,4.4c-12.6,7.9-25.2,15.7-37.7,23.6c-3.5,2.2-7.1,3.4-11.3,3.2
			c-6.3-0.3-12.6,0.2-18.9-0.8c-5.4-0.9-7.6,1.2-6.9,6.8c1.8,15.4,4,30.7,6.7,46c0.9,5.2,3.3,6.8,8.6,5.9c8.8-1.5,17.6-0.7,26.4-0.9
			c5.5-0.1,9.9,2,12.2,7.1c2.3,5.1,0.8,9.8-2.3,14c-1.7,2.3-4,4-6.3,5.6c-4.6,3.1-6.9,7.4-7.2,13c-0.8,15.5-1.3,30.9-2.2,46.3
			c-1.1,18.6-1.2,37.2-2.9,55.8c-0.6,6.7-3.4,9.7-9.8,11.3c-18.4,4.7-36.5,10.7-54.7,16.1c-65.3,19.6-130.6,39.3-195.8,59
			c-60.2,18.2-120.3,36.4-180.5,54.5c-42.4,12.8-84.9,25.6-127.4,38.4c-16.4,4.9-32.9,9.8-49.3,14.9c-5.9,1.8-10.4,5-13.3,10.5
			c-3.1,5.9-8.3,10-12.9,14.5c-5.1,5-8.8,10.7-11.1,17.5c-4.8,14.3-13,27-20.2,40.1c-1.7,3-4.5,4.8-7.7,6
			c-19.1,7.1-38.1,14.2-57.2,21.2c-12.8,4.7-19.4-0.1-19.5-13.6c0-6.5,0-13,0.7-19.5c0.9-9,0-17.9-0.7-26.9
			c-0.9-12,0.8-23.9,1.1-35.9c0.3-12.5-4.9-20.6-16.4-25.1c-6.5-2.6-12.8-5.7-19.3-8.2c-6.8-2.6-10-8.1-9.2-15.3
			c0.3-2.7,0.8-5.3,0.6-8c-0.3-3.8-1.6-6.9-5.7-7.9c-4.1-0.9-7.4,0.5-9.3,4.1c-3,5.6-6.1,11.1-9,16.7c-6.7,13.4-13.5,26.8-20.1,40.2
			c-3.2,6.6-7.6,10.7-15.5,10.2c-5.1-0.3-9.4,1.9-12.3,6.3c-2.6,4-6.3,6.8-10.4,9.2c-7.6,4.4-11.9,10.4-9.8,19.8c1,4.4-1.4,8-4.6,11
			c-12.5,11.7-25.7,22.8-37.7,35c-5.1,5.2-11.3,7.1-18.5,7.5c-13.4,0.8-26-2-38.5-6.7c-17.3-6.5-34.9-12.3-52.5-18.2
			c-4.9-1.6-8.4-4.4-10.7-9c-2.1-4.2-3.8-8.5-6.6-12.3c-4.6-6.3-12.8-6.2-15.8,0.9c-7.6,17.7-20.4,31.9-30.9,47.7
			c-14.8,22.2-31,43.4-45.4,65.8c-4.5,6.9-11,10.4-18.8,10.5c-8.5,0.1-13.7,4.3-17.3,11.3c-3,5.8-5.9,11.5-9.5,17
			c-2.3,3.6-5.6,4.3-9.5,4.9c-8.4,1.2-13.7-3.2-18.5-9c-4.4-5.2-4.8-11.2-3.7-17.5c1.7-10-1.2-17.9-8.5-25.2
			c-6.6-6.6-13.9-12.9-17.7-22.1c-2.5-6.1-8.7-6.7-14.6-6.2c-6.7,0.5-13.2,1.9-19.8,3.1c-62.4,10.9-124.8,21.8-187.2,32.7
			c-63.2,11.1-126.4,22.1-189.6,33.1c-21.1,3.7-42.2,7.3-63.3,11.6c-5.5,1.1-10.9,0-16.4-0.6c-0.2,0-1.2,0-1.7-0.7
			c-5.1-7-13.9-11.8-13-22.3c0.1-1,0.1-2,0-3c-0.1-1,0.2-2.2-0.8-2.7c-1.4-0.7-2,0.7-2.8,1.6c-1.7,2-3.1,4.3-4.5,6.6
			c-1.8,3-4.5,4.6-7.9,4.5c-11-0.3-21.9,1.7-33,1.1c-1.7-0.1-3.3,0-5-0.5c-7.8-2.1-10.6-9.8-5.4-15.9c2.9-3.4,3.4-6.5,2.7-10.8
			c-1.1-6.7-0.7-13.6-0.2-20.4c0.8-11.8,1-23.6,2-35.4c0.9-11.6,0.3-23.3,1.3-34.9c0.4-4.3-0.8-7.9-4.1-10.7
			c-5.3-4.6-7-10.2-5.6-17.1c0.8-3.9,1.7-7.8,2.1-11.8c0.5-5.4-1-8-6.2-9.1c-6.9-1.5-12.2-5.1-16.7-10.3c-2.9-3.3-5.6-6.6-8.6-9.7
			c-3.9-4.1-4.4-9-2-13.9c2.3-4.7,3.8-9.5,3.8-14.8c0-3.9,2.3-7,5.1-9.5c3.5-3.1,6.9-6.3,10.2-9.6c5.2-5.1,11.4-6.6,18.4-5
			c1.8,0.4,3.6,0.8,5.4,1.2c4.5,1,8.2-0.1,11.1-3.8c2.9-3.7,6.6-6.1,11.1-8.1c8.7-4,14.7-11.3,20-19c1.2-1.8,1.8-4,3.5-5.5
			c5.7-5.1,8.8-11.5,10.3-19c0.9-4.2,4-6.8,7.1-9.4c5.3-4.4,11.2-7.8,17.7-10.2c11.2-4.1,16.5-12.2,17.1-23.9
			c1.1-21.9,2.5-43.8,3.8-65.8c0.9-14.4,1.4-28.9,2.4-43.3c1.3-19.6,2.2-39.2,3.5-58.8c1.1-17.3,2.2-34.5,2.9-51.8
			c0.2-4.5-1.6-8.4-4.3-12c-4.9-6.7-10-13.3-15.1-19.9c-2.1-2.8-4.1-5.7-5.7-8.8c-2.1-4-3.3-7.9-1.2-12.6c-2.6,2.4-4.5,5-7.6,6.3
			c-9.4,3.9-15.6,2.4-21.8-6c-25.6-33.9-51-68-76.6-101.9c-7.4-9.8-14.6-19.8-21.8-29.8c-2-2.7-2-5.9-3-8.8c0-1.7,0-3.3,0-5
			C3.3,296.6,5.4,286,9,275.9c2.1-6.1,5.9-9.7,12.1-11.2c27.8-7,55.3-15.3,82.9-22.9c3.9-1.1,7.9-2.9,12.2-1.7
			c6.4,1.8,11,5.4,13.1,11.9c3.4,10.2,8.9,19.7,10.9,31.1c3.4-3.7,4.8-6.7,4-11.5c-1-6.3-2.2-12.3-4.8-18.2c-1.8-4-1.1-8.3,2.1-11.7
			c3.5-3.8,6.8-7.8,10.3-11.6c3.7-4,8.1-6.8,13.3-8.6c7.8-2.7,9.2-5.5,7.8-13.7c-0.5-2.8-0.9-5.6-1.5-8.4
			c-1.2-6.3,0.3-11.6,5.1-15.8c4-3.6,5-7.8,4.5-13c-0.9-9.6-0.5-19.3-0.9-28.9c-0.8-18.3-2.6-36.5-2.3-54.8c0-1.3-0.3-2.7,0.1-4
			c1.5-4.9,0.4-8.7-2.9-12.8c-5.1-6.5-0.9-14.6,7.8-15.4c6-0.5,12-0.6,18,0c5.2,0.5,10.3,0.9,15.5,0.7c5.2-0.2,8.9,1.6,11.6,6.2
			c1.4,2.4,2.6,6.7,5.8,5.8c2.3-0.6,1-4.8,1.1-7.3c0.2-3.8,1.4-7.1,4.2-9.8c1.7-1.6,3.2-3.4,4.6-5.3c5.3-7.3,13.3-10.9,21.7-8
			c23.3,8.2,47.9,10.2,71.9,14.7c36.2,6.7,72.6,12.8,108.9,19.2c6.9,1.2,13.1,0.6,18.1-4.4c10.2-10,22.9-12.3,36.6-13.2
			c24.9-1.7,49.8-4.2,74.7-6.5c20.2-1.8,40.5-3.5,60.7-5.3c25-2.2,50.1-4.3,75.2-6.7c20.2-1.9,40.5-3.4,60.7-5.3
			c21.1-2,42.1-3.8,63.2-5.6c17.1-1.5,34.2-3.1,51.3-4.4c16.9-1.3,33.8-3.1,50.8-4.5c17.1-1.4,34.2-3,51.3-4.5
			c16.1-1.4,32.2-2.9,48.3-4.2c21.2-1.7,42.3-3.8,63.5-4.5C1111.7,1.5,1123.2,1.4,1134.6,0z"/>
	</g>
	<g id="Ebene_1_Kopie" class="st2">
		<g>
			<path class="st3" d="M1122.4,1.1c22.8-1,27.2-2.7,41.6,6.9c35.9,23.4,151.3,98.3,173,112.6c6.9,4.6,14.7,7,22.3,10
				c42.2,16.6,332.9,133.2,344.3,136.5c11.3,3.3,18.4,11.8,25.1,20.5c8.9,11.6,16.8,24,25,36.1c1.9,2.8,3.6,6.7,7.9,5.8
				c4.3-0.9,4.1-5.2,4.6-8.6c2.8-17.4,5.6-34.9,8.3-52.3c1.2-7.8,7.3-21.1,16.4-26.6c10.9-4.4,21.9-4.6,31.1,3.4
				c16.9,14.8,34,29.4,50.4,44.8c4.3,4,6.7,8.5,6.1,14.5c-0.8,7,2,12.8,6.4,18.3c10.2,12.4,19.8,25.1,29.8,37.6
				c2.8,3.5,4.6,7.3,4.2,11.9c-0.2,2.1,0.4,25-0.3,32.8c-0.8,9.4-6.5,26.6-13.3,30.2c-12.6,7.9-25.2,15.7-37.7,23.6
				c-3.5,2.2-7.1,3.4-11.3,3.2c-6.3-0.3-12.6,0.2-18.9-0.8c-5.4-0.9-7.6,1.2-6.9,6.8c1.8,15.4,4,30.7,6.7,46
				c0.9,5.2,3.3,6.8,8.6,5.9c8.8-1.5,17.6-0.7,26.4-0.9c5.5-0.1,9.9,2,12.2,7.1c2.3,5.1,0.8,9.8-2.3,14c-3.9,5.7-13.2,6.3-13.6,18.6
				c-0.8,15.5-3.5,83.6-5.1,102.2c-0.6,6.7-3.4,9.7-9.8,11.3c-18.4,4.7-591.2,177.9-607.7,182.9c-5.9,1.8-10.4,5-13.3,10.5
				c-3.1,5.9-8.3,10-12.9,14.5c-5.1,5-8.8,10.7-11.1,17.5c-4.8,14.3-13,27-20.2,40.1c-1.7,3-4.5,4.8-7.7,6
				c-19.1,7.1-38.1,14.2-57.2,21.2c-12.8,4.7-19.4-0.1-19.5-13.6c0-6.5,0.8-70.3,1.1-82.3c0.3-12.5-4.9-20.6-16.4-25.1
				c-6.5-2.6-12.8-5.7-19.3-8.2c-6.8-2.6-10-8.1-9.2-15.3c0.3-2.7,3-14.1-5.1-15.8c-4.1-0.9-7.4,0.5-9.3,4.1
				c-3,5.6-22.5,43.5-29.1,57c-3.2,6.6-7.6,10.7-15.5,10.2c-5.1-0.3-9.4,1.9-12.3,6.3c-2.6,4-6.3,6.8-10.4,9.2
				c-7.6,4.4-11.9,10.4-9.8,19.8c1,4.4-1.4,8-4.6,11c-12.5,11.7-25.7,22.8-37.7,35c-5.1,5.2-13.4,7.8-26.9,7.7
				c-13.5-0.1-65-19.2-82.6-25c-10-3-10.2-11.5-17.3-21.3c-4.6-6.3-12.8-6.2-15.8,0.9c-7.6,17.7-20.4,31.9-30.9,47.7
				c-14.8,22.2-31,43.4-45.4,65.8c-4.5,6.9-11,10.4-18.8,10.5c-8.5,0.1-13.7,4.3-17.3,11.3c-10.7,22.9-15,21.3-19,21.9
				c-8.4,1.2-13.7-3.2-18.5-9c-4.4-5.2-4.8-11.2-3.7-17.5c1.7-10-1.2-17.9-8.5-25.2c-6.6-6.6-13.9-12.9-17.7-22.1
				c-2.5-6.1-8.7-6.7-14.6-6.2c-6.7,0.5-438.8,76.2-459.9,80.5c-3.5,0.5-15.4,0.2-17.8-1.9c-3.2-3.3-14.2-11.1-13.2-21.6
				c0.1-1,0.2-5.2-0.8-5.7c-1.4-0.7-2.2,0.1-7.3,8.1c-1.8,3-4.5,4.6-7.9,4.5c-11-0.3-23.2,1.9-37.9,0.6c-7.8-2.1-10.6-9.8-5.4-15.9
				c2.9-3.4,3.4-6.5,2.7-10.8c-1.1-6.7-0.7-13.6-0.2-20.4c0.8-11.8,2.3-58.7,3.3-70.3c0.4-4.3-0.8-7.9-4.1-10.7
				c-5.3-4.6-7-10.2-5.6-17.1c0.8-3.9,1.7-7.8,2.1-11.8c0.5-5.4-1-8-6.2-9.1c-12.9-3.5-15-9.4-25.3-20c-3.9-4.1-4.4-9-2-13.9
				c2.3-4.7,3.8-9.5,3.8-14.8c0-3.9,2.5-6.8,5.1-9.5c13.2-13.4,18.2-16.6,28.6-14.5c10.3,3.1,13.6,1.1,16.5-2.6
				c2.9-3.7,6.6-6.1,11.1-8.1c13.6-6.1,21.8-23,23.5-24.5c5.7-5.1,8.8-11.5,10.3-19c0.9-4.2,4-6.8,7.1-9.4
				c5.3-4.4,11.2-7.8,17.7-10.2c11.2-4.1,16.5-12.2,17.1-23.9c1.1-21.9,11.9-202.4,12.6-219.7c0.2-4.5-1.6-8.4-4.3-12
				c-4.9-6.7-19.2-25.6-20.8-28.7c-2.1-4-3.3-7.9-1.2-12.6c-2.6,2.4-4.5,5-7.6,6.3c-9.4,3.9-15.6,2.4-21.8-6
				C75.9,418.4,10.3,330.6,3,320.7c-2-2.7-3.5-10.4-2.6-15c3.3-10.2,5-19.6,8.5-29.7c2.1-6.1,5.9-9.7,12.1-11.2
				c27.8-7,55.3-15.3,82.9-22.9c3.9-1.1,7.9-2.9,12.2-1.7c6.4,1.8,11,5.4,13.1,11.9c3.4,10.2,8.9,19.7,10.9,31.1
				c8.1-6.4,2.7-18.2-0.9-29.7c-1.3-4.1-1.2-8.4,2.1-11.7c8.6-8.5,11.2-15.9,23.6-20.1c7.8-2.7,9.2-5.5,7.8-13.7
				c-1.9-12.1-3.7-16.5,3.6-24.2c4-3.6,5-7.8,4.5-13c-0.9-9.6-3.5-86.5-3.1-87.8c1.5-4.9,0.4-8.7-2.9-12.8
				c-5.1-6.5-0.9-14.6,7.8-15.4c6-0.5,28.3,1,33.4,0.8c5.2-0.2,8.9,1.6,11.6,6.2c1.4,2.4,2.6,6.7,5.8,5.8c2.3-0.6,0.9-4.8,1.1-7.3
				c0.7-8.8,5.9-10.1,8.8-15.1c5.3-7.3,13.3-10.9,21.7-8c25.3,9.1,22.1,4.9,180.8,33.9c6.9,1.2,13.1,0.6,18.1-4.4
				c10.2-10,22.9-12,36.6-13.2C1072.8,3.3,1083.3,2.6,1122.4,1.1z"/>
		</g>
	</g>
	<g id="Ebene_3">
		<path class="st4" d="M677.3,0c16,0,32,0,48,0c2,0.7,4,1.7,6,2c9.8,1.1,19.5,2,29.3,3.1c4.3,0.5,8.5,1.3,12.8,1.8
			c6.3,0.7,12.6,0.7,18.8,1.8c14.3,2.5,28.4,6.2,42.7,8.1c12.8,1.7,25.2,4.4,37,9.7c7.5,3.3,15.1,6.2,22.9,8.6
			c19.9,6.2,39,14,57.6,23.4c32.3,16.4,63.2,34.8,92.7,55.6c7.4,5.3,15.1,10.2,23.1,14.8c14.5,8.3,29.5,15.9,43.9,24.4
			c9.5,5.6,18.5,11.3,30.2,8.8c1.2-0.3,2.7,0.1,3.9,0.4c15,3,29.9,6.3,45,9c8.5,1.5,17.2,1.8,25.7,3c5.8,0.8,11.4,2.5,17.1,3.4
			c12.8,1.9,24.3,5.9,34.2,14.9c6.1,5.6,14.1,8.4,22.8,9.1c17.2,1.4,32,7.4,41.7,22.8c1.4,2.2,4.1,3.9,6.5,5.2
			c10,5.1,20.3,9.7,30.3,15c15.5,8.2,31.1,14.9,49.5,10.8c14.4-3.1,29.1-2.9,43.6,0.8c3,0.8,6.6,1,9.4,0c10.4-3.8,20.1-0.9,29.7,2.4
			c6.6,2.3,13,2.8,19.6,0.7c14.8-4.6,28.4-1.6,40.7,7.2c4.8,3.5,9.6,4.7,15.4,4.4c13.8-0.7,25.7,3.8,36.1,13.1
			c3,2.7,6.9,5.2,10.7,5.9c18.6,3.5,37.3,6.8,56.1,9.4c27.6,3.8,54.2,10.8,78.6,24.5c17,9.5,33.2,20.4,50.4,29.4
			c27.3,14.4,47.4,35.6,62.4,62.1c2.6,4.6,5.7,9,8.9,13.2c5.5,7.1,11.8,13.6,17,20.9c10.6,15,15.3,32.4,20.2,49.8
			c0.4,1.4,1.5,2.6,2.2,3.9c0,4,0,8,0,12c-0.7,0.5-1.7,1-1.9,1.6c-0.9,3-1.6,6.1-2.2,9.2c-2.9,13.8-8.3,26.1-19.4,35.4
			c-8.9,7.4-19.7,10.3-30.8,11.6c-17.6,2.2-35,5.3-51.1,12.5c-12.3,5.5-24.1,11.7-37.2,15.2c-1.8,0.5-3.6,1.8-5.1,3
			c-8.3,6.5-17.9,9.2-28.3,9.7c-4.2,0.2-8.9,0.6-12.6,2.4c-16.1,7.9-31.5,17.2-47.9,24.4c-12.7,5.6-26.3,9.2-39.7,13.1
			c-6.9,2-13.1,4.7-18.1,9.9c-14.4,15.1-30.7,27.9-48,39.5c-16.2,10.8-31.1,23.1-43.3,38.6c-17.3,22.1-35.3,43.6-52.8,65.5
			c-7.4,9.2-14.6,18.5-21.3,28.2c-7.9,11.4-15.5,22.8-27.3,30.7c-1,0.7-1.7,2-2.5,3.1c-2.7,3.4-4.9,7.2-8,10.1
			c-9.6,9.2-19.3,18.3-29.2,27.2c-7.8,7-15.6,14-23.8,20.3c-13,10-26.3,19.6-39.6,29.2c-11.1,8-21.7,17.3-33.9,23.3
			c-14.9,7.4-31.1,12.2-47,17.5c-5.7,1.9-12,3.1-18,3c-6.7-0.1-12.8,0.7-18.9,3.2c-8.2,3.4-16.3,7.7-24.9,9.7
			c-26.8,6.2-53.7,12-80.8,16.8c-22.8,4-46,6.4-69,9.4c-11.2,1.5-22.5,2-33.5,4.4c-11,2.4-21.9,4.9-33.2,6.2
			c-9.9,1.1-19.7,4.4-29,8.1c-11.7,4.7-22.5,11.3-34.1,16.3c-22.8,9.8-50.2,1.4-64.4-19c-2-2.8-3.9-6.4-6.8-7.8
			c-12.7-6.3-22.9-17.1-37.3-20.3c-2.3-0.5-4.6-1.9-6.7-3.1c-12.1-7.1-18.7-18.6-23.9-30.9c-2.3-5.4-5.9-8.4-11.4-9
			c-11.5-1.2-22.7-3-32.5-9.7c-1.6-1.1-3.7-1.3-5.5-2.1c-5.8-2.6-11.8-5-17.3-8.2c-3.9-2.3-6.7-6.9-10.8-8.5
			c-5.4-2.2-11.6-3.1-17.5-3.4c-18.3-0.9-36.6-1.3-54.8-1.9c-2.5-0.1-5-0.3-7.4-0.7c-12.3-2.5-24.6-5.9-37-7.4
			c-19.7-2.4-38.4-7.6-56.2-16c-6.1-2.9-11.8-6.8-17.8-9.8c-8.4-4.2-17.2-7.8-25.5-12.2c-8.2-4.3-15.8-9.5-22-16.8
			c-4.6-5.4-10.3-9.8-15.4-14.9c-5.1-5.1-10.6-10-15-15.7c-3.7-4.7-6.4-9.9-12.5-12.3c-2.4-1-4.2-3.7-6.3-5.5
			c-5.9-5.1-11.2-11.2-17.8-15c-13.7-8-21.6-19.3-23.8-34.8c-1-7.1-2.8-13.8-7.3-19.8c-2.3-3-3.1-7.2-4.4-11
			c-1.5-4.5-2.6-9.3-4.2-13.7c-3.8-10.1-8.8-19-16.8-26.9c-13.9-13.5-25.7-29.2-39.6-42.7c-8.5-8.3-15.3-16.9-18.7-28.2
			c-2.3-7.6-6.3-15.3-6.2-22.9c0-12.8-5.9-22.2-13.5-31.1c-8.6-10-19.8-16.5-30.4-23.9c-13.2-9.1-25.4-19.3-32.5-34.3
			c-0.9-1.8-2.8-3.2-4.5-4.4c-15.3-10.4-31-20.4-46-31.2c-8.9-6.4-17.3-13.8-25.2-21.4c-7.9-7.6-14.3-16.7-22.4-24
			c-9.6-8.6-16.1-18.9-20.3-30.8c-2.7-7.4-7-12.1-15-13.4c-10.4-1.6-18.5-7.1-24.3-15.9c-2.5-3.7-5.1-7.4-7.2-11.3
			c-7.9-15.2-13.1-31-12.2-48.5c0.2-3.6-0.5-7.3-0.9-10.9c-0.6-4.3-1.5-8.5-2.1-12.8c-1.3-10-1.7-20.3-4-30c-2.7-11.5-3.8-23-4-34.8
			c-0.2-11,1.8-21.5,5-31.8c1.4-4.6,3.9-8.8,6.1-13.1c1.3-2.7,3.2-5.1,4.2-7.9c3.5-9.4,9.8-16.6,17.4-22.8
			c10-8.1,21.7-12.2,34.2-14.1c3.3-0.5,6.3-1.2,7.8-5.1c3.6-8.9,9.5-16.1,17.4-21.4c4.4-2.9,6.3-6.8,7.6-11.7
			c2.3-8.5,5.2-16.8,8.3-25c1.3-3.5,4.5-6.4,5.5-10c3.6-12.3,11.8-20.6,22.1-27.4c27.1-18,65.2-6.8,73.6,24.5
			c2.5,9.3,8.3,11.1,15.3,4.4c6.1-5.7,13-9.1,20.8-11.3c9.9-2.7,19.9-5.1,29.9-1.4c9.1,3.3,18.2,3.2,27.6,1.6
			c9.2-1.5,18.5-4.4,27.5-3.9c7.3,0.4,14.1-0.6,21.2-0.9c4.1-0.2,8.4-0.5,12.4,0.1c17.8,2.7,35.5,5.7,53.3,8.6
			c7.5,1.2,14.2-4.8,15.2-12.1c1.2-8.3,2.9-16.8,5.8-24.7c4.2-11.4,12.8-18.7,24.4-22.7c13.8-4.7,28-7.8,42.6-7.9
			c20.8-0.1,41.7,0.6,62.5,0.9c5.8,0.1,11.7,0.3,17.5,0.3c14.1,0,28.4,1,42.4-0.4c16-1.6,31.8-5.5,47.7-8.5
			C676,1.4,676.6,0.5,677.3,0z"/>
	</g>
	<g id="Ebene_4">
		<path class="st5" d="M731.4,2C856,14.6,887.1,32.7,894.9,35.1c93.7,29.1,152.3,87.2,217.3,118.2c9.5,5.6,19.5,11.3,31.2,8.8
			c76.5,18.1,98.9,8.7,124.9,30.6c6.1,5.6,14.1,8.4,22.8,9.1c17.2,1.4,32,7.4,41.7,22.8c1.4,2.2,26.8,14.9,36.8,20.2
			c15.5,8.2,31.1,14.9,49.5,10.8c14.4-3.1,95.6,6,102.2,3.9c14.8-4.6,28.4-1.6,40.7,7.2c4.8,3.5,9.6,4.4,15.4,4.4
			c33.3-0.1,33.3,17.5,46.8,19c51.2,11.7,89,7.7,134.8,34c17,9.5,33.2,20.4,50.4,29.4c27.3,14.4,47.4,35.6,62.4,62.1
			c8.9,16.3,20.7,26.9,25.9,34.2c10.6,15,15.3,32.4,20.2,49.8c0.4,1.4,4.2,39.4-21.3,62.1c-8.9,7.4-19.7,10.3-30.8,11.6
			c-33.4,1.9-75.2,24.2-88.3,27.7c-1.8,0.5-3.6,1.8-5.1,3c-8.3,6.5-17.9,9.2-28.3,9.7c-4.2,0.2-8.9,0.6-12.6,2.4
			c-16.1,7.9-50.3,30.7-87.6,37.4c-6.9,2-13.1,4.7-18.1,9.9c-14.4,15.1-30.7,27.9-48,39.5c-39.1,21.4-57.1,61.3-117.4,132.3
			c-7.9,11.4-69.4,84.6-164.3,143.9c-14.9,7.4-54.5,21.6-64.9,20.5c-6.6-0.7-12.8,0.7-18.9,3.2c-88.1,34.7-145.7,26.8-241.3,46.5
			c-25.7,3.2-51.5,19.4-63.1,24.4c-22.8,9.8-50.2,1.4-64.4-19c-2-2.8-17.8-18.9-44-28.1c-19.9-9.2-25.4-21.7-30.7-34.1
			c-2.3-5.4-5.9-8.4-11.4-9c-34.6-2.7-58.6-23.6-66.1-28.6c-15.5-7.1-47.1-2.3-79.7-6c-97.6-12.5-104.2-32.3-136.5-45.4
			c-14.7-4.4-42.4-43.1-89-80.2c-13.7-8-19.9-19.6-23.8-34.8c-12.7-49.4-29.8-71.3-72.4-114.2c-19.9-20-18.6-28.2-22-39.5
			c-9.9-27.5,2.6-33.7-46.9-66.5c-24.4-15.6-34.9-38-43.2-42.8c-37.8-22-90.1-59.3-107.8-103.2c-2.9-7.2-7-12.1-15-13.4
			c-10.4-1.6-18.5-7.1-24.3-15.9c-14.7-21.9-20.3-42.4-19.4-59.8c0.2-3.6-11-76.7-11-88.5c0-72.7,54.2-87.7,66.8-89.6
			c3.3-0.5,6.3-1.2,7.8-5.1c3.6-8.9,9.5-16.1,17.4-21.4c16-11.6,4.1-44.2,43.5-74.1c27.1-18,65.2-6.8,73.6,24.5
			c2.5,9.3,8.3,11.1,15.3,4.4c6.1-5.7,27.3-18.4,50.8-12.7c9.5,2.3,18.5,4.1,27.6,1.6c40.9-11.3,96.7,1,114.4,3.9
			c7.5,1.2,14.2-4.8,15.2-12.1c7.5-47.9,23.3-52.3,72.8-55.2C526,7.9,613.6,11.4,627.6,10c16-1.6,31.8-5.5,47.7-8.5
			C704.9-1.8,729.3,1.8,731.4,2z"/>
	</g>
</g>
<g id="Ebene_2" class="st0">
	<path class="st2" d="M1363.5,1080.9c-1.5,0-3,0-4.4,0c-5.3-1.9-10.5-3.8-15.8-5.5c-9.2-3-18.9-4.4-27.2-11
		c-2.6-2.1-5.4-3.9-8.2-5.8c-1.1-0.7-2.3-1.8-3.5-1.8c-8.3,0-15.9-5.7-24.4-4.4c-15.1-4-30.3-7.8-45.4-12c-10.3-2.9-20.5-6-30.5-9.8
		c-4.2-1.6-8.1-2.4-12.3-0.9c-5.6,2-11.3,1.8-16.9,0.1c-5.6-1.7-11.2-3.2-16.7-4.9c-5-1.5-10.6-1.8-14.9-5
		c-5.2-3.8-10.3-3.7-15.7-3.5c-1.7,0.1-3.4,0.9-4.9,0.5c-12.4-3.6-24.8-7.3-37.1-11c-9.1-7.9-18.2-15.9-27.3-23.8
		c-0.4-0.4-0.8-1-1-1.6c-2.8-6.9-7.8-7.6-13.1-7.9c-3.5-0.2-7.1,0-10.4-0.9c-8.1-2.1-16.1-5.2-24.3-7c-8.1-1.8-14.6-7-21.4-12.4
		c-12.6-10-22.8-22.7-30.4-38.7c-1.7-3.5-3.1-7.3-4.1-11.2c-1.5-6.1-2.5-12.5-3.7-19c-10.5-0.4-18.9-7.1-27.7-12.3
		c-6.7-4-11.1-11.3-15.1-19c-1.1-2.2-2.8-4.6-4.7-5.3c-5.9-2.4-12.1-4-17.2-5.6c-4.7,5-8.3,10.2-12.8,13.4c-4.9,3.4-10.6,5.1-16,7.1
		c-6.2,2.3-13.2,1.3-18.4,7.6c-0.1,0.1-0.3,0.1-0.5,0.2c-7.1,3.1-14.3,6-21.3,9.2c-1.2,0.6-3,1.9-3.1,3.2
		c-0.8,8.7-5.9,14.3-9.3,21.1c-4.9,9.8-11.1,17.8-19,23.9c-6.9,5.3-13.6,10.9-20.5,16.2c-1.2,0.9-2.7,1.3-4.2,1.8
		c-10.5,3.5-21,7.1-31.6,10.4c-10.4,3.2-20.8,6.2-31.3,9.1c-1.7,0.5-3.6,0.4-5.4,0.1c-5.8-1-11.6-2.4-17.4-3.1
		c-4.1-0.5-8.4-0.2-12.5-0.1c-2.2,0-4.6-0.3-6.5,0.6c-6.8,3-13.4,2.1-20.1-0.1c-12.6-4.2-25.6-6.7-38-12.4
		c-5.1-2.3-9.9-4.7-14.2-8.9c-1.9-1.8-3.8-4.3-6-4.9c-4.3-1.3-7.7-4.2-11.2-7.2c-1.1-0.9-2.8-1.5-4.1-1.3c-8.9,1.3-17.4,0-26.1-2.8
		c-6.7-2.2-13.6-3.7-20.5-5c-12.9-2.4-25.5-7.1-38.2-11.1c-4.4-1.4-8.6-4-13-5.5c-6.4-2.3-13.1-3.4-19.2-6.4
		c-7.9-3.8-16.3-3.2-24.3-6.2c-1.4-0.5-3.2,0.7-4.9,1c-4,0.7-8,2-12,2c-25.8,0.2-51.7,0.1-77.5,0c-3.3,0-6.6-1-9.9-1.2
		c-6.6-0.5-13.2-1.6-19.8,0.4c-5,1.5-9.9,3.5-14.9,5c-12.9,3.9-25.8,7.8-38.8,11.4c-2.2,0.6-4.8,0.4-7.1-0.2
		c-10.1-2.7-20.2-5.6-30.2-8.8c-3.3-1-6.5-1.3-9.8,0.1c-6.3,2.8-12.6,2.8-18.9,0c-1.2-0.5-2.5-0.9-3.8-1.2
		c-19.7-5.1-38.7-13.7-58.9-15.8c-4.2-0.4-8.4-0.6-12.4-1.5c-5.4-1.3-10.7-3.7-16.2-4.7c-11.1-2.1-20.5-8-29.3-16.6
		C50.4,854,45.1,848,41,840.2c-1.4-2.7-3.2-5.3-5.3-7c-7.6-5.9-13.3-13.8-18-23.1c-1.6-3.1-3.6-5.9-5.1-9.1c-1.5-3.1-2.9-6.5-3.6-10
		c-2.4-11.4-4.4-23-6.6-34.5c-0.4-2.1-1.5-4-2.3-6c0-0.9,0-1.9,0-2.8c0.8-1.7,1.8-3.4,2.2-5.2c1.9-9.2,3.9-18.4,5.2-27.8
		c1.3-9.4,4.2-17.6,9-24.9c3.4-5.2,5.9-11.4,9.7-16c5.1-6.2,9.5-12.8,13.8-19.8c2.1-3.4,4.6-6.7,7.4-9.2
		c6.7-6.1,13.8-11.4,20.6-17.5c4.9-4.4,9.3-9.8,14.3-14.1c4.1-3.5,6.9-7.5,7.4-13.8c0.5-6,2.7-11,5.6-15.7c1.4-2.2,2.8-4.4,3.8-6.8
		c2.9-6.8,4.8-14,3.4-21.9c-1.4-7.2-2.8-14.4-3.9-21.7c-0.4-2.6-0.5-5.5,0-8.1c2.2-12.9,4.6-25.8,7.2-38.6c0.6-3.1,1.8-6.1,3.3-8.7
		c13.3-23.8,13.3-23.8,32-40.6c0.3-0.3,0.6-0.6,0.9-0.8c2.3-1.3,4.6-3,7-3.8c6.4-2.2,12.9-4,19.4-6c0.4-1.2,1-2.2,1.1-3.3
		c0.9-11.1,5.3-20.1,10.7-28.5c2.2-3.4,4-7.3,6.2-10.7c1.7-2.7,3.6-5.3,5.8-7.3c11.7-10.5,23.8-20.2,35.3-31.2
		c8-7.7,16.6-12.5,26.4-14.9c13.2-3.2,26.3-7.1,39.4-11c5.1-1.5,9.8-4.6,11.8-11.2c3.6-11.7,10-19.2,19.6-22.4
		c2.8-0.9,5.5-1.8,9.6-3.2c-6.4-4.3-9.2-10.6-12.6-16.3c-2.9-5-6.6-9.2-10-13.7c-0.6-0.8-1.7-1-2.4-1.7c-3.3-3.3-6.9-6.2-9.7-10.1
		c-5.4-7.7-6.4-17.6-6.5-27.4c-0.2-22.3,0-44.5,0-66.8c0-9.3,0.1-18.5,2.3-27.5c2.5-10.2,7.9-17,15.8-20.7c2.5-1.2,5.1-2.6,7.3-4.6
		c3.3-3.1,6.8-5.3,10.9-6.2c5.2-1.3,10.5-2.3,14.7-7.2c1-1.2,2.6-1.6,4-2.1c3.9-1.3,7.8-2.7,11.8-3.7c6.2-1.7,10.9-5.9,14.9-12.1
		c3.6-5.7,8.2-10.5,12.6-15.4c1.5-1.6,3.5-2.7,5.4-3.4c6.6-2.7,13.3-3.7,20-0.4c2.4,1.2,4.9,1.9,6.2,2.4c4.9-2.6,8.8-5.2,13-6.6
		c8.7-2.9,17.4-5.4,26.6-5.4c4.1,0,8.1-0.7,12,1.2c3.9,1.8,7.6,1,11.3-0.4c5.4-2,10.7-3.3,16.3-0.8c7.1,3.2,14.3,4.1,21.6,0.7
		c1-0.5,2.2-0.2,3.3-0.4c5.1-0.9,10-2.4,13.8-7.5c5.1-6.8,12.3-8.8,19.2-9.2c5.5-0.3,10.5-1.8,15.7-3.4c5.3-1.6,10.5-4.4,16.2-2.6
		c1.2,0.4,2.8-0.7,4-1.5c3.2-1.9,6.1-4.4,9.4-5.8c4.2-1.7,8.7-3.8,12.9-3.2c8.1,1,15.9,4.1,22.2,11.4c2,2.3,3.6,5.3,5.7,7.6
		c7.3,8.1,12.3,17.7,14.1,29.9c1.9,12.8-1.1,23.7-8.3,32.9c-1,1.3-2.2,2.4-3,3.2c-0.5,14.8-3.2,27.6-13.5,35.8
		c-1.7,1.4-3.1,3.5-5.2,5.9c2.6,2.7,4.4,4.9,6.5,6.6c6.8,5.4,11.7,12.5,14.5,22.1c0.4,1.3,1.3,2.8,2.3,3.4c9,5.9,15.3,15,19.2,26.7
		c0.6,0,1.2,0.1,1.7,0c8.8-2.4,16.8,0.5,24,6.8c2.9,2.5,5.5,3.3,8.7,1.9c5.4-2.3,10.8-2.8,16.2-0.2c2,1,4.1,2.1,6.2,2.7
		c1.5,0.5,3.4,1.1,4.7,0.5c5.4-2.5,10.5-1.3,15.7,0.5c8.9,3.2,14.8,10.4,17.3,21.4c2,8.4,3.1,17.2,4.6,25.8c0.2,1.3,0.5,2.7,1,3.9
		c3.9,9.5,6.2,19.3,3.5,30c-0.8,3.1-0.5,5.7,1,8.5c3.3,6,5.2,12.8,6.1,19.9c0.5,3.8,1.7,6.9,3.6,10c4.5,7.2,8.3,14.8,9.1,24.2
		c0.1,1.7,0.9,3.3,1.5,5.2c1.4-0.5,2.6-0.5,3.5-1.3c6.1-5.3,14.2-5.2,19.8-11.8c0.7-0.9,2.1-0.9,3.1-1.5c2.5-1.4,5.2-2.5,7.3-4.5
		c9.4-8.9,19.8-10.7,30.2-4.9c4.8,2.7,9.5,2.8,14.2,3.2c6.2,0.5,11.9,2.1,17.5,5.3c4.2,2.3,8.6,4.2,13.4,2c4.5-2.1,9-1.8,13.6-0.1
		c1.5,0.5,3.2,0.5,4.7,0.1c3.2-0.9,6.4-2.1,9.6-3.3c6.5-2.6,12.6,0.3,18.1,3.6c4,2.4,7.9,4.9,12,6.8c1.4,0.6,2.9,1.2,3.9,2.4
		c3.2,3.8,6.6,4.2,10.6,2.6c9.2-3.6,17.4-0.5,24.9,6.3c1.6,1.5,3.3,3.1,5.2,3.8c5.8,2.2,11.8,3.8,17.6,6.2
		c5.7,2.4,11.4,5.1,16.8,8.4c2.2,1.3,4,1.9,6.2,1c1.2-0.5,2.5-0.7,3.8-1.2c5.1-1.9,10.2-2.3,15.2,0c5.5,2.6,10.4-2.7,15.7-1.7
		c0.7,0.1,1.5,0.3,2.2,0.2c9-0.5,17,2.6,23.8,10.4c1.4,1.6,3.4,2.6,5.2,3.3c4,1.6,8.6,1.9,12.2,4.4c5.4,3.7,10.4,8.3,16.3,11.5
		c3.3,1.8,6,2.7,9.3,1.3c4.9-2,9.7-2.4,14.6-0.2c0.8,0.4,1.8,0.5,2.7,0.8c0.4-0.7,0.8-1.2,1.1-1.7c7.5-16.9,19.1-24.4,34.4-23.3
		c4.8,0.4,9.5,1,14.3,1.4c1.1,0.1,2.2,0.1,3.3-0.1c11.4-1.7,22.3,0.4,32.6,7.3c9.1-4.1,18.4-7.5,28.4-3.1c2,0.9,4.4,0.5,6.5,0.1
		c6.9-1.3,13.2,0.7,18.9,5.3c3.3,2.7,6,6.6,9,9.9c8.4-5.7,17.2-7.6,26.5-3.5c9.4,4.2,15.3,12.3,17.9,24c19,5.2,22.9,22.5,23.3,41.8
		c1.8,1,3.7,2.1,5.9,3.3c-0.2-28.6,10.2-36.5,20.5-42.5c8-4.7,16.6-3.5,24.8,0.2c7.4,3.3,11.7,10.7,15.5,18.6
		c3.4-2.3,6.4-4.4,9.5-6.5c2.9-2,4.5-5,5.3-9.2c3.5-18.3,16.8-24.6,28.6-24.1c4.7,0.2,9.3,2.6,13.9,4.4c4.3,1.6,8.8-2.7,8-8.2
		c-1-7.1-2.2-14.1-3.5-21.1c-0.7-3.5-1.9-6.9-2.7-10.4c-1.7-7.7-4.1-15.2-2.2-23.7c1.3-6.1,3.4-11.6,5.5-17.3
		c4.1-11,10.1-19,20-22.1c5-1.5,9.7-2.2,14.6,0c1.7,0.8,3.5,0.9,4.3,1c4.1-4.6,7.5-8.4,10.9-12.2c0.8-0.9,1.6-1.9,2.3-2.9
		c9-12.8,19.8-18.8,33.5-14.6c0.9,0.3,1.8,0.5,3.4,0.9c1.4-3.2,3.1-6.2,4-9.6c2-7.5,4.2-14.7,8.3-21c7.6-11.5,17.4-15.3,28.6-13.2
		c5.5,1,10.7,4.7,16.1,6.6c3.6,1.3,7.1,2.6,9.9,5.9c2.8,3.4,6.4,4.3,10.1,4.9c3.3,0.5,6.6,1.1,9.8,2c10.3,2.9,16.8,10.9,19.2,23.9
		c0.7,3.8,1.4,7.6,2.1,11.3c2.8,1.8,5.4,3.4,7.8,5c3-4.6,5.6-9.1,8.7-13c5.4-6.8,12.8-7.6,19.9-9.2c2.3-0.5,4.8-0.6,7.1-0.1
		c4.2,0.9,8.3,2.4,12.4,3.8c4.8,1.6,8.6,5.3,11.7,10c5.7,8.4,7.2,18.4,6.9,29.3c1,0.3,2.2,1.2,3.1,0.8c3.1-1.5,6.1-3.1,9-5.1
		c7.2-4.9,14.5-7.7,22.7-4.5c3.7,1.5,7.4,1.8,11.4,0.5c2.7-0.8,5.9-0.4,8.6,0.6c4.7,1.6,8.9,0.8,12.6-2.8c7.4-7.1,15.6-9,24.5-7.3
		c4.7,0.9,9.7,1.9,13.8,4.6c6.9,4.5,11.9,11.7,13.2,21.9c0.6,4.4,2,8.1,4.3,11.7c5.9,9.3,12.6,18.2,13.6,31c0,2.8,0,5.6,0,8.4
		c-0.4,1.5-1,3-1.1,4.5c-0.7,9.1-4,16.2-9.5,22c-3.9,4.2-7.4,9-11.4,13.1c-5.3,5.3-10.5,11-17.4,13.1c-1.5,0.4-3.2,1.6-4,3.1
		c-7.3,12.5-18.1,15-29.3,16.6c-0.9,0.1-1.9-0.1-2.7-0.4c-5.9-1.9-12-2.8-16.8-8.3c-0.3-0.4-1-0.2-1.6-0.3c-0.5,2.6-1,5.1-1.5,7.5
		c-2.1,11.1-7.9,18.2-16.2,21.9c-5.2,2.3-10.5,3.9-16.3,6c1.6,7.7,2.1,15,0.6,22.7c-1.5,7.7-4.1,14.7-7.9,21.1
		c5.9,6.5,10.9,13,13.1,21.8c1.1,0,1.8,0,2.5,0c10.6,0.5,19.9,4.2,26,16.3c1.9,3.7,4.1,7.2,6.1,10.8c1.8,3.2,4.2,5,7.2,6
		c2.5,0.8,4.9,2,7.1,3.6c7.9,5.7,11.8,14.7,13.4,25.8c1.3,8.7-0.3,16.8-3.3,24.1c-3.6,8.8-8.4,16.8-12.7,25.2
		c-4.1,8-9.6,13.4-17.2,14.8c-3,0.6-5.4,2.2-7.8,4.7c-2.8,2.9-6.2,4.7-9.4,7c-1.7,1.2-4.1,1.8-5.1,3.7c-3.5,5.9-6.3,12.3-9.7,18.3
		c-2.8,4.9-5.6,9.9-9,13.9c-6.5,7.5-15.1,7.7-23.7,9.6c-1.6,2.4-3.7,5.3-5.4,8.5c-1.6,3-2.4,6.8-4.2,9.6
		c-6.7,10.6-11.3,22.6-16.6,34.2c-0.4,0.8-0.6,1.7-0.8,2.6c-2.1,10.2-3.5,20.3-0.7,30.7c1.6,5.9,2.6,12.1,3.5,18.3
		c0.4,3.1,0.5,6.5,0,9.6c-2.2,12.7-4.7,25.3-7.1,37.9c-0.4,2.2-1.2,4.3-1.9,6.5c-0.9,3-2.3,5.9-2.8,9c-1.2,7.7-4.1,14.1-7.5,20.7
		c-7.1,13.7-15.9,24.7-26.7,33.7c-6.1,5-12.1,9.8-19.4,11c-4.3,0.7-7.6,2.6-9,8.4c-0.6,2.4-2,4.4-3.1,6.5
		c-13.3,24.5-13.3,24.6-32.6,41.7c-3.1,2.7-6.7,4.9-10.4,6.1c-10.5,3.5-21.1,6.5-31.8,9.4c-2.6,0.7-5.5,0.8-8.2,0.1
		c-8-2-15.8-4.5-23.8-6.7c-1.4-0.4-2.8-0.5-4.7-0.8c-5.6,15.2-16.4,23.7-26.7,32.7c-0.5,0.4-0.9,0.9-1.4,1.2
		c-2.8,1.7-5.5,3.8-8.5,4.8c-9.6,3.1-19.4,5.8-29.1,8.7c-3.3,1-6.4,1.6-9.8,0.4c-1.8-0.7-4,0.1-6,0.4c-8.7,1.6-17.4,3.3-26.1,4.9
		c-1.2,0.2-2.6-0.2-3.8-0.5c-2.5-0.7-5.1-1.3-7.5-2.3c-3.2-1.3-6-1.4-8.7,1.7c-1.1,1.3-3,1.7-4.6,2.2c-10.4,3.1-20.8,6.2-31.3,9.2
		c-1.6,0.4-3.4,0.8-4.9,0.3C1374.4,1075.5,1368.9,1078,1363.5,1080.9z"/>
</g>
<g id="Ebene_3_1_" class="st0">
	<path class="st2" d="M1698.9,1080c-2.3,0-4.7,0-7,0c-3.6-3.8-7.9-7.1-10.7-11.5c-10.2-16.2-24.3-26.6-43.5-28.4
		c-24-2.3-47.4-7-69.9-16c-2.7-1.1-4.4-0.4-6.8,0.8c-2.8,1.5-6.4,1.6-9.7,2.2c-1.8,0.4-4,0.1-5.4,1c-5.2,3.3-9.9,7.5-15.4,10.3
		c-4.1,2.1-9.4,4.2-13.5,3.2c-6.3-1.5-12.2-5.1-17.7-8.8c-6.8-4.5-12.7-10.3-19.5-14.7c-4.9-3.2-10.6-5.2-16.1-7.3
		c-1.2-0.5-3.8,0.8-4.8,2.1c-4.1,5-7.1,11-11.7,15.5c-17.7,17.2-38.7,26.9-63.8,25.6c-29.8-1.5-59.6-3.4-89.4-4.9
		c-50.6-2.6-101-7.9-151.2-14.4c-47.1-6.1-94.1-12.4-141.2-18.5c-6.1-0.8-12.3-1.7-18.3-1.2c-7.6,0.6-10.3,6.6-6,12.9
		c3.2,4.7,7.4,9,11.6,12.8c9.8,8.8,20,17.1,29.7,25.9c1.5,1.3,2,5,1.3,7.1c-0.6,1.8-3.7,4.1-5.4,3.9c-5.3-0.8-11.3-1.4-15.4-4.4
		c-9-6.5-16.9-14.5-25.5-21.6c-21.2-17.5-42.4-35-63.9-52.2c-5.4-4.3-11.4-8.2-17.7-11c-8.2-3.6-16.9-6.3-25.5-8.7
		c-9.7-2.7-17.3-8.1-24.1-15.3c-2-2.2-5-3.8-7.9-4.7c-8.6-2.6-17.4-4.4-26-6.9c-12.4-3.5-18.5-13.3-16.3-25.9
		c0.5-3.1,1.4-6.2,1.7-9.3c0.1-1.7-0.2-4-1.3-5.2c-36.1-36.9-70-76.1-109-110.1c-21.7-18.9-46.8-32.7-75.3-38.4
		c-24-4.8-48.2-8.4-72.4-12.1c-16.1-2.5-32.3-4.3-48.5-6c-2.2-0.2-5.5,1-6.7,2.8c-11.6,16.5-22.9,33.1-34,49.9
		c-7.7,11.7-14.2,24.1-22.3,35.5c-14.8,21-34,36-60.1,40.4c-6.2,1.1-12.5,2.2-18.6,3.7c-18.3,4.6-18.4,19.7-13.5,32.9
		c1.6,4.2,2.5,8.1,2.4,12.4c-0.1,4-2.4,6.7-6.3,6.1c-5.3-0.8-11.2-1.6-15.3-4.6c-9-6.5-16.9-14.5-25.5-21.6
		c-20.9-17.3-41.8-34.7-63.1-51.5c-24-18.9-50.3-33.7-80.2-41.4c-7.2-1.9-14.5-3.6-21.7-5.6c-10.3-2.9-15.9-9.9-16.9-20.4
		c-0.1-1.2-0.7-3.1-1.3-3.2c-3.8-0.7-7.7-1.2-11.5-1.5c-3.4-0.2-7,0.7-10.1-0.4c-5.1-1.8-9.3-0.7-12.8,2.7c-7,6.8-15.1,8.7-24.6,7.4
		c-12.9-1.7-24.1-10.3-25.8-22.1c-1.5-9.8-6.1-17.7-11.3-25.6c-10.6-16.3-10.5-33.3-1.6-50c3.5-6.6,9.5-11.9,14.5-17.6
		c5.4-6.3,11.1-12.4,19.4-15.1c1.3-0.4,2.3-1.6,3.3-2.7c3.3-3.5,5.8-8.1,9.8-10.4c7.5-4.6,15.8-8.3,25-5.1
		c5.5,1.9,10.6,4.7,16.2,7.3c0.5-21.1,13.9-31,33.6-34.3c-3.5-15.5-1.3-29.4,6.2-42.5c0.5-0.9,0-2.9-0.6-3.9
		c-4.1-6.5-8.5-12.9-13-19.7c-6.2-0.2-14-0.7-19.2-6.7c-5.2-6.1-8.9-13.5-13.7-20c-1.8-2.5-4.4-5.1-7.2-6.1
		c-6.3-2.3-11.1-6.2-14.4-11.7c-8.6-14.5-8.5-29.6-1.6-44.8c2.4-5.2,4.9-10.4,7.4-15.7c-3.9-1.4-7.7-2.4-11.3-4.1
		c-3.7-1.7-8.4-3.3-10.5-6.4c-4.6-6.7-11.6-9.6-17.6-14.2c-1.3-1-2.9-1.8-4-3c-1-1.1-2.3-3-1.9-4c1.3-3.8,2.6-8.1,5.2-10.8
		c3-3.1,7.4-5.1,11.4-6.9c40.1-18.5,80.5-36,122.2-50.6c2.8-1,5.9-3.4,7.3-5.9c4.3-7.7,8.6-15.5,11.4-23.8c4.2-12.3,7-24.7,2-38
		c-4-10.5-5.1-21.5-2.1-32.9c3.8-14.3,7.2-28.7,10.3-43.2c4-18.8,14-34.5,27.2-47.5c8.6-8.4,20.3-13.7,30.5-20.4
		c1.2-0.8,2.7-1.5,3.2-2.7c5.4-14,13.4-26.3,22.6-37.1c-1.4-5.4-3.5-10.4-3.9-15.6c-0.3-3.3,0.7-8.1,3-9.9c4-3.2,9.3-6.4,14.1-6.5
		c26.2-0.4,50.4-9.2,74.4-17.9c16-5.8,28.5-16.2,34.5-33.2c1.1-3,5.2-6.1,8.5-6.8c10.9-2.4,21.7-2.6,31.4,4.7
		c2.8,2.1,6.6,2.7,10,4.1c3.4,1.4,6.9,2.4,10.1,4.2c8.7,5,17,10.4,25.8,15.2c2.8,1.6,6.5,2.6,9.7,2.2c10.7-1.1,21.3-0.4,30.9,4.1
		c12.3,5.7,24,12.8,36.1,19c2.2,1.1,5.4,1.6,7.7,1c7.9-2,15.5-5.1,23.4-6.8c12.4-2.5,24.9-4.3,37.4-6.1c3.8-0.6,6.2-2,7.5-5.9
		c2-5.8,4.9-11.3,7.3-17c1.2-2.8,2.6-3.9,6-3.3c15.7,2.8,31.5,5.4,47.3,7.8c7.3,1.1,14.6,3.9,22.1,0.9c-1.4-9.7,1.9-13.2,12-12.5
		c4.6,0.3,9.3,1.2,13.9,1.6c9.3,0.9,18.7,2.9,27.8,2.1c28.5-2.5,56.9-6.3,85.4-9.2c12.4-1.3,24.9-1.9,37.4-2.1
		c13.9-0.2,21.3,6.6,23,20.4c0.5,3.6,0.5,7.2,0.8,11.4c18.2,1.9,36.4,4.4,54.6,5.7c49.9,3.3,99.8,6,149.7,9.3
		c24.4,1.6,45-6.8,63.1-22.4c3.1-2.6,5.6-6.2,7.7-9.7c7.5-12.7,14.1-14.2,26.2-5.3c0.1,0.1,0.3,0.2,0.4,0.3
		c11.9,9.4,23.9,18.7,35.8,28.1c32.8,25.9,69.4,43,111.3,47.9c14.9,1.8,20,7.5,19.7,21.9c-0.1,3.7,5.5,10.9,9.3,12.1
		c53.9,16.4,107.8,32.8,161.7,49.1c7,2.1,12,5.1,10.7,14c12.9,0,25.2,0.1,37.5-0.1c1.3,0,2.7-1,4-1.7c7.1-4,13.8-9,21.3-11.9
		c15.5-6,31.6-10.6,47.3-16.2c5.5-2,10.6-1.9,16.1-0.7c38.2,8.6,76.4,17.2,114.6,25.8c3.5,0.8,7,1.7,10.9,2.6
		c-0.9,2.3-1.4,4-2.1,5.7c-13.6,31.3-27.4,62.5-40.8,93.8c-9.7,22.6-21.4,44.4-26.4,68.8c-1.4,6.6,1.1,13.4,5.8,17.4
		c8.8,7.5,12.6,16.3,11.1,27.3c-1,7.5-3.5,14.9-5.2,22.3c-4.3,18.3-8.7,36.5-12.8,54.8c-4.4,19.4-12.1,37.1-26.7,51
		c-15.7,15.1-32.2,29.5-47.7,44.8c-7.1,6.9-12.9,15.1-18.9,23c-1.1,1.4-0.7,5,0.4,6.6c3.9,6.1,8.7,11.7,12.5,17.8
		c4.6,7.3,9.3,14.6,12.5,22.5c4.6,11.6,5.6,24.1,4.5,36.4c-1.9,23-0.2,46.2-4.2,69.1c-0.2,1-0.1,2,0.1,3c1,6.9,2.6,8,9.5,6.7
		c1.8-0.4,3.6-0.7,5.4-1c13.9-1.8,27.4-6.1,41.9-3.6c17.8,3,35.4,5.9,52.1,13.2c13,5.7,21.1,16.2,18.3,27.5
		c-1.6,6.6-5.4,13.4-10,18.5c-9.2,10.2-19.6,19.5-29.6,28.9c-5.7,5.4-11.8,10.3-17.5,15.7c-4,3.8-5.6,14.6-3,19.2
		c2.6,4.6,9.8,7.3,16.4,5.8c2.1-0.5,4.3-1.1,6.1-2.2c5-3,9.8-6.3,14.7-9.6c-3.1-4.4-6-8.5-9.6-13.6c3.3-0.3,6-1.3,8.2-0.7
		c25.4,6.8,50.8,13.7,76.1,20.8c4.8,1.3,9.5,3.2,13.7,5.8c16.8,10.2,31.8,22.1,37.8,42c0.9,3.1,2.8,5.9,4.2,8.9c0,2.7,0,5.3,0,8
		c-3,6.8-8.4,11-15,13.9c-7.1,3.2-14.3,6.2-21.5,9.2c-30.1,12.5-60.9,23.3-89.2,39.8c-28.7,16.7-55.8,35.1-77.3,60.8
		C1711.8,1071,1706.3,1076.5,1698.9,1080z"/>
</g>
<g id="Ebene_5" class="st0">
	<rect class="st6" width="1920" height="1080"/>
</g>
<g id="Ebene_4_1_">
	<path class="st7" d="M412,0c6,0,12,0,18,0c7.3,4.1,14,9.4,22.8,10.7c2.5,0.4,5,1.9,7.3,3.2c8.6,5,17.3,10.1,25.7,15.4
		c3.3,2.1,6.4,3.1,10.3,2.5c10.6-1.7,21.2-0.5,30.8,3.9c12.2,5.6,23.9,12.4,35.6,19c3.1,1.7,5.6,2.2,8.8,1.1
		c6.1-2.2,12.2-4.6,18.5-5.9c13.5-2.7,27.2-4.9,40.8-6.9c4.3-0.7,7.2-1.9,8.6-6.6c1.8-5.7,4.8-11,7.1-16.5c1.2-2.9,2.8-3.8,6.1-3.2
		c19.4,3.3,38.8,6.5,58.2,9.4c3.6,0.6,7.4,0.1,11.3,0.1c-1.7-10.3,1.6-14,11.4-13.4c4.8,0.3,9.6,1.2,14.4,1.6
		c9.1,0.9,18.3,2.9,27.3,2.1c28.2-2.5,56.3-6.2,84.4-9.1c12.8-1.3,25.6-2,38.4-2.3c14.2-0.3,21.7,6.5,23.4,20.5
		c0.5,3.6,0.5,7.2,0.8,11c1.4,0.3,2.7,0.6,4,0.7c21.5,2.2,43.1,4.5,64.6,6.4c4.3,0.4,8.9-0.5,13.1-1.5c4.7-1.1,9.1-3.1,13.7-4.8
		c0.5-0.2,0.8-0.7,1.2-0.8c8.2-2.4,15.4-9.2,24.9-5.4c0.6,0.3,1.6,0,2.3-0.3c6.3-2.8,12.4-6.5,18.9-8.4c10.5-3,19.8-9.2,31.8-8.3
		c8.1,0.6,16.6-2.8,24.9-4.4c7.4-1.4,14.8-2.9,22.2-4c5.5-0.8,11.1-0.9,16.7-1.1c3.3-0.1,6.6,0.4,9.8,0c6.2-0.8,12.3-2.5,18.5-2.9
		c21.8-1.3,43.5-2.2,65.3,2.3c13.3,2.7,27.2,3.1,40.8,4.1c9.5,0.7,19.1,1.3,28.6,1.1c19-0.4,38-1.5,57-2.1c4.1-0.1,8.2,1.2,12.3,1.1
		c8.7-0.3,17.3-1.5,26-1.8c15.4-0.5,30.8-0.2,46,3.2c1.8,0.4,4.7,1.4,4.8,2.4c0.2,2-0.5,4.7-1.9,6.2c-2.4,2.6-5.5,4.5-8.7,7
		c0.4,2.6-0.1,6.6,1.6,8.5c2.9,3.1,2.1,4.5-0.1,7.3c-1.2,1.5-1,5.1,0,7.1c3.1,6.6,16.7,9.4,22.1,4.6c3.8-3.4,6.1-2.1,9.3,0.8
		c3.5,3.2,7.4,6.3,11.7,8.1c8.5,3.4,17.4,5.8,26.2,8.6c0.6,0.2,1.7,0,2.2-0.5c5.7-5.5,12.5-6.5,20.1-6c3.8,0.3,7.2,0.2,10.7,2.4
		c5.8,3.4,11.7,0.9,14.9-4.8c0.9-1.5,3.2-3,4.9-3.1c4.5-0.3,9.1,0,13.7,0.3c4.6,0.3,9.3,0.3,13.6,1.6c4.7,1.5,8.8,2.5,12.8-1.1
		c3.1-2.7,5.7-1.3,7.6,1.4c3.5,5,9.9,6.5,16,4c8.5-3.4,17.3-3.2,25.6,0.8c5.7,2.7,13.4,0.8,17-4.5c0.8-1.2,3.1-2.5,4.3-2.2
		c4,1.1,9.4,0.6,9.7,7.1c0,0.7,0.8,1.4,1.3,2c3.8,3.9,7.6,7.7,13.7,7.5c1.2,0,2.6,0.6,3.7,1.3c4.3,3,8.3,3,12.6-0.2
		c4.5-3.3,7.2-2.1,9.8,2.6c4.8,8.6,11.9,15.8,22.6,9.5c1.2-0.7,3.7-0.4,5.1,0.3c6.2,3.1,10,2.8,15.2-1.6c1.7-1.4,3.8-2.3,5.8-3.2
		c5.7-2.3,7.6-10.5,3.6-14.9c-1-1.1-1.5-3.2-1.5-4.8c-0.1-4.8,0.8-9.3-3.1-13.6c-3-3.3-2.3-10.4,0.1-12c3-2,11.8,2.4,13.2,5.7
		c2.3,5.3,4.7,11,8.5,15.1c3.8,4.1,4.9,8.2,4,13c-1,4.9-0.2,8.7,3.4,12.2c1.2,1.1,1.7,3.2,1.9,4.9c0.9,6.5,6.6,12.9,13.1,13
		c10.8,0.1,11.1,3.9,14,14.3c0.6,2.2,1.7,4.9,3.5,6c3.7,2.2,7.5,3.8,9.4,8.3c0.6,1.5,3,2.9,4.8,3.1c6.2,0.9,12.4,1.5,18.7,1.9
		c1.6,0.1,3.2-0.9,4.8-0.8c2.6,0.1,5.3,0.4,7.8,1.1c6.2,1.9,10.8,5.6,11.2,12.8c0,0.5,0.9,0.8,1.3,1.3c2.2,2.6,4.5,5.2,6.5,8
		c3.2,4.4-2.6,5.7-3.3,8.7c-0.2,0.8-0.3,1.6-0.7,2.3c-0.8,1.6-2,2.9-2.6,4.6c-0.9,2.6-2.2,5.3-2,7.9c0.1,1.3,3,2.5,4.6,3.7
		c1.6,1.2,4.3,2.3,4.5,3.6c0.2,1.9-1.1,4.4-2.6,5.9c-5.3,5.1-6.1,9.8-3.7,16.9c0.9,2.8-0.2,6.3-0.6,9.4c-0.2,1.5-1.5,3.4-1,4.4
		c3.4,6.8-0.8,11.3-4.6,15.8c-2.5,3-2.3,5.8,0.3,8.8c1.6,1.9,3.4,5.3,2.7,7.2c-1.7,4.8-1.8,10.6-7.1,13.7c-0.7,0.4-0.9,2-1.1,3.1
		c-0.9,4-3.1,4.7-6.6,3c-1.4-0.7-2.9-1.5-4.4-1.7c-3.7-0.5-7.5-0.5-11.3-0.9c-11.1-1.1-13.4,1-12.6,11.6c0.2,2.5-0.4,5.7-1.8,7.6
		c-2.2,3.1-5.9,5.1-8.3,8.1c-2,2.5-4.1,5.7-4.4,8.8c-0.7,6.2-3.9,11.5-8.8,13.5c-6.6,2.6-10.4,7.8-14.4,12.3
		c-12.1,13.4-26.5,23.4-42,32.2c-6.2,3.5-12.3,7.2-18.5,10.8c4.5,9.3,4.2,18.4,1.4,27.7c-1.4,4.6-2.6,9.3-3.7,14
		c-4,16.8-8.3,33.5-11.8,50.5c-4.3,21-12.2,40.2-28,55.2c-15.7,15-31.9,29.3-47.4,44.4c-6.9,6.8-12.6,14.9-18.7,22.5
		c-1.8,2.3-1.5,4.8,0.4,7.3c4.4,5.8,8.9,11.5,12.8,17.7c4.5,7.1,9.9,14.2,12,22.1c3,10.9,5.2,22.6,4.6,33.9
		c-1.1,23.9-0.1,47.9-4,71.6c-0.1,0.7-0.1,1.3-0.1,2c0.3,7.3,2.8,9.2,9.9,7.8c1.8-0.3,3.6-0.7,5.4-1c13.9-1.7,27.4-6.1,41.9-3.5
		c17.6,3.1,35.1,5.9,51.6,13.1c13.3,5.8,21.5,16.4,18.5,27.9c-1.7,6.6-5.5,13.4-10.2,18.5c-9.4,10.3-19.9,19.6-30,29.2
		c-5.3,5-11,9.7-16.4,14.7c-4.6,4.2-6.3,15.1-3.4,19.9c2.9,4.9,10.7,7.8,17.4,5.1c6.9-2.8,13.2-7.1,19.9-10.9
		c-3.6-5.1-6.4-9.1-10-14.3c3.6-0.2,6.3-1,8.5-0.4c23.6,6.3,47.2,12.7,70.8,19.4c26.5,7.6,46.8,22.6,56.6,49.4
		c0.4,1.1,0.9,2.1,1.4,3.2c5.1,11.7,2.8,19.3-8.6,25.2c-8.1,4.2-16.6,7.7-25,11.2c-30.2,12.6-61.2,23.4-89.7,40
		c-28.5,16.6-55.6,35-76.9,60.7c-5.2,6.2-10.7,11.7-18.1,15.3c-2.3,0-4.7,0-7,0c-3.6-3.8-7.9-7.1-10.6-11.5
		c-10.2-16.2-24.2-26.6-43.5-28.4c-24-2.3-47.4-7-69.8-15.9c-2.6-1.1-4.6-1-6.7,1c-2.9,2.7-6.3,3.3-10.2,2.1c-1.4-0.4-3.6,0.1-4.9,1
		c-5.2,3.3-9.9,7.5-15.3,10.3c-4.1,2.1-9.4,4.2-13.5,3.2c-6.3-1.5-12.2-5.1-17.7-8.8c-6.8-4.5-12.7-10.3-19.5-14.7
		c-4.7-3.1-10.2-5.3-15.6-7.2c-1.5-0.5-4.4,0.9-5.6,2.4c-3.9,4.7-6.7,10.4-11,14.7c-17.6,17.3-38.5,27.2-63.6,26
		c-29.8-1.4-59.6-3.3-89.3-4.8c-48.1-2.4-96-7.3-143.7-13.4c-49.7-6.4-99.4-13.1-149-19.5c-5.9-0.8-12-1.7-17.9-1.3
		c-8.2,0.6-11,6.6-6.4,13.3c3.2,4.6,7.2,8.7,11.3,12.4c9.7,8.7,19.6,17,29.5,25.4c2.7,2.3,3.2,5.5,1.5,8c-1.2,1.8-4.3,3.9-6.2,3.6
		c-5.1-0.8-10.8-1.7-14.8-4.6c-8.8-6.5-16.7-14.3-25.1-21.3c-21.2-17.5-42.4-35-63.9-52.2c-5.4-4.3-11.4-8.3-17.7-11
		c-8.4-3.7-17.2-6.4-26-8.9c-9.5-2.6-17-8-23.7-15c-2.1-2.2-5-3.9-7.9-4.7c-8.4-2.5-17-4.4-25.5-6.8c-13.1-3.6-19.1-13.2-16.8-26.4
		c0.5-3.1,1.4-6.2,1.7-9.3c0.1-1.6-0.3-3.7-1.3-4.7c-36-36.8-69.8-75.8-108.6-109.7c-22-19.2-47.2-33.1-76.1-38.9
		c-23.8-4.8-47.9-8.3-71.9-12c-16.3-2.5-32.7-4.3-49-6.1c-2.1-0.2-5.2,1.3-6.6,3c-13.2,15.7-24.5,32.8-34.6,50.7
		c-6.8,12-13.9,23.9-21.9,35.1c-14.7,20.6-33.7,35.4-59.4,39.8c-6.4,1.1-12.8,2.3-19,3.9c-18.1,4.4-17.5,20.1-13.3,33.2
		c1.3,4,2.2,8.2,2.4,12.3c0.3,3.7-2.4,6.4-6,5.8c-5.3-0.8-11.2-1.5-15.4-4.5c-9-6.5-16.9-14.5-25.5-21.6c-21.1-17.4-42-35-63.5-51.8
		c-25.1-19.7-52.6-35-84.1-42.3c-5.7-1.3-11.3-2.8-16.9-4.4c-11-3-16.4-9.6-17.6-20.9c-0.1-1-0.5-2.8-1.1-2.9
		c-3.6-0.8-7.3-1.5-11-1.7c-3.7-0.3-7.7,0.8-11-0.3c-5-1.5-9-0.5-12.4,2.7c-7,6.7-15.2,9.6-24.5,7.3c-5.7-1.4-11.5-3.4-16.3-6.6
		c-6.5-4.3-9.5-11.2-10.7-19c-0.5-3.2-1.1-6.7-2.6-9.5c-2.8-5.3-6.8-9.9-9.2-15.3c-3-6.7-4.8-14-7.1-21c0-1,0-2,0-3
		c0.7-3.1,1.6-6.1,2-9.2c1.1-8.2,4.2-15.2,10.2-21.1c3.3-3.2,6.1-7,9.2-10.4c5.5-6.3,11.1-12.4,19.4-15.1c1.2-0.4,2.5-1.2,3-2.3
		c4.8-8.4,11.8-13.7,21.3-15.8c1.5-0.3,3.2-2.1,3.7-3.6c2.7-8-2.4-15.3-8.4-18.1c-8.2-3.9-10.6-7.8-8.1-16.2c1.3-4.4,0-7.2-3-10.2
		c-1.8-1.8-3.4-4.2-3.9-6.6c-0.9-4.2-3-6.8-7-8.1c-2.7-0.9-5.2-2.1-7.9-3.1c-4.1-1.4-8.3-2.6-12.3-4.2c-2-0.8-4.1-1.8-5.8-3.1
		c-5.1-4.1-8.6-9-6.7-16.1c0.1-0.5-0.6-1.2-0.8-1.8c-1.4-5.9-7.8-12.6,2.3-17c0.4-0.2,0.6-0.8,1-1.1c1.7-1.4,3.7-2.5,5-4.2
		c1.6-2.1,3.3-4.5,3.8-6.9c0.3-1.3-1.7-3.1-2.8-4.7c-1.2-1.7-3.6-3.6-3.4-5.1c0.2-1.8,2.4-3.8,4.3-4.7c6.7-3.3,9-6.8,8.7-14.3
		c-0.2-3.8,0.4-7.1,4.1-9.5c1.1-0.7,2.1-2.9,1.9-4.2c-0.8-7.1,4.6-9.7,9.1-12.6c3.5-2.2,4.9-5.1,2.7-8.8c-2-3.5-2.1-6.7,0.9-9.5
		c3.4-3.1,7.2-5.9,10.7-8.9c0.8-0.7,1-1.9,1.1-1.9c-6.6-10.2-16.7-15.1-25.4-21.9c-1.1-0.8-2.2-3-1.8-4.1c1.4-3.8,2.6-8,5.3-10.7
		c3-3.1,7.4-5,11.4-6.9c40-18.5,80.5-36,122.1-50.6c2.6-0.9,5.6-2.8,6.8-5.1c4.5-8.3,9.2-16.7,12.2-25.6c4.1-12,6.5-24.2,1.6-37
		c-4-10.5-5.1-21.5-2-32.9c3.8-14.3,7.2-28.7,10.3-43.2c4-18.6,13.8-34.2,26.8-47.1c8.7-8.6,20.5-13.9,30.9-20.7
		c1.2-0.8,2.7-1.5,3.2-2.7c5.4-14,13.4-26.3,22.6-37.1c-1.4-5.4-3.5-10.4-3.9-15.6c-0.3-3.3,0.7-8.1,2.9-9.9c4-3.2,9.3-6.4,14.1-6.5
		c26.2-0.3,50.3-9.2,74.4-17.9c14.3-5.1,26.4-13.9,32.4-28.6C401,5.8,404.9,1.4,412,0z"/>
</g>
</svg>
