<?xml version="1.0" encoding="utf-8"?>
<!-- Generator: Adobe Illustrator 25.2.1, SVG Export Plug-In . SVG Version: 6.00 Build 0)  -->
<svg version="1.1" xmlns="http://www.w3.org/2000/svg" xmlns:xlink="http://www.w3.org/1999/xlink" x="0px" y="0px"
	 viewBox="0 0 1920 1080" style="enable-background:new 0 0 1920 1080;" xml:space="preserve">
<style type="text/css">
	.st0{display:none;}
	.st1{display:inline;fill:#CC3636;}
	.st2{display:inline;stroke:#FFFFFF;stroke-miterlimit:10;}
	.st3{display:inline;fill:#828282;}
	.st4{fill:#202020;}
</style>
<g id="Ebene_1" class="st0">
	<path class="st1" d="M1134.59,0c3.34,0,6.67,0,10.01,0c7.17,1,13.32,4.09,19.41,8.06c35.89,23.36,71.76,46.75,107.68,70.05
		c21.81,14.14,43.65,28.24,65.35,42.54c6.9,4.55,14.74,7.01,22.31,9.99c42.18,16.59,84.25,33.46,126.42,50.09
		c32.7,12.89,65.36,25.92,97.98,39c28.91,11.6,57.86,23.07,86.73,34.78c10.95,4.44,21.78,9.29,33.15,12.62
		c11.32,3.32,18.42,11.82,25.08,20.47c8.94,11.6,16.83,24,25.04,36.13c1.91,2.82,3.63,6.71,7.88,5.78c4.3-0.94,4.07-5.23,4.61-8.58
		c2.77-17.42,5.57-34.85,8.26-52.28c1.2-7.79,5.16-14.36,8.97-20.99c1.61-2.81,4.5-4.44,7.47-5.64c10.94-4.41,21.89-4.64,31.07,3.36
		c16.95,14.76,34.01,29.41,50.43,44.78c4.32,4.05,6.72,8.48,6.07,14.51c-0.75,7.05,1.96,12.82,6.43,18.26
		c10.15,12.35,19.75,25.15,29.8,37.59c2.83,3.51,4.61,7.26,4.25,11.94c-0.16,2.12-0.16,4.37,1,6.35c0,1,0,2,0,3
		c-3.91,7.6-0.58,15.63-1.29,23.45c-0.85,9.39-3.96,17.79-8.59,25.81c-1.11,1.93-2.82,3.25-4.67,4.42
		c-12.55,7.91-25.18,15.69-37.72,23.61c-3.47,2.19-7.12,3.43-11.32,3.22c-6.31-0.32-12.63,0.23-18.95-0.82
		c-5.38-0.89-7.57,1.23-6.9,6.78c1.85,15.37,4.04,30.71,6.73,45.96c0.91,5.19,3.32,6.83,8.58,5.92c8.8-1.53,17.63-0.66,26.45-0.87
		c5.46-0.13,9.87,1.99,12.18,7.09c2.29,5.06,0.84,9.79-2.35,14.04c-1.72,2.28-3.97,4.01-6.35,5.58c-4.64,3.07-6.94,7.44-7.21,13
		c-0.76,15.45-1.33,30.92-2.24,46.35c-1.1,18.6-1.23,37.24-2.87,55.81c-0.59,6.66-3.42,9.73-9.81,11.35
		c-18.42,4.69-36.47,10.68-54.67,16.14c-65.3,19.61-130.57,39.28-195.83,59.01c-60.16,18.19-120.3,36.4-180.47,54.54
		c-42.45,12.8-84.89,25.64-127.36,38.37c-16.45,4.93-32.91,9.8-49.32,14.86c-5.89,1.82-10.36,4.96-13.26,10.53
		c-3.06,5.87-8.3,9.96-12.92,14.49c-5.1,5.02-8.78,10.74-11.07,17.55c-4.82,14.31-12.99,26.98-20.23,40.09
		c-1.66,3.01-4.51,4.8-7.74,6.01c-19.06,7.08-38.11,14.23-57.2,21.23c-12.76,4.68-19.38-0.06-19.46-13.56
		c-0.04-6.49,0.01-12.95,0.69-19.45c0.93-8.96,0.02-17.94-0.65-26.92c-0.9-11.99,0.77-23.94,1.07-35.92
		c0.31-12.49-4.94-20.58-16.41-25.14c-6.5-2.59-12.78-5.7-19.33-8.21c-6.8-2.61-10.04-8.09-9.17-15.35
		c0.32-2.65,0.76-5.28,0.57-7.96c-0.27-3.78-1.59-6.92-5.67-7.86c-4.05-0.94-7.39,0.55-9.34,4.13c-3.02,5.56-6.14,11.07-8.99,16.72
		c-6.74,13.39-13.53,26.77-20.11,40.24c-3.22,6.59-7.57,10.67-15.46,10.17c-5.14-0.33-9.36,1.88-12.32,6.3
		c-2.64,3.96-6.29,6.84-10.37,9.22c-7.61,4.43-11.87,10.36-9.83,19.78c0.95,4.36-1.41,8.05-4.61,11.05
		c-12.53,11.72-25.69,22.76-37.68,35.05c-5.08,5.21-11.29,7.1-18.45,7.5c-13.43,0.76-25.98-1.97-38.55-6.66
		c-17.32-6.47-34.88-12.35-52.45-18.15c-4.94-1.63-8.4-4.39-10.69-9c-2.07-4.17-3.83-8.54-6.61-12.32
		c-4.63-6.28-12.75-6.15-15.77,0.9c-7.6,17.71-20.4,31.93-30.92,47.67c-14.8,22.16-30.97,43.39-45.43,65.79
		c-4.46,6.91-10.96,10.38-18.84,10.49c-8.49,0.12-13.67,4.32-17.3,11.35c-2.98,5.77-5.94,11.54-9.48,17.02
		c-2.32,3.58-5.56,4.31-9.5,4.89c-8.44,1.23-13.69-3.16-18.55-8.98c-4.36-5.22-4.8-11.22-3.72-17.46
		c1.73-10.02-1.21-17.91-8.53-25.22c-6.61-6.61-13.88-12.86-17.66-22.07c-2.51-6.11-8.73-6.7-14.61-6.24
		c-6.65,0.52-13.19,1.93-19.76,3.07c-62.4,10.87-124.79,21.78-187.18,32.71c-63.21,11.08-126.43,22.11-189.65,33.1
		c-21.13,3.67-42.25,7.35-63.28,11.57c-5.5,1.1-10.95,0.04-16.4-0.6c-0.22-0.03-1.19,0-1.67-0.67
		c-5.07-7.01-13.92-11.81-12.98-22.32c0.09-0.99,0.05-2-0.01-3c-0.06-0.98,0.17-2.24-0.82-2.72c-1.39-0.66-2.04,0.73-2.75,1.55
		c-1.73,2.03-3.14,4.31-4.53,6.58c-1.8,2.96-4.49,4.57-7.87,4.48c-11.01-0.28-21.94,1.67-32.96,1.09c-1.66-0.09-3.32-0.03-4.96-0.47
		c-7.77-2.07-10.63-9.76-5.4-15.89c2.94-3.44,3.43-6.46,2.68-10.85c-1.14-6.7-0.72-13.64-0.23-20.44
		c0.85-11.78,1.03-23.6,1.95-35.36c0.91-11.64,0.34-23.3,1.33-34.91c0.37-4.32-0.78-7.88-4.09-10.71
		c-5.32-4.56-6.96-10.23-5.59-17.06c0.79-3.91,1.69-7.82,2.06-11.81c0.5-5.44-1-7.99-6.22-9.14c-6.85-1.51-12.19-5.12-16.71-10.28
		c-2.85-3.26-5.62-6.59-8.61-9.73c-3.91-4.11-4.42-8.95-2.02-13.86c2.31-4.73,3.78-9.51,3.83-14.83c0.04-3.88,2.32-6.99,5.07-9.45
		c3.48-3.11,6.86-6.32,10.22-9.56c5.23-5.06,11.38-6.63,18.42-4.95c1.78,0.42,3.57,0.82,5.37,1.21c4.49,0.97,8.23-0.12,11.13-3.81
		c2.92-3.73,6.64-6.1,11.05-8.14c8.67-4,14.69-11.28,20-19.05c1.22-1.78,1.85-4,3.47-5.46c5.68-5.13,8.8-11.55,10.33-18.96
		c0.86-4.16,4.04-6.82,7.11-9.4c5.28-4.44,11.2-7.82,17.67-10.21c11.15-4.12,16.53-12.21,17.1-23.94
		c1.05-21.93,2.47-43.83,3.76-65.75c0.85-14.44,1.44-28.91,2.4-43.34c1.3-19.58,2.23-39.18,3.5-58.76
		c1.12-17.26,2.25-34.53,2.9-51.82c0.17-4.53-1.62-8.42-4.26-12.01c-4.93-6.72-10.02-13.31-15.14-19.88
		c-2.15-2.77-4.05-5.68-5.68-8.8c-2.08-3.96-3.29-7.92-1.22-12.59c-2.63,2.42-4.46,5.03-7.55,6.3c-9.44,3.88-15.55,2.36-21.81-5.95
		c-25.57-33.93-50.96-68-76.6-101.88c-7.43-9.82-14.58-19.83-21.82-29.77c-1.96-2.68-2-5.89-3.01-8.83c0-1.67,0-3.33,0-5
		c3.28-10.22,5.36-20.78,8.92-30.94c2.15-6.14,5.88-9.68,12.1-11.25c27.81-7.02,55.27-15.3,82.91-22.93
		c3.95-1.09,7.89-2.87,12.21-1.67c6.37,1.77,11.03,5.45,13.15,11.85c3.4,10.23,8.93,19.69,10.88,31.13
		c3.42-3.66,4.75-6.7,3.97-11.49c-1.02-6.29-2.24-12.31-4.84-18.19c-1.76-3.97-1.07-8.3,2.08-11.66c3.53-3.77,6.82-7.76,10.32-11.56
		c3.71-4.02,8.09-6.77,13.27-8.57c7.75-2.69,9.19-5.46,7.82-13.66c-0.47-2.79-0.94-5.59-1.48-8.36c-1.22-6.26,0.32-11.59,5.05-15.84
		c3.98-3.57,5.02-7.8,4.51-13.03c-0.94-9.6-0.53-19.28-0.95-28.93c-0.79-18.28-2.55-36.53-2.31-54.85c0.02-1.33-0.26-2.74,0.12-3.98
		c1.47-4.87,0.37-8.66-2.87-12.82c-5.1-6.55-0.86-14.64,7.76-15.43c5.97-0.55,12.03-0.58,17.99,0.05
		c5.16,0.55,10.31,0.91,15.47,0.72c5.18-0.19,8.89,1.62,11.58,6.2c1.41,2.4,2.61,6.67,5.84,5.81c2.33-0.62,1-4.78,1.14-7.35
		c0.22-3.83,1.4-7.14,4.2-9.84c1.68-1.62,3.23-3.36,4.61-5.26c5.33-7.35,13.33-10.9,21.72-7.96c23.34,8.17,47.89,10.24,71.93,14.7
		c36.22,6.72,72.57,12.76,108.85,19.17c6.91,1.22,13.06,0.55,18.11-4.42c10.21-10.04,22.88-12.29,36.56-13.23
		c24.92-1.71,49.79-4.23,74.67-6.49c20.24-1.83,40.49-3.54,60.73-5.33c25.05-2.22,50.12-4.34,75.16-6.67
		c20.23-1.88,40.5-3.42,60.73-5.29c21.07-1.95,42.14-3.81,63.22-5.63c17.09-1.48,34.18-3.07,51.28-4.4
		c16.94-1.32,33.84-3.07,50.77-4.49c17.1-1.43,34.18-2.98,51.27-4.47c16.1-1.4,32.18-2.94,48.29-4.21
		c21.16-1.67,42.29-3.79,63.54-4.46C1111.7,1.46,1123.19,1.41,1134.59,0z"/>
</g>
<g id="Ebene_1_Kopie" class="st0">
	<path class="st2" d="M1122.39,1.12c22.75-1.04,27.17-2.7,41.62,6.94c35.89,23.36,151.33,98.28,173.03,112.59
		c6.9,4.55,14.74,7.01,22.31,9.99c42.18,16.59,332.92,133.16,344.28,136.49c11.32,3.32,18.42,11.82,25.08,20.47
		c8.94,11.6,16.83,24,25.04,36.13c1.91,2.82,3.63,6.71,7.88,5.78c4.3-0.94,4.07-5.23,4.61-8.58c2.77-17.42,5.57-34.85,8.26-52.28
		c1.2-7.79,7.32-21.09,16.44-26.63c10.94-4.41,21.89-4.64,31.07,3.36c16.95,14.76,34.01,29.41,50.43,44.78
		c4.32,4.05,6.72,8.48,6.07,14.51c-0.75,7.05,1.96,12.82,6.43,18.26c10.15,12.35,19.75,25.15,29.8,37.59
		c2.83,3.51,4.61,7.26,4.25,11.94c-0.16,2.12,0.42,24.98-0.29,32.8c-0.85,9.39-6.54,26.62-13.26,30.22
		c-12.55,7.91-25.18,15.69-37.72,23.61c-3.47,2.19-7.12,3.43-11.32,3.22c-6.31-0.32-12.63,0.23-18.95-0.82
		c-5.38-0.89-7.57,1.23-6.9,6.78c1.85,15.37,4.04,30.71,6.73,45.96c0.91,5.19,3.32,6.83,8.58,5.92c8.8-1.53,17.63-0.66,26.45-0.87
		c5.46-0.13,9.87,1.99,12.18,7.09c2.29,5.06,0.84,9.79-2.35,14.04c-3.94,5.68-13.16,6.26-13.57,18.59
		c-0.76,15.45-3.47,83.59-5.11,102.16c-0.59,6.66-3.42,9.73-9.81,11.35c-18.42,4.69-591.25,177.86-607.66,182.92
		c-5.89,1.82-10.36,4.96-13.26,10.53c-3.06,5.87-8.3,9.96-12.92,14.49c-5.1,5.02-8.78,10.74-11.07,17.55
		c-4.82,14.31-12.99,26.98-20.23,40.09c-1.66,3.01-4.51,4.8-7.74,6.01c-19.06,7.08-38.11,14.23-57.2,21.23
		c-12.76,4.68-19.38-0.06-19.46-13.56c-0.04-6.49,0.81-70.3,1.1-82.28c0.31-12.49-4.94-20.58-16.41-25.14
		c-6.5-2.59-12.78-5.7-19.33-8.21c-6.8-2.61-10.04-8.09-9.17-15.35c0.32-2.65,2.98-14.11-5.09-15.82c-4.05-0.94-7.39,0.55-9.34,4.13
		c-3.02,5.56-22.52,43.49-29.1,56.96c-3.22,6.59-7.57,10.67-15.46,10.17c-5.14-0.33-9.36,1.88-12.32,6.3
		c-2.64,3.96-6.29,6.84-10.37,9.22c-7.61,4.43-11.87,10.36-9.83,19.78c0.95,4.36-1.41,8.05-4.61,11.05
		c-12.53,11.72-25.69,22.76-37.68,35.05c-5.08,5.21-13.38,7.78-26.86,7.66c-13.45-0.13-65.01-19.17-82.58-24.97
		c-9.95-3.04-10.21-11.47-17.3-21.31c-4.63-6.28-12.75-6.15-15.77,0.9c-7.6,17.71-20.4,31.93-30.92,47.67
		c-14.8,22.16-30.97,43.39-45.43,65.79c-4.46,6.91-10.96,10.38-18.84,10.49c-8.49,0.12-13.67,4.32-17.3,11.35
		c-10.73,22.86-15.04,21.33-18.98,21.9c-8.44,1.23-13.69-3.16-18.55-8.98c-4.36-5.22-4.8-11.22-3.72-17.46
		c1.73-10.02-1.21-17.91-8.53-25.22c-6.61-6.61-13.88-12.86-17.66-22.07c-2.51-6.11-8.73-6.7-14.61-6.24
		c-6.65,0.52-438.84,76.24-459.86,80.46c-3.48,0.48-15.38,0.24-17.84-1.95c-3.24-3.28-14.15-11.12-13.21-21.64
		c0.09-0.99,0.16-5.24-0.83-5.72c-1.39-0.66-2.19,0.07-7.27,8.14c-1.8,2.96-4.49,4.57-7.87,4.48c-11.01-0.28-23.18,1.91-37.92,0.62
		c-7.77-2.07-10.63-9.76-5.4-15.89c2.94-3.44,3.43-6.46,2.68-10.85c-1.14-6.7-0.72-13.64-0.23-20.44
		c0.85-11.78,2.29-58.66,3.28-70.27c0.37-4.32-0.78-7.88-4.09-10.71c-5.32-4.56-6.96-10.23-5.59-17.06
		c0.79-3.91,1.69-7.82,2.06-11.81c0.5-5.44-1-7.99-6.22-9.14c-12.9-3.53-15.04-9.43-25.32-20.01c-3.91-4.11-4.42-8.95-2.02-13.86
		c2.31-4.73,3.78-9.51,3.83-14.83c0.04-3.88,2.49-6.82,5.07-9.45c13.2-13.44,18.23-16.6,28.63-14.51c10.27,3.08,13.6,1.09,16.49-2.6
		c2.92-3.73,6.62-6.14,11.05-8.14c13.61-6.14,21.85-23.05,23.47-24.52c5.68-5.13,8.8-11.55,10.33-18.96
		c0.86-4.16,4.04-6.82,7.11-9.4c5.28-4.44,11.2-7.82,17.67-10.21c11.15-4.12,16.53-12.21,17.1-23.94
		c1.05-21.93,11.91-202.38,12.56-219.67c0.17-4.53-1.62-8.42-4.26-12.01c-4.93-6.72-19.18-25.56-20.82-28.68
		c-2.08-3.96-3.29-7.92-1.22-12.59c-2.63,2.42-4.46,5.03-7.55,6.3c-9.44,3.88-15.55,2.36-21.81-5.95
		C75.86,418.4,10.26,330.63,3.01,320.68c-1.96-2.68-3.46-10.4-2.64-15.03c3.28-10.22,4.98-19.58,8.54-29.74
		c2.15-6.14,5.88-9.68,12.1-11.25c27.81-7.02,55.27-15.3,82.91-22.93c3.95-1.09,7.89-2.87,12.21-1.67
		c6.37,1.77,11.03,5.45,13.15,11.85c3.4,10.23,8.93,19.69,10.88,31.13c8.09-6.42,2.73-18.19-0.87-29.68
		c-1.3-4.14-1.21-8.43,2.08-11.66c8.61-8.46,11.19-15.92,23.59-20.13c7.75-2.69,9.19-5.46,7.82-13.66
		c-1.88-12.15-3.7-16.46,3.57-24.2c3.98-3.57,5.02-7.8,4.51-13.03c-0.94-9.6-3.52-86.52-3.15-87.77c1.47-4.87,0.37-8.66-2.87-12.82
		c-5.1-6.55-0.86-14.64,7.76-15.43c5.97-0.55,28.29,0.97,33.45,0.77c5.18-0.19,8.89,1.62,11.58,6.2c1.41,2.4,2.61,6.67,5.84,5.81
		c2.33-0.62,0.94-4.78,1.14-7.35c0.68-8.81,5.85-10.1,8.81-15.1c5.33-7.35,13.33-10.9,21.72-7.96
		c25.33,9.08,22.06,4.94,180.78,33.87c6.91,1.22,13.06,0.55,18.11-4.42c10.21-10.04,22.9-12.04,36.56-13.23
		C1072.76,3.33,1083.34,2.61,1122.39,1.12z"/>
</g>
<g id="Ebene_3" class="st0">
	<path class="st3" d="M677.32,0c16.01,0,32.02,0,48.03,0c2,0.68,3.96,1.74,6.01,1.99c9.75,1.15,19.54,2.03,29.3,3.11
		c4.29,0.48,8.53,1.34,12.82,1.8c6.27,0.67,12.64,0.68,18.82,1.78c14.27,2.52,28.36,6.18,42.69,8.12
		c12.83,1.74,25.17,4.44,37.03,9.67c7.45,3.29,15.1,6.24,22.87,8.65c19.9,6.17,38.97,13.95,57.64,23.42
		c32.28,16.37,63.19,34.76,92.72,55.62c7.45,5.26,15.14,10.25,23.05,14.79c14.51,8.32,29.48,15.86,43.86,24.39
		c9.47,5.61,18.54,11.32,30.25,8.81c1.24-0.26,2.65,0.09,3.94,0.35c14.99,3,29.93,6.3,44.98,8.97c8.47,1.5,17.16,1.78,25.7,2.97
		c5.75,0.8,11.37,2.48,17.11,3.35c12.75,1.93,24.27,5.92,34.17,14.91c6.13,5.57,14.08,8.41,22.78,9.09
		c17.17,1.35,31.96,7.45,41.73,22.79c1.41,2.22,4.06,3.93,6.49,5.17c10.03,5.13,20.34,9.74,30.3,15.02
		c15.53,8.24,31.09,14.85,49.49,10.84c14.44-3.15,29.1-2.91,43.61,0.76c2.96,0.75,6.6,1.03,9.37,0c10.39-3.84,20.1-0.91,29.68,2.4
		c6.59,2.28,12.96,2.79,19.56,0.74c14.82-4.62,28.41-1.65,40.67,7.25c4.8,3.48,9.63,4.69,15.37,4.38
		c13.81-0.73,25.74,3.77,36.06,13.11c2.96,2.68,6.87,5.19,10.7,5.91c18.64,3.51,37.35,6.8,56.14,9.41
		c27.61,3.83,54.19,10.79,78.61,24.54c16.96,9.55,33.24,20.35,50.43,29.44c27.27,14.42,47.38,35.58,62.38,62.15
		c2.61,4.62,5.66,9.03,8.92,13.22c5.51,7.09,11.79,13.62,16.97,20.94c10.58,14.96,15.3,32.43,20.19,49.78
		c0.39,1.4,1.49,2.59,2.25,3.89c0,4,0,8.01,0,12.01c-0.67,0.54-1.74,0.95-1.93,1.63c-0.87,3.02-1.56,6.11-2.2,9.19
		c-2.88,13.79-8.29,26.14-19.45,35.4c-8.94,7.43-19.65,10.27-30.77,11.63c-17.56,2.15-35.01,5.34-51.09,12.53
		c-12.26,5.48-24.14,11.66-37.18,15.19c-1.85,0.5-3.57,1.79-5.13,3c-8.35,6.46-17.87,9.18-28.29,9.68
		c-4.24,0.21-8.86,0.6-12.57,2.42c-16.07,7.91-31.52,17.17-47.87,24.38c-12.69,5.59-26.31,9.16-39.69,13.07
		c-6.88,2.01-13.12,4.67-18.1,9.89c-14.43,15.09-30.69,27.93-48.02,39.5c-16.23,10.84-31.14,23.07-43.32,38.61
		c-17.3,22.08-35.31,43.61-52.84,65.52c-7.36,9.19-14.6,18.51-21.27,28.2c-7.86,11.41-15.54,22.83-27.35,30.67
		c-1.04,0.69-1.65,2.04-2.46,3.08c-2.65,3.39-4.95,7.15-8.02,10.12c-9.57,9.24-19.32,18.29-29.22,27.19
		c-7.77,6.98-15.59,13.95-23.85,20.33c-12.97,10.02-26.26,19.63-39.55,29.23c-11.13,8.03-21.71,17.28-33.88,23.29
		c-14.91,7.37-31.12,12.19-46.96,17.54c-5.71,1.93-11.99,3.11-17.98,3.01c-6.66-0.11-12.81,0.68-18.91,3.23
		c-8.24,3.44-16.33,7.73-24.94,9.71c-26.79,6.16-53.69,12.03-80.76,16.8c-22.84,4.02-45.97,6.39-68.98,9.41
		c-11.18,1.47-22.55,1.96-33.51,4.37c-11.01,2.42-21.86,4.91-33.15,6.19c-9.87,1.13-19.73,4.36-29.01,8.1
		c-11.65,4.7-22.52,11.31-34.07,16.3c-22.8,9.84-50.22,1.45-64.37-19.03c-1.97-2.85-3.9-6.42-6.76-7.85
		c-12.66-6.34-22.91-17.1-37.29-20.28c-2.35-0.52-4.58-1.87-6.71-3.11c-12.11-7.09-18.67-18.63-23.94-30.94
		c-2.31-5.4-5.89-8.38-11.42-8.95c-11.47-1.18-22.66-3.04-32.5-9.73c-1.59-1.08-3.74-1.32-5.54-2.14
		c-5.8-2.64-11.78-4.99-17.26-8.19c-3.93-2.3-6.74-6.88-10.82-8.5c-5.43-2.16-11.58-3.09-17.48-3.39
		c-18.27-0.92-36.56-1.28-54.84-1.9c-2.47-0.08-4.97-0.26-7.38-0.74c-12.35-2.46-24.58-5.87-37.04-7.39
		c-19.66-2.39-38.36-7.57-56.17-16.05c-6.11-2.91-11.75-6.81-17.81-9.84c-8.42-4.22-17.2-7.75-25.52-12.16
		c-8.2-4.34-15.81-9.52-22-16.78c-4.61-5.41-10.34-9.84-15.42-14.86c-5.14-5.08-10.59-9.97-14.99-15.65
		c-3.68-4.74-6.41-9.93-12.49-12.35c-2.43-0.97-4.17-3.65-6.27-5.48c-5.87-5.11-11.18-11.2-17.79-15.05
		c-13.72-7.99-21.62-19.27-23.78-34.84c-0.99-7.14-2.81-13.85-7.33-19.85c-2.3-3.05-3.13-7.25-4.4-11.01
		c-1.53-4.54-2.57-9.26-4.25-13.74c-3.77-10.07-8.75-19.04-16.79-26.9c-13.88-13.55-25.73-29.19-39.63-42.73
		c-8.49-8.26-15.33-16.89-18.74-28.16c-2.3-7.6-6.26-15.26-6.24-22.88c0.03-12.85-5.86-22.17-13.52-31.1
		c-8.55-9.96-19.8-16.53-30.43-23.89c-13.19-9.14-25.36-19.3-32.51-34.28c-0.85-1.78-2.78-3.22-4.5-4.39
		c-15.33-10.4-30.98-20.36-46.01-31.17c-8.94-6.43-17.31-13.79-25.25-21.44c-7.88-7.59-14.34-16.7-22.45-24
		c-9.58-8.63-16.05-18.93-20.31-30.76c-2.65-7.36-6.95-12.09-14.98-13.36c-10.36-1.65-18.45-7.15-24.3-15.85
		c-2.5-3.71-5.12-7.38-7.18-11.34c-7.89-15.18-13.11-31.05-12.22-48.5c0.18-3.6-0.47-7.27-0.95-10.88
		c-0.57-4.27-1.49-8.49-2.06-12.76c-1.33-10.03-1.72-20.26-4.02-30.05c-2.71-11.54-3.78-23-3.98-34.81
		c-0.18-11.03,1.78-21.47,4.99-31.78c1.42-4.55,3.93-8.77,6.05-13.09c1.31-2.67,3.15-5.11,4.18-7.87
		c3.51-9.38,9.77-16.59,17.37-22.78c9.98-8.12,21.65-12.18,34.22-14.06c3.34-0.5,6.29-1.22,7.84-5.06
		c3.57-8.86,9.47-16.08,17.4-21.38c4.36-2.92,6.3-6.76,7.63-11.71c2.27-8.48,5.19-16.8,8.28-25.02c1.32-3.52,4.48-6.41,5.52-9.96
		c3.6-12.29,11.82-20.56,22.07-27.38c27.11-18.03,65.17-6.75,73.56,24.54c2.49,9.27,8.3,11.05,15.34,4.44
		c6.05-5.69,13.02-9.09,20.83-11.26c9.89-2.74,19.9-5.09,29.94-1.43c9.14,3.33,18.24,3.17,27.57,1.6
		c9.18-1.54,18.47-4.42,27.55-3.88c7.26,0.43,14.13-0.61,21.18-0.93c4.14-0.19,8.37-0.52,12.42,0.1c17.78,2.7,35.51,5.71,53.26,8.64
		c7.48,1.24,14.2-4.77,15.23-12.13c1.16-8.34,2.87-16.77,5.75-24.65c4.16-11.4,12.82-18.69,24.4-22.66
		c13.83-4.74,28.03-7.82,42.6-7.92c20.82-0.14,41.65,0.59,62.48,0.95c5.83,0.1,11.66,0.29,17.5,0.29c14.14,0,28.39,1.02,42.38-0.42
		c16.02-1.65,31.82-5.51,47.7-8.49C676.01,1.38,676.63,0.52,677.32,0z"/>
</g>
<g id="Ebene_4">
	<path class="st4" d="M731.36,1.96c124.68,12.64,155.75,30.72,163.53,33.13c93.71,29.12,152.26,87.2,217.27,118.22
		c9.47,5.61,19.54,11.32,31.25,8.81c76.52,18.11,98.88,8.67,124.9,30.55c6.13,5.57,14.08,8.41,22.78,9.09
		c17.17,1.35,31.96,7.45,41.73,22.79c1.41,2.22,26.83,14.91,36.79,20.19c15.53,8.24,31.09,14.85,49.49,10.84
		c14.44-3.15,95.63,5.96,102.22,3.9c14.82-4.62,28.41-1.65,40.67,7.25c4.8,3.48,9.62,4.4,15.37,4.38
		c33.34-0.08,33.34,17.5,46.76,19.02c51.21,11.66,89.01,7.71,134.75,33.95c16.96,9.55,33.24,20.35,50.43,29.44
		c27.27,14.42,47.38,35.58,62.38,62.15c8.95,16.26,20.71,26.85,25.88,34.16c10.58,14.96,15.3,32.43,20.19,49.78
		c0.39,1.4,4.2,39.4-21.33,62.12c-8.94,7.43-19.65,10.27-30.77,11.63c-33.38,1.9-75.23,24.19-88.28,27.73
		c-1.85,0.5-3.57,1.79-5.13,3c-8.35,6.46-17.87,9.18-28.29,9.68c-4.24,0.21-8.86,0.6-12.57,2.42
		c-16.07,7.91-50.35,30.73-87.56,37.44c-6.88,2.01-13.12,4.67-18.1,9.89c-14.43,15.09-30.69,27.93-48.02,39.5
		c-39.1,21.38-57.13,61.28-117.43,132.33c-7.86,11.41-69.39,84.59-164.33,143.89c-14.91,7.37-54.54,21.59-64.94,20.55
		c-6.63-0.66-12.81,0.68-18.91,3.23c-88.07,34.73-145.67,26.82-241.34,46.48c-25.67,3.2-51.53,19.41-63.08,24.4
		c-22.8,9.84-50.22,1.45-64.37-19.03c-1.97-2.85-17.8-18.87-44.05-28.13c-19.91-9.21-25.38-21.74-30.65-34.06
		c-2.31-5.4-5.89-8.38-11.42-8.95c-34.56-2.69-58.59-23.57-66.11-28.57c-15.49-7.09-47.14-2.26-79.71-6.03
		c-97.57-12.49-104.16-32.28-136.54-45.44c-14.67-4.42-42.36-43.11-88.98-80.18c-13.72-7.99-19.87-19.61-23.78-34.84
		c-12.69-49.43-29.83-71.26-72.4-114.23c-19.86-20.05-18.58-28.24-21.99-39.51c-9.91-27.5,2.57-33.74-46.94-66.53
		c-24.35-15.57-34.9-37.99-43.24-42.84c-37.78-21.96-90.13-59.34-107.79-103.2c-2.92-7.25-6.95-12.09-14.98-13.36
		c-10.36-1.65-18.45-7.15-24.3-15.85c-14.72-21.88-20.29-42.39-19.4-59.84c0.18-3.6-11.01-76.69-11.01-88.5
		c0-72.69,54.25-87.7,66.82-89.57c3.34-0.5,6.29-1.22,7.84-5.06c3.57-8.86,9.47-16.08,17.4-21.38c15.96-11.62,4.09-44.16,43.5-74.08
		c27.11-18.03,65.17-6.75,73.56,24.54c2.49,9.27,8.3,11.05,15.34,4.44c6.05-5.69,27.33-18.4,50.77-12.69
		c9.45,2.3,18.45,4.12,27.57,1.6c40.87-11.27,96.67,1,114.41,3.93c7.48,1.24,14.2-4.77,15.23-12.13c7.5-47.9,23.33-52.3,72.75-55.24
		c20.79-1.23,108.36,2.27,122.36,0.82c16.02-1.65,31.82-5.51,47.7-8.49C704.86-1.79,729.3,1.75,731.36,1.96z"/>
</g>
</svg>
